<?xml version="1.0" encoding="utf-8"?>
<!-- Generator: Adobe Illustrator 27.5.0, SVG Export Plug-In . SVG Version: 6.00 Build 0)  -->
<svg version="1.1" xmlns="http://www.w3.org/2000/svg" xmlns:xlink="http://www.w3.org/1999/xlink"
	x="0px" y="0px"
	viewBox="0 0 500 500" style="enable-background:new 0 0 500 500;" xml:space="preserve">
<g id="Background_Simple">
	<g>
		<path style="fill:#5298FA;" d="M273.587,16.87c43.479,8.747,92.895,32.934,113.094,74.871
			c30.526,63.363,85.439,62.723,99.551,182.71c2.202,18.708,2.34,36.303,0.695,52.75c-0.883,8.841-2.293,17.355-4.18,25.523
			c-17.052,74.147-73.307,120.41-137.772,133.825c-84.783,17.659-135.042-35.421-165.085-70.339
			C149.847,381.293,49.996,349.4,35.196,231.554c-2.249-17.968-2.661-36.189-0.745-54.216c4.358-41.148,21.547-85.02,52.33-113.844
			c2.313-2.164,4.699-4.257,7.147-6.288C141.832,17.558,214.31,4.941,273.587,16.87z"/>
		<path style="opacity:0.7;fill:#FFFFFF;" d="M273.587,16.87c43.479,8.747,92.895,32.934,113.094,74.871
			c30.526,63.363,85.439,62.723,99.551,182.71c2.202,18.708,2.34,36.303,0.695,52.75c-0.883,8.841-2.293,17.355-4.18,25.523
			c-17.052,74.147-73.307,120.41-137.772,133.825c-84.783,17.659-135.042-35.421-165.085-70.339
			C149.847,381.293,49.996,349.4,35.196,231.554c-2.249-17.968-2.661-36.189-0.745-54.216c4.358-41.148,21.547-85.02,52.33-113.844
			c2.313-2.164,4.699-4.257,7.147-6.288C141.832,17.558,214.31,4.941,273.587,16.87z"/>
	</g>
</g>
<g id="Graphics">
	<g>
		
			<line style="fill:none;stroke:#263238;stroke-linecap:round;stroke-linejoin:round;stroke-miterlimit:10;" x1="53.727" y1="57.672" x2="67.687" y2="71.632"/>
		
			<line style="fill:none;stroke:#263238;stroke-linecap:round;stroke-linejoin:round;stroke-miterlimit:10;" x1="67.687" y1="57.672" x2="53.727" y2="71.632"/>
	</g>
	<g>
		
			<line style="fill:none;stroke:#263238;stroke-linecap:round;stroke-linejoin:round;stroke-miterlimit:10;" x1="447.348" y1="424.404" x2="461.308" y2="438.364"/>
		
			<line style="fill:none;stroke:#263238;stroke-linecap:round;stroke-linejoin:round;stroke-miterlimit:10;" x1="461.308" y1="424.404" x2="447.348" y2="438.364"/>
	</g>
	<g>
		
			<line style="fill:none;stroke:#263238;stroke-linecap:round;stroke-linejoin:round;stroke-miterlimit:10;" x1="138.875" y1="131.604" x2="148.366" y2="141.094"/>
		
			<line style="fill:none;stroke:#263238;stroke-linecap:round;stroke-linejoin:round;stroke-miterlimit:10;" x1="148.366" y1="131.604" x2="138.875" y2="141.094"/>
	</g>
	<g>
		
			<line style="fill:none;stroke:#263238;stroke-linecap:round;stroke-linejoin:round;stroke-miterlimit:10;" x1="380.533" y1="357.917" x2="390.023" y2="367.408"/>
		
			<line style="fill:none;stroke:#263238;stroke-linecap:round;stroke-linejoin:round;stroke-miterlimit:10;" x1="390.023" y1="357.917" x2="380.533" y2="367.408"/>
	</g>
	<g>
		
			<line style="fill:none;stroke:#263238;stroke-linecap:round;stroke-linejoin:round;stroke-miterlimit:10;" x1="91.479" y1="444.559" x2="100.969" y2="454.049"/>
		
			<line style="fill:none;stroke:#263238;stroke-linecap:round;stroke-linejoin:round;stroke-miterlimit:10;" x1="100.969" y1="444.559" x2="91.479" y2="454.049"/>
	</g>
	<g>
		
			<line style="fill:none;stroke:#263238;stroke-linecap:round;stroke-linejoin:round;stroke-miterlimit:10;" x1="377.545" y1="30.771" x2="387.035" y2="40.262"/>
		
			<line style="fill:none;stroke:#263238;stroke-linecap:round;stroke-linejoin:round;stroke-miterlimit:10;" x1="387.035" y1="30.771" x2="377.545" y2="40.262"/>
	</g>
	<path style="fill:none;stroke:#263238;stroke-linecap:round;stroke-linejoin:round;stroke-miterlimit:10;" d="M68.852,112.931
		c0-3.3-2.675-5.975-5.975-5.975c-3.3,0-5.975,2.675-5.975,5.975c0,3.3,2.675,5.975,5.975,5.975
		C66.177,118.906,68.852,116.231,68.852,112.931z"/>
	<path style="fill:none;stroke:#263238;stroke-linecap:round;stroke-linejoin:round;stroke-miterlimit:10;" d="M261.555,33.759
		c0-3.3-2.675-5.975-5.975-5.975c-3.3,0-5.975,2.675-5.975,5.975c0,3.3,2.675,5.975,5.975,5.975
		C258.88,39.734,261.555,37.059,261.555,33.759z"/>
	
		<circle style="fill:none;stroke:#263238;stroke-linecap:round;stroke-linejoin:round;stroke-miterlimit:10;" cx="447.535" cy="364.639" r="5.975"/>
	<path style="fill:none;stroke:#263238;stroke-linecap:round;stroke-linejoin:round;stroke-miterlimit:10;" d="M221.222,472.194
		c0-3.3-2.675-5.975-5.975-5.975c-3.3,0-5.975,2.675-5.975,5.975c0,3.3,2.675,5.975,5.975,5.975
		C218.546,478.17,221.222,475.494,221.222,472.194z"/>
	<path style="fill:none;stroke:#263238;stroke-linecap:round;stroke-linejoin:round;stroke-miterlimit:10;" d="M129.352,316.837
		c0-3.3-2.675-5.975-5.975-5.975c-3.3,0-5.975,2.675-5.975,5.975c0,3.3,2.675,5.975,5.975,5.975
		C126.677,322.813,129.352,320.137,129.352,316.837z"/>
	<path style="fill:none;stroke:#263238;stroke-linecap:round;stroke-linejoin:round;stroke-miterlimit:10;" d="M485.628,135.338
		c0-3.3-2.675-5.975-5.975-5.975c-3.3,0-5.975,2.675-5.975,5.975c0,3.3,2.675,5.975,5.975,5.975
		C482.952,141.314,485.628,138.638,485.628,135.338z"/>
</g>
<g id="Table">
	
		<line style="fill:none;stroke:#263238;stroke-linecap:round;stroke-linejoin:round;stroke-miterlimit:10;" x1="492.469" y1="235.163" x2="7.46" y2="235.163"/>
</g>
<g id="Plant">
	<g>
		<path style="fill:#BABDBF;stroke:#263238;stroke-linecap:round;stroke-linejoin:round;stroke-miterlimit:10;" d="M47.282,292.921
			l2.632,23.911c0,7.023,11.786,12.716,26.324,12.716c14.538,0,26.324-5.693,26.324-12.716l2.632-23.911H47.282z"/>
		<path style="fill:#BABDBF;stroke:#263238;stroke-linecap:round;stroke-linejoin:round;stroke-miterlimit:10;" d="M45.391,278.785
			v14.74c0,3.766,13.811,8.454,30.847,8.454c17.036,0,30.847-4.688,30.847-8.454v-14.74H45.391z"/>
		
			<ellipse style="fill:#BABDBF;stroke:#263238;stroke-linecap:round;stroke-linejoin:round;stroke-miterlimit:10;" cx="76.239" cy="278.785" rx="30.847" ry="8.736"/>
		<ellipse style="fill:#263238;" cx="76.239" cy="278.785" rx="24.037" ry="6.808"/>
		<g>
			<path style="fill:#263238;" d="M23.246,193.457c2.856,0.784,9.405-0.317,9.41-0.318c0.068-0.012-2.036-4.096-2.198-4.339
				c-1.879-2.806-7.16-7.125-10.797-6.086c-2.62,0.749-3.718,3.639-2.75,6.067C17.9,191.263,20.813,192.789,23.246,193.457z"/>
			<path style="fill:#263238;" d="M89.911,185.266c0.063,0.028,0.562-4.539,0.56-4.831c-0.019-3.377-2.042-9.892-5.648-11.031
				c-2.598-0.821-5.108,0.983-5.64,3.543c-0.544,2.614,1.044,5.495,2.704,7.394C83.837,182.57,89.907,185.264,89.911,185.266z"/>
			<path style="fill:#263238;" d="M106.069,158.614c-3.78,0.139-7.462,5.881-8.38,9.131c-0.079,0.281-0.814,4.817-0.745,4.806
				c0,0,0.064-0.01,0.079-0.012c-0.589,0.902-1.209,1.876-1.865,2.953c-1.196,1.999-2.53,4.27-3.815,6.839
				c-1.29,2.563-2.621,5.385-3.753,8.483c-1.14,3.104-2.18,6.427-2.809,9.99c-0.007,0.04-0.009,0.083-0.016,0.123
				c-0.14-1.099-0.633-4.16-0.698-4.39c-0.91-3.252-4.581-9.002-8.36-9.149c-2.723-0.105-4.667,2.298-4.505,4.907
				c0.166,2.665,2.458,5.024,4.561,6.417c2.371,1.571,8.463,2.542,8.949,2.618c-0.568,3.399-0.874,6.932-0.988,10.526
				c-0.067,2.054-0.071,4.126-0.048,6.202c-0.151-0.947-0.294-1.792-0.327-1.908c-0.91-3.253-4.581-9.002-8.36-9.149
				c-2.723-0.105-4.667,2.298-4.505,4.907c0.166,2.665,2.458,5.024,4.561,6.417c2.134,1.413,7.311,2.346,8.684,2.574
				c0.017,0.797,0.025,1.592,0.046,2.389c0.095,3.822,0.208,7.635,0.203,11.378c-0.001,1.319-0.05,2.618-0.095,3.919
				c-0.136-0.84-0.256-1.548-0.286-1.653c-0.91-3.253-4.581-9.002-8.361-9.149c-2.723-0.106-4.667,2.297-4.505,4.907
				c0.166,2.664,2.458,5.024,4.561,6.417c2.036,1.349,6.807,2.252,8.438,2.532c-0.086,1.33-0.17,2.662-0.313,3.947
				c-0.118,0.875-0.171,1.726-0.337,2.598c-0.147,0.867-0.293,1.726-0.437,2.576c-0.338,1.627-0.677,3.308-1.047,4.887
				c-0.248,1.1-0.506,2.144-0.762,3.196c0.017-1.313-0.006-3.885-0.032-4.099c-0.271-2.228-1.583-5.723-3.52-8.033
				c-0.038-0.329-0.104-0.654-0.203-0.971c-0.781-2.495-3.456-4.044-5.961-2.972c-3.478,1.488-4.851,8.169-4.539,11.532
				c0.018,0.198,0.459,2.328,0.759,3.668c-0.296-0.761-0.575-1.502-0.889-2.281c-0.611-1.545-1.267-3.068-1.966-4.711
				c-0.365-0.781-0.735-1.57-1.108-2.366c-0.353-0.798-0.827-1.596-1.24-2.404c-0.999-1.852-2.102-3.68-3.253-5.498
				c1.351-0.539,6.123-2.52,7.891-4.335c1.76-1.807,3.5-4.598,3.098-7.237c-0.394-2.584-2.803-4.521-5.442-3.841
				c-3.663,0.944-6.033,7.34-6.233,10.712c-0.013,0.21,0.115,2.646,0.212,3.982c-0.701-1.088-1.395-2.176-2.139-3.253
				c-2.149-3.108-4.421-6.188-6.674-9.27c-0.691-0.944-1.367-1.892-2.049-2.839c0.483-0.186,6.206-2.419,8.186-4.452
				c1.761-1.807,3.5-4.598,3.099-7.238c-0.394-2.584-2.803-4.521-5.442-3.841c-3.663,0.944-6.032,7.34-6.233,10.712
				c-0.015,0.254,0.174,3.758,0.266,4.647c-1.499-2.086-2.974-4.179-4.344-6.302c-1.894-2.926-3.591-5.901-5.022-8.906
				c0.225-0.086,6.208-2.39,8.237-4.472c1.76-1.807,3.5-4.598,3.098-7.237c-0.394-2.585-2.803-4.521-5.442-3.842
				c-3.663,0.944-6.032,7.34-6.233,10.711c-0.013,0.222,0.128,2.893,0.225,4.161c-0.115,0.029-0.094,0.024-0.209,0.054
				c-1.494-3.237-2.534-6.561-3.354-9.72c-0.478-1.829-0.833-3.604-1.14-5.338c1.158-0.314,6.436-1.811,8.469-3.484
				c1.948-1.603,3.984-4.186,3.875-6.853c-0.108-2.612-2.29-4.802-4.987-4.416c-3.744,0.536-6.802,6.633-7.372,9.962
				c-0.031,0.181-0.142,2.056-0.204,3.423c-0.126-0.785-0.271-1.592-0.377-2.347c-0.405-2.831-0.602-5.449-0.757-7.769
				c-0.078-1.32-0.122-2.515-0.152-3.633c0.976-0.902,4.862-4.586,5.877-6.963c0.99-2.32,1.607-5.551,0.281-7.868
				c-1.299-2.269-4.245-3.207-6.461-1.621c-3.076,2.201-2.98,9.022-1.952,12.239c0.089,0.278,1.978,4.467,2.03,4.42
				c0,0,0.048-0.044,0.059-0.054c0.007,1.077,0.027,2.231,0.074,3.492c0.105,2.328,0.245,4.957,0.59,7.809
				c0.338,2.85,0.785,5.937,1.55,9.146c0.762,3.218,1.728,6.564,3.169,9.882c0.016,0.038,0.038,0.074,0.054,0.112
				c-0.723-0.84-2.823-3.12-3.004-3.277c-2.554-2.21-8.787-4.981-12.02-3.019c-2.33,1.414-2.626,4.491-1.051,6.578
				c1.609,2.131,4.822,2.834,7.344,2.836c2.845,0.002,8.462-2.549,8.908-2.753c1.401,3.148,3.095,6.265,4.983,9.324
				c1.077,1.751,2.217,3.48,3.381,5.2c-0.648-0.706-1.233-1.332-1.324-1.411c-2.554-2.211-8.787-4.981-12.02-3.018
				c-2.33,1.414-2.626,4.491-1.05,6.578c1.608,2.131,4.822,2.835,7.344,2.836c2.559,0.002,7.392-2.076,8.664-2.644
				c0.454,0.655,0.899,1.314,1.355,1.967c2.188,3.134,4.386,6.253,6.447,9.378c0.727,1.101,1.402,2.212,2.083,3.321
				c-0.577-0.626-1.068-1.149-1.151-1.221c-2.553-2.211-8.787-4.981-12.02-3.018c-2.329,1.414-2.625,4.491-1.05,6.578
				c1.609,2.131,4.821,2.834,7.344,2.836c2.443,0.002,6.92-1.876,8.434-2.543c0.661,1.157,1.327,2.314,1.916,3.465
				c0.385,0.795,0.81,1.533,1.152,2.353c0.356,0.804,0.708,1.601,1.056,2.39c0.615,1.544,1.26,3.133,1.823,4.654
				c0.399,1.055,0.76,2.068,1.127,3.086c-0.711-1.104-2.148-3.237-2.288-3.401c-2.189-2.572-7.93-6.255-11.424-4.805
				c-2.516,1.045-3.276,4.042-2.035,6.343c1.267,2.35,4.336,3.532,6.83,3.916c2.745,0.422,8.458-1.156,9.171-1.358
				c0.601,1.688,1.169,3.336,1.68,4.9c1.769,5.365,3.042,9.904,3.893,13.111l2.537-0.368c-0.021-0.073-0.039-0.138-0.061-0.213
				c-0.932-3.231-2.326-7.825-4.248-13.254c-0.603-1.717-1.282-3.54-1.997-5.405c0.412-0.237,2.749-1.601,4.769-3.149
				c2.217,1.797,7.478,3.513,8.159,3.73c-0.43,1.74-0.865,3.428-1.301,5.014c-1.484,5.451-2.927,9.939-3.986,13.083l2.784-0.404
				c0.954-3.105,2.154-7.232,3.37-12.112c0.444-1.765,0.884-3.66,1.316-5.61c0.726,0.045,6.657,0.38,9.254-0.615
				c2.355-0.903,5.105-2.708,5.846-5.274c0.725-2.512-0.651-5.28-3.332-5.768c-3.721-0.678-8.553,4.138-10.147,7.115
				c-0.094,0.176-0.902,2.195-1.39,3.478c0.173-0.798,0.349-1.57,0.517-2.393c0.343-1.626,0.636-3.258,0.959-5.013
				c0.126-0.853,0.253-1.715,0.381-2.585c0.146-0.86,0.191-1.787,0.291-2.689c0.188-2.096,0.278-4.229,0.32-6.38
				c1.424,0.297,6.497,1.276,8.974,0.738c2.465-0.536,5.456-1.904,6.577-4.327c1.097-2.373,0.156-5.318-2.42-6.206
				c-3.576-1.233-9.081,2.794-11.108,5.496c-0.127,0.168-1.363,2.27-2.02,3.438c0.015-1.293,0.037-2.584,0.01-3.893
				c-0.077-3.778-0.274-7.6-0.452-11.414c-0.056-1.168-0.096-2.332-0.142-3.498c0.505,0.111,6.51,1.406,9.284,0.803
				c2.465-0.535,5.456-1.904,6.577-4.327c1.097-2.373,0.156-5.317-2.42-6.206c-3.576-1.233-9.081,2.794-11.108,5.495
				c-0.153,0.204-1.928,3.23-2.342,4.022c-0.099-2.567-0.175-5.127-0.146-7.652c0.034-3.486,0.26-6.904,0.724-10.199
				c0.235,0.053,6.496,1.432,9.337,0.815c2.465-0.536,5.456-1.904,6.577-4.328c1.098-2.373,0.156-5.317-2.42-6.206
				c-3.576-1.234-9.081,2.794-11.108,5.496c-0.133,0.177-1.488,2.481-2.107,3.593c-0.112-0.039-0.092-0.032-0.204-0.071
				c0.539-3.523,1.506-6.869,2.565-9.955c0.61-1.789,1.293-3.465,1.994-5.081c1.14,0.377,6.367,2.04,8.985,1.766
				c2.509-0.262,5.632-1.293,7.013-3.578c1.351-2.238,0.739-5.269-1.724-6.435c-3.419-1.618-9.333,1.781-11.644,4.242
				c-0.126,0.134-1.253,1.637-2.059,2.743c0.328-0.724,0.653-1.478,0.98-2.166c1.224-2.585,2.504-4.877,3.654-6.898
				c0.663-1.144,1.286-2.165,1.878-3.114c1.311-0.214,6.584-1.143,8.743-2.566c2.106-1.389,4.403-3.743,4.574-6.408
				C110.732,160.921,108.792,158.513,106.069,158.614z"/>
		</g>
	</g>
</g>
<g id="Mouse">
	<g>
		<g>
			<path style="fill:#FFFFFF;stroke:#263238;stroke-linecap:round;stroke-linejoin:round;stroke-miterlimit:10;" d="
				M346.965,436.313l-0.472-3.127c0.154-0.023,15.457-2.41,22.776-9.45c1.571-1.51,1.532-2.601,1.366-3.289
				c-1.693-7.028-27.572-18.003-79.115-33.549c-8.487-2.561-16.71-5.001-24.587-7.34c-51.465-15.275-85.464-25.367-87.812-36.82
				c-0.588-2.863,0.704-5.635,3.837-8.238c17.837-14.813,88.835-20.185,91.849-20.406l0.232,3.154
				c-0.728,0.054-72.998,5.514-90.06,19.686c-3.265,2.711-2.886,4.562-2.761,5.17c1.968,9.596,38.881,20.552,85.615,34.423
				c7.882,2.34,16.109,4.782,24.601,7.343c68.845,20.767,79.749,29.496,81.276,35.837c0.538,2.236-0.218,4.358-2.248,6.309
				C363.411,433.755,347.633,436.212,346.965,436.313z"/>
			<path style="fill:#263238;stroke:#263238;stroke-linecap:round;stroke-linejoin:round;stroke-miterlimit:10;" d="
				M185.203,332.867l4.562,0.99c22.836-11.892,84.601-16.56,85.274-16.609l-0.232-3.154
				C271.907,314.307,206.057,319.291,185.203,332.867z"/>
		</g>
		<g>
			<path style="fill:#5298FA;stroke:#263238;stroke-linecap:round;stroke-linejoin:round;stroke-miterlimit:10;" d="M355.45,439.694
				c1.204-3.894-0.285-8.155-3.694-10.391c-4.599-3.017-12.972-6.703-27.168-7.717c-25.132-1.795-42.186,7.48-50.264,15.259
				c-8.078,7.779-6.283,17.054,5.385,22.739c11.668,5.685,20.046,7.181,29.919,5.685c9.873-1.496,26.03-9.275,31.714-13.165
				c5.685-3.889,12.566-7.48,14.062-12.267C355.421,439.788,355.435,439.741,355.45,439.694z"/>
			<path style="fill:#FFFFFF;stroke:#263238;stroke-linecap:round;stroke-linejoin:round;stroke-miterlimit:10;" d="M316.81,458.087
				c-14.062,9.574-27.526,5.086-27.526,5.086l-0.31,0.261c7.286,2.431,13.591,2.904,20.655,1.834
				c9.873-1.496,26.03-9.275,31.714-13.164c5.685-3.889,12.566-7.48,14.062-12.267c0.015-0.048,0.03-0.095,0.044-0.143
				c0.12-0.387,0.206-0.779,0.273-1.171C346.867,440.668,329.262,449.609,316.81,458.087z"/>
		</g>
		<path style="fill:#FFFFFF;stroke:#263238;stroke-linecap:round;stroke-linejoin:round;stroke-miterlimit:10;" d="M296.165,441.631
			c0,2.148-2.612,3.89-5.834,3.89c-3.222,0-5.834-1.741-5.834-3.89s2.612-3.889,5.834-3.889
			C293.553,437.742,296.165,439.483,296.165,441.631z"/>
	</g>
</g>
<g id="Keyboard">
	<g>
		<g>
			<path style="fill:#FFFFFF;stroke:#263238;stroke-linecap:round;stroke-linejoin:round;stroke-miterlimit:10;" d="
				M178.604,382.143l-0.641-3.096c9.465-1.96,15.725-4.794,16.604-6.199c-0.966-1.029-5.023-3.171-8.327-4.916
				c-12.067-6.371-32.263-17.035-25.845-30.79c3.759-8.056,24.205-15.1,62.505-21.534c27.787-4.669,54.899-7.172,55.169-7.197
				l0.288,3.15c-0.27,0.025-27.279,2.519-54.95,7.168c-48.085,8.08-58.324,15.842-60.148,19.751
				c-5.146,11.026,12.667,20.432,24.455,26.656c7.159,3.78,10.427,5.505,10.084,7.905
				C197.118,377.813,184.149,380.997,178.604,382.143z"/>
			<path style="fill:#263238;stroke:#263238;stroke-linecap:round;stroke-linejoin:round;stroke-miterlimit:10;" d="M278.07,308.412
				c-0.271,0.025-27.383,2.528-55.169,7.197c-25.666,4.311-43.301,8.898-53.283,13.878l5.242,1.137
				c8.66-3.543,23.436-7.675,48.549-11.895c27.671-4.649,54.68-7.143,54.95-7.168L278.07,308.412z"/>
		</g>
		<g>
			<polygon style="fill:#FFFFFF;stroke:#263238;stroke-linecap:round;stroke-linejoin:round;stroke-miterlimit:10;" points="
				276.783,404.691 219.592,437.246 11.238,364.986 74.594,342.152 			"/>
			<g>
				<polygon style="fill:#263238;stroke:#263238;stroke-linecap:round;stroke-linejoin:round;stroke-miterlimit:10;" points="
					184.903,388.152 191.697,390.239 198.808,386.528 192.09,384.516 				"/>
				<polygon style="fill:#263238;stroke:#263238;stroke-linecap:round;stroke-linejoin:round;stroke-miterlimit:10;" points="
					174.353,379.482 168.461,383.103 181.997,387.26 189.158,383.638 174.691,379.306 				"/>
				<polygon style="fill:#263238;stroke:#263238;stroke-linecap:round;stroke-linejoin:round;stroke-miterlimit:10;" points="
					194.565,391.12 201.8,393.341 209.005,389.582 201.703,387.395 				"/>
				<polygon style="fill:#263238;stroke:#263238;stroke-linecap:round;stroke-linejoin:round;stroke-miterlimit:10;" points="
					148.357,376.93 154.9,378.939 161.608,375.388 155.605,373.591 				"/>
				<polygon style="fill:#263238;stroke:#263238;stroke-linecap:round;stroke-linejoin:round;stroke-miterlimit:10;" points="
					157.749,379.814 165.776,382.279 171.951,378.485 164.479,376.248 				"/>
				<polygon style="fill:#263238;stroke:#263238;stroke-linecap:round;stroke-linejoin:round;stroke-miterlimit:10;" points="
					190.313,399.335 183.16,397.072 176.059,400.777 183.117,403.091 				"/>
				<polygon style="fill:#263238;stroke:#263238;stroke-linecap:round;stroke-linejoin:round;stroke-miterlimit:10;" points="
					204.668,394.222 213.805,397.028 221.121,393.21 211.9,390.448 				"/>
				<polygon style="fill:#263238;stroke:#263238;stroke-linecap:round;stroke-linejoin:round;stroke-miterlimit:10;" points="
					130.864,371.558 137.112,373.477 144.05,370.13 137.636,368.209 				"/>
				<polygon style="fill:#263238;stroke:#263238;stroke-linecap:round;stroke-linejoin:round;stroke-miterlimit:10;" points="
					212.498,406.356 205.021,403.99 197.627,407.848 205.432,410.407 				"/>
				<polygon style="fill:#263238;stroke:#263238;stroke-linecap:round;stroke-linejoin:round;stroke-miterlimit:10;" points="
					221.045,401.456 214.013,399.297 207.657,402.614 214.982,404.932 				"/>
				<polygon style="fill:#263238;stroke:#263238;stroke-linecap:round;stroke-linejoin:round;stroke-miterlimit:10;" points="
					216.673,397.909 223.55,400.02 230.52,396.025 224.016,394.077 				"/>
				<polygon style="fill:#263238;stroke:#263238;stroke-linecap:round;stroke-linejoin:round;stroke-miterlimit:10;" points="
					202.184,403.092 193.15,400.233 185.915,404.009 194.828,406.931 				"/>
				<polygon style="fill:#263238;stroke:#263238;stroke-linecap:round;stroke-linejoin:round;stroke-miterlimit:10;" points="
					241.54,399.324 233.303,396.858 226.309,400.868 234.418,403.358 				"/>
				<polygon style="fill:#263238;stroke:#263238;stroke-linecap:round;stroke-linejoin:round;stroke-miterlimit:10;" points="
					231.893,404.788 223.804,402.304 217.712,405.796 225.668,408.314 				"/>
				<polygon style="fill:#263238;stroke:#263238;stroke-linecap:round;stroke-linejoin:round;stroke-miterlimit:10;" points="
					146.944,371.072 140.075,374.387 145.335,376.002 152.553,372.677 147.05,371.028 				"/>
				<polygon style="fill:#263238;stroke:#263238;stroke-linecap:round;stroke-linejoin:round;stroke-miterlimit:10;" points="
					49.072,365.873 54.961,363.293 51.34,362.106 45.154,364.55 				"/>
				<polygon style="fill:#263238;stroke:#263238;stroke-linecap:round;stroke-linejoin:round;stroke-miterlimit:10;" points="
					50.752,359.695 57.857,362.025 63.963,359.35 56.745,357.066 				"/>
				<polygon style="fill:#263238;stroke:#263238;stroke-linecap:round;stroke-linejoin:round;stroke-miterlimit:10;" points="
					59.673,355.781 66.893,358.066 72.191,355.745 64.876,353.499 				"/>
				<polygon style="fill:#263238;stroke:#263238;stroke-linecap:round;stroke-linejoin:round;stroke-miterlimit:10;" points="
					79.974,371.494 75.731,370.103 69.157,372.655 73.922,374.264 				"/>
				<polygon style="fill:#263238;stroke:#263238;stroke-linecap:round;stroke-linejoin:round;stroke-miterlimit:10;" points="
					63.81,366.195 57.966,364.278 52.039,366.875 57.844,368.835 				"/>
				<polygon style="fill:#263238;stroke:#263238;stroke-linecap:round;stroke-linejoin:round;stroke-miterlimit:10;" points="
					69.943,359.032 73.041,360.012 78.109,357.563 75.279,356.694 				"/>
				<polygon style="fill:#263238;stroke:#263238;stroke-linecap:round;stroke-linejoin:round;stroke-miterlimit:10;" points="
					72.572,369.067 66.802,367.175 60.797,369.832 66.041,371.603 				"/>
				<polygon style="fill:#263238;stroke:#263238;stroke-linecap:round;stroke-linejoin:round;stroke-miterlimit:10;" points="
					122.031,368.845 127.93,370.657 134.676,367.323 128.914,365.598 				"/>
				<polygon style="fill:#263238;stroke:#263238;stroke-linecap:round;stroke-linejoin:round;stroke-miterlimit:10;" points="
					105.384,363.733 110.24,365.225 116.576,361.903 111.768,360.463 				"/>
				<polygon style="fill:#263238;stroke:#263238;stroke-linecap:round;stroke-linejoin:round;stroke-miterlimit:10;" points="
					80.587,362.4 85.867,359.945 81.072,358.473 75.968,360.939 				"/>
				<polygon style="fill:#263238;stroke:#263238;stroke-linecap:round;stroke-linejoin:round;stroke-miterlimit:10;" points="
					113.103,366.104 119.039,367.927 125.892,364.693 119.462,362.767 				"/>
				<polygon style="fill:#263238;stroke:#263238;stroke-linecap:round;stroke-linejoin:round;stroke-miterlimit:10;" points="
					103.38,358.015 96.614,361.04 102.495,362.846 108.853,359.59 103.47,357.978 				"/>
				<polygon style="fill:#263238;stroke:#263238;stroke-linecap:round;stroke-linejoin:round;stroke-miterlimit:10;" points="
					87.759,358.321 93.552,360.1 100.373,357.05 94.262,355.22 				"/>
				<polygon style="fill:#263238;stroke:#263238;stroke-linecap:round;stroke-linejoin:round;stroke-miterlimit:10;" points="
					78.239,355.397 84.78,357.406 91.254,354.32 84.984,352.442 				"/>
				<polygon style="fill:#263238;stroke:#263238;stroke-linecap:round;stroke-linejoin:round;stroke-miterlimit:10;" points="
					163.543,388.653 173.202,391.71 179.285,388.633 169.069,385.495 				"/>
				<polygon style="fill:#263238;stroke:#263238;stroke-linecap:round;stroke-linejoin:round;stroke-miterlimit:10;" points="
					176.074,392.619 182.96,394.798 189.036,391.627 182.19,389.525 				"/>
				<polygon style="fill:#263238;stroke:#263238;stroke-linecap:round;stroke-linejoin:round;stroke-miterlimit:10;" points="
					211.145,398.416 202.008,395.611 195.786,398.857 204.821,401.716 				"/>
				<polygon style="fill:#263238;stroke:#263238;stroke-linecap:round;stroke-linejoin:round;stroke-miterlimit:10;" points="
					185.796,395.695 192.95,397.96 199.139,394.729 191.905,392.508 				"/>
				<polygon style="fill:#263238;stroke:#263238;stroke-linecap:round;stroke-linejoin:round;stroke-miterlimit:10;" points="
					88.823,374.395 82.925,372.461 76.837,375.249 82.736,377.241 				"/>
				<polygon style="fill:#263238;stroke:#263238;stroke-linecap:round;stroke-linejoin:round;stroke-miterlimit:10;" points="
					134.728,379.534 141.79,381.769 146.901,378.688 140.033,376.579 				"/>
				<polygon style="fill:#263238;stroke:#263238;stroke-linecap:round;stroke-linejoin:round;stroke-miterlimit:10;" points="
					144.467,382.616 151.342,384.792 156.607,381.668 149.606,379.518 				"/>
				<polygon style="fill:#263238;stroke:#263238;stroke-linecap:round;stroke-linejoin:round;stroke-miterlimit:10;" points="
					154.037,385.645 160.809,387.788 166.306,384.647 159.33,382.505 				"/>
				<polygon style="fill:#263238;stroke:#263238;stroke-linecap:round;stroke-linejoin:round;stroke-miterlimit:10;" points="
					85.189,366.067 80.734,364.657 74.594,367.512 79.32,369.061 				"/>
				<polygon style="fill:#263238;stroke:#263238;stroke-linecap:round;stroke-linejoin:round;stroke-miterlimit:10;" points="
					75.15,354.449 81.864,351.508 71.589,348.431 71.609,348.49 64.086,351.051 				"/>
				<polygon style="fill:#263238;stroke:#263238;stroke-linecap:round;stroke-linejoin:round;stroke-miterlimit:10;" points="
					60.649,349.996 68.214,347.42 66.05,346.772 58.745,349.411 				"/>
				<polygon style="fill:#263238;stroke:#263238;stroke-linecap:round;stroke-linejoin:round;stroke-miterlimit:10;" points="
					259.374,402.465 269.698,405.556 272.382,404.031 262.198,400.917 				"/>
				<polygon style="fill:#263238;stroke:#263238;stroke-linecap:round;stroke-linejoin:round;stroke-miterlimit:10;" points="
					77.758,363.715 73.204,362.274 67.309,365.123 71.661,366.55 				"/>
				<polygon style="fill:#263238;stroke:#263238;stroke-linecap:round;stroke-linejoin:round;stroke-miterlimit:10;" points="
					126.002,376.773 131.965,378.66 137.24,375.721 131.253,373.883 				"/>
				<polygon style="fill:#263238;stroke:#263238;stroke-linecap:round;stroke-linejoin:round;stroke-miterlimit:10;" points="
					60.862,363.01 64.422,364.177 70.277,361.348 67.013,360.315 				"/>
				<polygon style="fill:#263238;stroke:#263238;stroke-linecap:round;stroke-linejoin:round;stroke-miterlimit:10;" points="
					116.67,373.819 123.227,375.894 128.448,373.021 121.747,370.963 				"/>
				<polygon style="fill:#263238;stroke:#263238;stroke-linecap:round;stroke-linejoin:round;stroke-miterlimit:10;" points="
					111.402,374.362 105.521,372.501 99.374,375.636 105.543,377.658 				"/>
				<polygon style="fill:#263238;stroke:#263238;stroke-linecap:round;stroke-linejoin:round;stroke-miterlimit:10;" points="
					120.677,377.298 114.155,375.234 108.26,378.549 114.616,380.633 				"/>
				<polygon style="fill:#263238;stroke:#263238;stroke-linecap:round;stroke-linejoin:round;stroke-miterlimit:10;" points="
					139.386,383.219 132.198,380.944 126.035,384.377 133.438,386.804 				"/>
				<polygon style="fill:#263238;stroke:#263238;stroke-linecap:round;stroke-linejoin:round;stroke-miterlimit:10;" points="
					180.323,396.174 173.386,393.978 166.283,397.572 173.26,399.86 				"/>
				<polygon style="fill:#263238;stroke:#263238;stroke-linecap:round;stroke-linejoin:round;stroke-miterlimit:10;" points="
					148.911,386.233 142.063,384.066 136.083,387.671 142.783,389.868 				"/>
				<polygon style="fill:#263238;stroke:#263238;stroke-linecap:round;stroke-linejoin:round;stroke-miterlimit:10;" points="
					170.514,393.069 151.607,387.086 145.445,390.741 163.449,396.643 				"/>
				<polygon style="fill:#263238;stroke:#263238;stroke-linecap:round;stroke-linejoin:round;stroke-miterlimit:10;" points="
					129.435,380.069 123.452,378.176 117.356,381.531 123.308,383.483 				"/>
				<polygon style="fill:#263238;stroke:#263238;stroke-linecap:round;stroke-linejoin:round;stroke-miterlimit:10;" points="
					100.132,368.586 105.334,370.232 110.607,367.543 105.41,365.947 				"/>
				<polygon style="fill:#263238;stroke:#263238;stroke-linecap:round;stroke-linejoin:round;stroke-miterlimit:10;" points="
					90.725,365.609 97.246,367.672 102.49,365.05 95.829,363.004 				"/>
				<polygon style="fill:#263238;stroke:#263238;stroke-linecap:round;stroke-linejoin:round;stroke-miterlimit:10;" points="
					102.659,371.596 97.41,369.934 91.163,372.944 96.551,374.71 				"/>
				<polygon style="fill:#263238;stroke:#263238;stroke-linecap:round;stroke-linejoin:round;stroke-miterlimit:10;" points="
					108.196,371.138 113.917,372.948 118.964,370.109 113.502,368.432 				"/>
				<polygon style="fill:#263238;stroke:#263238;stroke-linecap:round;stroke-linejoin:round;stroke-miterlimit:10;" points="
					83.563,363.342 87.863,364.703 92.934,362.115 88.879,360.87 				"/>
				<polygon style="fill:#263238;stroke:#263238;stroke-linecap:round;stroke-linejoin:round;stroke-miterlimit:10;" points="
					94.479,369.007 88.051,366.973 82.144,369.987 88.275,371.997 				"/>
				<polygon style="fill:#263238;stroke:#263238;stroke-linecap:round;stroke-linejoin:round;stroke-miterlimit:10;" points="
					47.748,358.71 53.696,356.101 46.516,353.828 40.017,356.176 				"/>
				<polygon style="fill:#263238;stroke:#263238;stroke-linecap:round;stroke-linejoin:round;stroke-miterlimit:10;" points="
					106.579,387.516 74.04,376.529 74.013,376.541 74.001,376.515 57.946,371.094 47.281,375.814 96.455,392.819 				"/>
				<polygon style="fill:#263238;stroke:#263238;stroke-linecap:round;stroke-linejoin:round;stroke-miterlimit:10;" points="
					27.653,369.026 37.841,364.306 33.136,362.717 22.091,367.103 				"/>
				<polygon style="fill:#263238;stroke:#263238;stroke-linecap:round;stroke-linejoin:round;stroke-miterlimit:10;" points="
					46.205,367.129 40.742,365.285 30.523,370.019 35.601,371.775 				"/>
				<polygon style="fill:#263238;stroke:#263238;stroke-linecap:round;stroke-linejoin:round;stroke-miterlimit:10;" points="
					54.993,370.097 49.171,368.131 38.537,372.79 44.358,374.803 				"/>
				<polygon style="fill:#263238;stroke:#263238;stroke-linecap:round;stroke-linejoin:round;stroke-miterlimit:10;" points="
					134.192,396.84 128.14,394.796 117.598,400.13 124.204,402.414 				"/>
				<polygon style="fill:#263238;stroke:#263238;stroke-linecap:round;stroke-linejoin:round;stroke-miterlimit:10;" points="
					115.306,390.463 109.341,388.448 99.191,393.765 104.814,395.709 				"/>
				<polygon style="fill:#263238;stroke:#263238;stroke-linecap:round;stroke-linejoin:round;stroke-miterlimit:10;" points="
					125.34,393.851 118.12,391.413 107.601,396.673 114.824,399.171 				"/>
				<polygon style="fill:#263238;stroke:#263238;stroke-linecap:round;stroke-linejoin:round;stroke-miterlimit:10;" points="
					96.024,353.547 100.184,351.366 92.68,349.071 87.968,351.135 				"/>
				<polygon style="fill:#263238;stroke:#263238;stroke-linecap:round;stroke-linejoin:round;stroke-miterlimit:10;" points="
					98.913,354.413 103.362,355.745 108.127,353.795 103.051,352.243 				"/>
				<polygon style="fill:#263238;stroke:#263238;stroke-linecap:round;stroke-linejoin:round;stroke-miterlimit:10;" points="
					151.505,402.686 136.886,397.75 126.874,403.338 140.738,408.132 				"/>
				<polygon style="fill:#263238;stroke:#263238;stroke-linecap:round;stroke-linejoin:round;stroke-miterlimit:10;" points="
					106.576,356.707 111.626,358.22 116.138,356.245 111.313,354.769 				"/>
				<polygon style="fill:#263238;stroke:#263238;stroke-linecap:round;stroke-linejoin:round;stroke-miterlimit:10;" points="
					33.076,360.472 33.134,360.449 33.153,360.498 42.062,363.506 48.206,361.078 36.798,357.339 30.516,359.608 				"/>
				<polygon style="fill:#263238;stroke:#263238;stroke-linecap:round;stroke-linejoin:round;stroke-miterlimit:10;" points="
					79.018,348.455 84.848,350.201 89.587,348.125 83.961,346.404 				"/>
				<polygon style="fill:#263238;stroke:#263238;stroke-linecap:round;stroke-linejoin:round;stroke-miterlimit:10;" points="
					61.788,352.551 55.445,350.603 49.778,352.65 56.624,354.817 				"/>
				<polygon style="fill:#263238;stroke:#263238;stroke-linecap:round;stroke-linejoin:round;stroke-miterlimit:10;" points="
					224.842,418.989 216.135,416.135 209.332,419.987 217.803,422.848 				"/>
				<polygon style="fill:#263238;stroke:#263238;stroke-linecap:round;stroke-linejoin:round;stroke-miterlimit:10;" points="
					256.778,403.888 249.369,407.949 259.834,411.163 267.163,406.997 				"/>
				<polygon style="fill:#263238;stroke:#263238;stroke-linecap:round;stroke-linejoin:round;stroke-miterlimit:10;" points="
					75.823,347.498 80.794,345.435 74.814,343.606 69.381,345.569 				"/>
				<polygon style="fill:#263238;stroke:#263238;stroke-linecap:round;stroke-linejoin:round;stroke-miterlimit:10;" points="
					246.79,409.362 240.272,412.935 250.835,416.278 257.315,412.595 				"/>
				<polygon style="fill:#263238;stroke:#263238;stroke-linecap:round;stroke-linejoin:round;stroke-miterlimit:10;" points="
					218.006,425.141 207.143,431.095 218.1,434.884 228.819,428.792 				"/>
				<polygon style="fill:#263238;stroke:#263238;stroke-linecap:round;stroke-linejoin:round;stroke-miterlimit:10;" points="
					237.716,414.337 230.119,418.501 240.777,421.995 248.337,417.698 				"/>
				<polygon style="fill:#263238;stroke:#263238;stroke-linecap:round;stroke-linejoin:round;stroke-miterlimit:10;" points="
					30.544,361.661 27.333,360.757 15.794,364.926 19.037,366.047 				"/>
				<polygon style="fill:#263238;stroke:#263238;stroke-linecap:round;stroke-linejoin:round;stroke-miterlimit:10;" points="
					215.292,424.224 206.871,421.381 196.325,427.354 204.454,430.165 				"/>
				<polygon style="fill:#263238;stroke:#263238;stroke-linecap:round;stroke-linejoin:round;stroke-miterlimit:10;" points="
					182.747,413.235 173.936,410.26 163.157,415.885 171.886,418.903 				"/>
				<polygon style="fill:#263238;stroke:#263238;stroke-linecap:round;stroke-linejoin:round;stroke-miterlimit:10;" points="
					204.192,420.476 196.585,417.908 196.394,418.017 196.271,417.802 185.514,414.169 174.627,419.851 193.669,426.436 				"/>
				<polygon style="fill:#263238;stroke:#263238;stroke-linecap:round;stroke-linejoin:round;stroke-miterlimit:10;" points="
					171.169,409.326 164.192,406.97 153.505,412.547 160.417,414.937 				"/>
				<polygon style="fill:#263238;stroke:#263238;stroke-linecap:round;stroke-linejoin:round;stroke-miterlimit:10;" points="
					238.302,423.402 227.587,419.889 220.517,423.764 231.274,427.397 				"/>
				<polygon style="fill:#263238;stroke:#263238;stroke-linecap:round;stroke-linejoin:round;stroke-miterlimit:10;" points="
					114.745,359.154 119.292,360.515 123.712,358.561 119.232,357.191 				"/>
				<polygon style="fill:#263238;stroke:#263238;stroke-linecap:round;stroke-linejoin:round;stroke-miterlimit:10;" points="
					161.426,406.036 154.305,403.631 143.512,409.091 150.765,411.599 				"/>
				<polygon style="fill:#263238;stroke:#263238;stroke-linecap:round;stroke-linejoin:round;stroke-miterlimit:10;" points="
					167.541,374.964 174.479,377.042 178.055,375.182 171.73,373.248 				"/>
				<polygon style="fill:#263238;stroke:#263238;stroke-linecap:round;stroke-linejoin:round;stroke-miterlimit:10;" points="
					202.97,411.818 195.016,409.211 188.102,412.819 196.36,415.607 				"/>
				<polygon style="fill:#263238;stroke:#263238;stroke-linecap:round;stroke-linejoin:round;stroke-miterlimit:10;" points="
					180.506,404.453 173.448,402.139 166.78,405.619 173.757,407.975 				"/>
				<polygon style="fill:#263238;stroke:#263238;stroke-linecap:round;stroke-linejoin:round;stroke-miterlimit:10;" points="
					253.942,403.039 244.337,400.162 237.191,404.21 246.558,407.086 				"/>
				<polygon style="fill:#263238;stroke:#263238;stroke-linecap:round;stroke-linejoin:round;stroke-miterlimit:10;" points="
					213.426,415.246 205.666,412.702 199.027,416.508 206.652,419.083 				"/>
				<polygon style="fill:#263238;stroke:#263238;stroke-linecap:round;stroke-linejoin:round;stroke-miterlimit:10;" points="
					243.98,408.499 234.666,405.639 228.412,409.182 237.492,412.056 				"/>
				<polygon style="fill:#263238;stroke:#263238;stroke-linecap:round;stroke-linejoin:round;stroke-miterlimit:10;" points="
					223.164,409.732 215.228,407.22 208.127,411.291 215.907,413.841 				"/>
				<polygon style="fill:#263238;stroke:#263238;stroke-linecap:round;stroke-linejoin:round;stroke-miterlimit:10;" points="
					234.936,413.457 225.908,410.6 218.616,414.73 227.375,417.601 				"/>
				<polygon style="fill:#263238;stroke:#263238;stroke-linecap:round;stroke-linejoin:round;stroke-miterlimit:10;" points="
					192.218,408.293 183.304,405.371 176.524,408.909 185.335,411.885 				"/>
				<polygon style="fill:#263238;stroke:#263238;stroke-linecap:round;stroke-linejoin:round;stroke-miterlimit:10;" points="
					115.15,383.026 108.772,380.935 102.55,383.931 109.161,386.163 				"/>
				<polygon style="fill:#263238;stroke:#263238;stroke-linecap:round;stroke-linejoin:round;stroke-miterlimit:10;" points="
					124.227,386.002 117.944,383.942 111.923,387.096 117.962,389.135 				"/>
				<polygon style="fill:#263238;stroke:#263238;stroke-linecap:round;stroke-linejoin:round;stroke-miterlimit:10;" points="
					105.881,379.987 100.502,378.224 94.657,381.266 99.693,382.966 				"/>
				<polygon style="fill:#263238;stroke:#263238;stroke-linecap:round;stroke-linejoin:round;stroke-miterlimit:10;" points="
					160.789,397.989 137.149,390.239 130.777,393.462 154.142,401.352 				"/>
				<polygon style="fill:#263238;stroke:#263238;stroke-linecap:round;stroke-linejoin:round;stroke-miterlimit:10;" points="
					170.65,401.222 163.622,398.918 156.942,402.297 164.014,404.685 				"/>
				<polygon style="fill:#263238;stroke:#263238;stroke-linecap:round;stroke-linejoin:round;stroke-miterlimit:10;" points="
					134.316,389.31 127.074,386.936 120.775,390.085 127.977,392.517 				"/>
				<polygon style="fill:#263238;stroke:#263238;stroke-linecap:round;stroke-linejoin:round;stroke-miterlimit:10;" points="
					140.617,366.901 146.943,368.796 151.309,367.002 144.9,365.042 				"/>
				<polygon style="fill:#263238;stroke:#263238;stroke-linecap:round;stroke-linejoin:round;stroke-miterlimit:10;" points="
					150.148,369.756 155.471,371.349 159.674,369.56 154.486,367.974 				"/>
				<polygon style="fill:#263238;stroke:#263238;stroke-linecap:round;stroke-linejoin:round;stroke-miterlimit:10;" points="
					158.629,372.295 164.336,374.004 168.551,372.275 162.805,370.518 				"/>
				<polygon style="fill:#263238;stroke:#263238;stroke-linecap:round;stroke-linejoin:round;stroke-miterlimit:10;" points="
					177.377,377.909 183.156,379.64 183.154,379.634 186.872,377.879 180.931,376.062 				"/>
				<polygon style="fill:#263238;stroke:#263238;stroke-linecap:round;stroke-linejoin:round;stroke-miterlimit:10;" points="
					97.701,377.306 91.749,375.354 85.627,378.216 91.888,380.331 				"/>
				<polygon style="fill:#263238;stroke:#263238;stroke-linecap:round;stroke-linejoin:round;stroke-miterlimit:10;" points="
					131.711,364.234 137.487,365.964 141.796,364.092 135.769,362.249 				"/>
				<polygon style="fill:#263238;stroke:#263238;stroke-linecap:round;stroke-linejoin:round;stroke-miterlimit:10;" points="
					122.398,361.445 128.736,363.344 132.817,361.346 126.793,359.504 				"/>
				<polygon style="fill:#263238;stroke:#263238;stroke-linecap:round;stroke-linejoin:round;stroke-miterlimit:10;" points="
					226.696,392.679 233.041,394.579 235.976,392.897 229.861,391.027 				"/>
				<polygon style="fill:#263238;stroke:#263238;stroke-linecap:round;stroke-linejoin:round;stroke-miterlimit:10;" points="
					214.579,389.05 223.8,391.812 226.988,390.148 217.838,387.349 				"/>
				<polygon style="fill:#263238;stroke:#263238;stroke-linecap:round;stroke-linejoin:round;stroke-miterlimit:10;" points="
					259.383,400.056 249.735,397.105 246.879,398.723 256.538,401.615 				"/>
				<polygon style="fill:#263238;stroke:#263238;stroke-linecap:round;stroke-linejoin:round;stroke-miterlimit:10;" points="
					235.825,395.413 244.081,397.885 246.958,396.256 238.739,393.742 				"/>
				<polygon style="fill:#263238;stroke:#263238;stroke-linecap:round;stroke-linejoin:round;stroke-miterlimit:10;" points="
					186.167,380.542 191.897,382.258 195.554,380.534 189.868,378.795 				"/>
				<polygon style="fill:#263238;stroke:#263238;stroke-linecap:round;stroke-linejoin:round;stroke-miterlimit:10;" points="
					194.919,383.163 201.487,385.13 204.847,383.376 198.551,381.451 				"/>
				<polygon style="fill:#263238;stroke:#263238;stroke-linecap:round;stroke-linejoin:round;stroke-miterlimit:10;" points="
					204.382,385.997 211.684,388.183 214.965,386.471 207.72,384.255 				"/>
			</g>
			<polygon style="fill:#FFFFFF;stroke:#263238;stroke-linecap:round;stroke-linejoin:round;stroke-miterlimit:10;" points="
				219.592,437.246 219.109,443.718 276.18,411.924 276.783,404.691 			"/>
			<polygon style="fill:#FFFFFF;stroke:#263238;stroke-linecap:round;stroke-linejoin:round;stroke-miterlimit:10;" points="
				268.478,416.13 268.478,423.97 275.785,420.021 276.18,411.924 			"/>
			<polygon style="fill:#263238;stroke:#263238;stroke-linecap:round;stroke-linejoin:round;stroke-miterlimit:10;" points="
				268.478,423.97 258.407,421.996 268.683,416.13 			"/>
			<polygon style="fill:#FFFFFF;stroke:#263238;stroke-linecap:round;stroke-linejoin:round;stroke-miterlimit:10;" points="
				219.109,443.718 11.202,370.64 11.238,364.986 219.592,437.246 			"/>
		</g>
	</g>
</g>
<g id="Device">
	<g>
		<g>
			<g>
				<polygon style="fill:#263238;stroke:#263238;stroke-linecap:round;stroke-linejoin:round;stroke-miterlimit:10;" points="
					266.21,323.649 205.747,345.452 316.109,373.548 377.697,347.475 				"/>
				<polygon style="fill:#FFFFFF;stroke:#263238;stroke-linecap:round;stroke-linejoin:round;stroke-miterlimit:10;" points="
					205.747,345.452 205.747,348.875 315.927,378.055 316.109,373.548 				"/>
				<polygon style="fill:#FFFFFF;stroke:#263238;stroke-linecap:round;stroke-linejoin:round;stroke-miterlimit:10;" points="
					316.109,373.548 377.697,347.475 377.249,351.245 315.927,378.055 				"/>
			</g>
			<polygon style="fill:#FFFFFF;stroke:#263238;stroke-linecap:round;stroke-linejoin:round;stroke-miterlimit:10;" points="
				273.329,296.453 270.841,335.013 267.358,336.506 330.299,351.433 333.782,349.94 336.519,308.145 			"/>
			<polygon style="fill:#263238;stroke:#263238;stroke-linecap:round;stroke-linejoin:round;stroke-miterlimit:10;" points="
				269.846,297.946 267.358,336.506 330.299,351.433 333.036,309.638 			"/>
			<g>
				<path style="fill:#FFFFFF;stroke:#263238;stroke-linecap:round;stroke-linejoin:round;stroke-miterlimit:10;" d="
					M476.853,54.813l-3.766-1.431l-5.263,0.324l-0.436,1.441L173.477,72.641c-1.605,0.094-2.906,1.335-3.075,2.933l-19.431,200.893
					c-0.145,1.374,0.786,2.63,2.143,2.891l274.076,52.516l-3.041,1.829l12.152,2.355l1.413-0.188l3.431-1.656
					c1.103-0.316,1.98-1.25,2.137-2.472l35.577-273.742C479.046,56.543,478.149,55.25,476.853,54.813z"/>
				<path style="fill:#263238;stroke:#263238;stroke-linecap:round;stroke-linejoin:round;stroke-miterlimit:10;" d="M168.64,73.643
					l-21.643,204.481c-0.145,1.374,0.786,2.63,2.143,2.89l286.656,54.926c1.685,0.323,3.292-0.842,3.511-2.543l35.577-276.855
					c0.238-1.849-1.264-3.458-3.124-3.349L171.715,70.709C170.11,70.803,168.809,72.044,168.64,73.643z"/>
				<polygon style="fill:#5298FA;stroke:#263238;stroke-linecap:round;stroke-linejoin:round;stroke-miterlimit:10;" points="
					175.227,79.815 157.008,249.417 431.266,291.486 462.169,63.915 				"/>
				<g>
					<path style="fill:none;stroke:#263238;stroke-linecap:round;stroke-linejoin:round;stroke-miterlimit:10;" d="M205.425,192.219
						c43.899-13.44,93.047-28.24,138.46-41.359c46.017-13.294,83.034-18.294,108.918-19.772"/>
					<path style="fill:none;stroke:#263238;stroke-linecap:round;stroke-linejoin:round;stroke-miterlimit:10;" d="M172.772,105.184
						c0,0,88.625,2.045,185.43,41.585"/>
					<path style="fill:none;stroke:#263238;stroke-linecap:round;stroke-linejoin:round;stroke-miterlimit:10;" d="M243.197,263.463
						c0,0,67.287-63.139,131.019-96.382c53.68-27.999,76.804-28.673,76.804-28.673"/>
				</g>
				<path style="fill:#FFFFFF;stroke:#263238;stroke-linecap:round;stroke-linejoin:round;stroke-miterlimit:10;" d="
					M149.139,281.014l286.657,54.926c1.685,0.323,3.292-0.842,3.511-2.543l3.456-26.894l-293.708-47.828l-2.058,19.448
					C146.851,279.498,147.782,280.754,149.139,281.014z"/>
			</g>
		</g>
		<g>
			<polygon style="fill:#263238;stroke:#263238;stroke-linecap:round;stroke-linejoin:round;stroke-miterlimit:10;" points="
				157.008,249.417 198.396,255.765 207.137,176.654 165.148,173.639 			"/>
			<g>
				<polygon style="fill:#BABDBF;stroke:#263238;stroke-linecap:round;stroke-linejoin:round;stroke-miterlimit:10;" points="
					202.546,201.204 193.762,200.194 190.443,226.19 199.653,227.384 				"/>
				<path style="fill:#BABDBF;stroke:#263238;stroke-linecap:round;stroke-linejoin:round;stroke-miterlimit:10;" d="
					M189.007,198.451c-0.009,0.066-0.032,0.127-0.064,0.182l13.712,1.577l2.224-20.129l-13.281-0.954L189.007,198.451z"/>
				<polygon style="fill:#BABDBF;stroke:#263238;stroke-linecap:round;stroke-linejoin:round;stroke-miterlimit:10;" points="
					189.451,226.062 192.768,200.079 179.654,198.571 176.449,224.376 				"/>
				<polygon style="fill:#BABDBF;stroke:#263238;stroke-linecap:round;stroke-linejoin:round;stroke-miterlimit:10;" points="
					192.21,227.428 176.326,225.368 173.457,248.466 189.447,250.919 				"/>
				<path style="fill:#BABDBF;stroke:#263238;stroke-linecap:round;stroke-linejoin:round;stroke-miterlimit:10;" d="
					M188.034,198.529c-0.02-0.066-0.029-0.137-0.019-0.21l2.584-19.263l-8.446-0.607l-2.376,19.13L188.034,198.529z"/>
				<polygon style="fill:#BABDBF;stroke:#263238;stroke-linecap:round;stroke-linejoin:round;stroke-miterlimit:10;" points="
					193.202,227.557 190.436,251.071 196.926,252.066 199.543,228.378 				"/>
			</g>
		</g>
	</g>
</g>
</svg>