<?xml version="1.0" encoding="utf-8"?>
<!-- Generator: Adobe Illustrator 27.5.0, SVG Export Plug-In . SVG Version: 6.00 Build 0)  -->
<svg version="1.1" xmlns="http://www.w3.org/2000/svg" xmlns:xlink="http://www.w3.org/1999/xlink"
	x="0px" y="0px"
	viewBox="0 0 640 500" style="enable-background:new 0 0 750 500;" xml:space="preserve">
	<!-- <g id="BACKGROUND">
	<rect style="fill:#FFFFFF;" width="640" height="500"/>
</g> -->
<g id="OBJECTS">
	<g>
		<g>
			<path style="fill:#d2e3fa;" d="M513.94,311.403c0,4.229,1.716,8.06,4.487,10.831c2.77,2.77,6.601,4.486,10.831,4.486h47.623
				c10.284,0,19.026,6.569,22.272,15.741c0.874,2.462,1.35,5.116,1.35,7.88c0,6.524-2.642,12.431-6.916,16.706
				c-4.274,4.274-10.181,6.916-16.706,6.916h-76.239c-1.845,0-3.49,0.842-4.583,2.16c-0.848,1.022-1.363,2.346-1.363,3.786
				c0,1.646,0.668,3.13,1.742,4.204c1.073,1.08,2.565,1.742,4.204,1.742h34.317c0.141,0,0.283,0,0.424,0.006
				c1.858,0.039,3.651,0.315,5.354,0.81c0.097,0.026,0.199,0.051,0.296,0.084c8.587,2.597,14.835,10.574,14.835,20.009
				c0,3.027-0.643,5.907-1.806,8.504c-1.048,2.359-2.52,4.48-4.319,6.28c-3.78,3.779-9.012,6.119-14.784,6.119h-335.77
				c-6.858,0-12.913-3.458-16.506-8.729c-2.185-3.201-3.465-7.07-3.465-11.242c0-5.508,2.237-10.503,5.849-14.122
				c0.225-0.225,0.45-0.443,0.688-0.656c3.548-3.227,8.26-5.194,13.434-5.194h6.852c4.57,0,8.279-3.702,8.279-8.272
				c0-1.183-0.251-2.307-0.694-3.329c-0.418-0.951-1.003-1.806-1.729-2.526c-1.498-1.498-3.567-2.423-5.856-2.423h-65.569
				c-10.561,0-19.244-8.035-20.266-18.332c-0.064-0.668-0.096-1.343-0.096-2.031c0-5.624,2.282-10.709,5.965-14.392
				c3.683-3.689,8.774-5.965,14.398-5.965h28.777c7.405,0,13.408-6.004,13.408-13.408c0-3.702-1.504-7.058-3.927-9.481
				c-2.423-2.423-5.779-3.927-9.481-3.927h-41.806c-13.498,0-24.438-10.946-24.438-24.445c0-6.749,2.738-12.862,7.16-17.284
				c4.422-4.422,10.529-7.154,17.278-7.154h31.701c11.846,0,21.449-9.609,21.449-21.456v-83.2c0-6.511,5.277-11.788,11.788-11.788
				c3.259,0,6.203-1.318,8.337-3.458c2.134-2.134,3.452-5.084,3.452-8.337v-21.88c0-21.642,17.548-39.183,39.19-39.183h254.087
				c10.882,0,19.701,8.819,19.701,19.701c0,5.444-2.205,10.368-5.772,13.935c-3.561,3.567-8.491,5.772-13.929,5.772h-21.192
				c-5.444,0-9.854,4.409-9.854,9.847c0,2.719,1.106,5.187,2.886,6.968c1.78,1.781,4.249,2.886,6.968,2.886h93.073
				c18.917,0,34.247,15.33,34.247,34.247c0,9.462-3.831,18.023-10.027,24.219c-6.203,6.196-14.765,10.027-24.22,10.027
				c-8.08,0-15.401,3.278-20.697,8.575c-3.182,3.188-5.637,7.103-7.09,11.48c-0.958,2.899-1.478,5.997-1.478,9.217v0.636
				c0,16.159,13.1,29.265,29.265,29.265h9.25c12.11,0,21.925,9.815,21.925,21.931c0,0.579-0.019,1.151-0.064,1.71
				c-0.418,5.374-2.77,10.207-6.357,13.794c-3.966,3.966-9.449,6.421-15.504,6.421h-49.32
				C520.798,296.085,513.94,302.944,513.94,311.403z"/>
			
				<ellipse transform="matrix(0.7071 -0.7071 0.7071 0.7071 -33.1282 148.5256)" style="fill:#E0F4FC;" cx="162.722" cy="114.252" rx="13.288" ry="13.288"/>
			
				<ellipse transform="matrix(0.9239 -0.3827 0.3827 0.9239 -85.4843 265.2779)" style="fill:#E0F4FC;" cx="624.078" cy="347.518" rx="13.288" ry="13.288"/>
		</g>
		<g>
			<g>
				<path style="fill:#00B3F9;" d="M398.456,344.062c-0.191,0-0.384-0.034-0.569-0.104c-0.624-0.237-1.037-0.835-1.037-1.503
					v-43.162c0-0.888,0.719-1.607,1.607-1.607h38.26c0.632,0,1.206,0.371,1.466,0.948c0.259,0.576,0.156,1.252-0.263,1.725
					l-38.26,43.162C399.348,343.872,398.907,344.062,398.456,344.062z M400.063,300.9v37.32l33.082-37.32H400.063z"/>
			</g>
			<path style="fill:#0D5375;" d="M442.674,302.501h-62.795c-1.772,0-3.207-1.436-3.207-3.207l0,0c0-1.771,1.436-3.208,3.207-3.208
				h62.795c1.772,0,3.207,1.436,3.207,3.208l0,0C445.882,301.065,444.446,302.501,442.674,302.501z"/>
			<path style="fill:#65B8D1;" d="M517.147,212.461c0,0-12.225,81.638-12.495,82.461c-0.276,0.829-33.173,44.39-33.173,44.39
				l-20.903-12.592l-7.842-76.991l16.23-34.986l1.061-2.282h11.454c0,0,3.818-8.465,15.124-8.465c1.941,0,3.555,0.251,4.898,0.662
				c0.019,0.006,0.038,0.013,0.058,0.019c0.019,0,0.045,0.013,0.077,0.019c6.37,2.038,6.576,7.765,6.576,7.765H517.147z"/>
			<path style="opacity:0.25;" d="M517.147,212.461c0,0-12.225,81.638-12.495,82.461c-0.276,0.829-33.173,44.39-33.173,44.39
				l-20.903-12.592l-7.842-76.991l16.23-34.986c2.803,0.225,7.141,2.674,12.515,12.534c9.699,17.792,14.739,21.231,21.616,20.999
				c5.38-0.173,8.369-24.798,18.422-35.815H517.147z"/>
			<path style="fill:#8BDEF2;" d="M506.31,212.461h-8.099c0,0-0.206-5.727-6.576-7.765c1.35,0.386,12.181,3.522,13.254,5.168
				C505.25,210.411,505.77,211.285,506.31,212.461z"/>
			<path style="fill:#0D5375;" d="M403.52,342.455c0,2.796-2.267,5.063-5.063,5.063c-2.796,0-5.063-2.267-5.063-5.063
				s2.267-5.063,5.063-5.063C401.253,337.392,403.52,339.659,403.52,342.455z"/>
		</g>
		<g>
			<g>
				<path style="fill:none;stroke:#65B8D1;stroke-width:1.2855;stroke-miterlimit:10;" d="M220.219,158.981l6.376-16.479
					c0.428-1.107,1.984-1.133,2.45-0.042l7.227,17.474"/>
				
					<ellipse transform="matrix(0.249 -0.9685 0.9685 0.249 -5.8047 357.7486)" style="fill:#A5CAD3;" cx="227.769" cy="182.617" rx="25.431" ry="25.431"/>
				
					<ellipse transform="matrix(0.7071 -0.7071 0.7071 0.7071 -61.881 215.8404)" style="fill:#CAE7EF;" cx="229.602" cy="182.617" rx="25.431" ry="25.431"/>
				
					<ellipse transform="matrix(0.4883 -0.8727 0.8727 0.4883 -41.875 293.8211)" style="opacity:0.55;fill:#FFFFFF;" cx="229.602" cy="182.617" rx="16.936" ry="16.936"/>
			</g>
			<g>
				<path style="fill:none;stroke:#65B8D1;stroke-width:1.2855;stroke-miterlimit:10;" d="M317.149,103.904l6.376-16.479
					c0.428-1.107,1.984-1.133,2.45-0.041l7.227,17.475"/>
				<circle style="fill:#CAE7EF;" cx="324.698" cy="127.54" r="25.431"/>
				<circle style="fill:#FFFFFF;" cx="326.531" cy="127.54" r="25.431"/>
				<circle style="fill:#CAE7EF;" cx="326.531" cy="127.54" r="16.936"/>
			</g>
		</g>
		<g>
			<polygon style="fill:#008EBA;" points="385.469,427.667 379.427,427.667 340.99,280.125 347.025,280.125 			"/>
			<polygon style="opacity:0.25;" points="385.469,427.667 382.166,427.667 343.722,280.125 347.025,280.125 			"/>
		</g>
		<g>
			<path style="fill:#0D5375;" d="M408.397,314.874l-3.278,8.555c0,0-3.567,5.483-8.247,11.48c-0.058,0.084-0.109,0.148-0.154,0.199
				c-0.026,0.026-0.045,0.058-0.071,0.096c-4.384,5.586-9.686,11.544-13.929,13.884c-3.696,2.031-11.236,12.888-18.846,24.875
				c-10.696,16.84-21.526,35.911-22.066,35.911c-0.913,0-14.051-7.334-14.359-8.857c-0.296-1.485,24.74-53.903,32.35-66.482
				c0.232-0.379,0.444-0.726,0.643-1.028c2.7-4.172,8.092-8.633,13.569-12.476c2.237-1.575,4.487-3.04,6.576-4.339
				c5.534-3.452,9.944-5.746,9.944-5.746l15.729,3.458L408.397,314.874z"/>
			<path style="fill:#02374C;" d="M378.309,325.717c-3.362,2.153-11.454,10.541-13.897,10.998c-1.53,0.283-3.42-1.106-4.615-2.179
				c0.232-0.379,0.444-0.726,0.643-1.028c3.805-5.875,12.933-12.322,20.144-16.815C383.04,320.215,381.118,324.541,378.309,325.717z
				"/>
			<path style="opacity:0.25;" d="M406.257,314.404c-1.748,4.821-7.855,18.319-9.384,20.504c-0.058,0.084-0.109,0.148-0.154,0.199
				c-0.026,0.026-0.045,0.058-0.071,0.096c-4.384,5.586-9.686,11.544-13.929,13.884c-3.696,2.031-11.236,12.888-18.846,24.875
				c6.132-16.056,9.082-41.619,10.136-52.932c2.237-1.575,4.487-3.04,6.576-4.339c5.534-3.452,9.944-5.746,9.944-5.746
				L406.257,314.404z"/>
			<g style="opacity:0.25;">
				<g>
					<path style="fill:none;stroke:#F9F9F9;stroke-width:1.2855;stroke-linecap:round;stroke-miterlimit:10;" d="M385.064,330.452
						c0,0-0.633,0.393-1.785,1.363"/>
					
						<path style="fill:none;stroke:#F9F9F9;stroke-width:1.2855;stroke-linecap:round;stroke-miterlimit:10;stroke-dasharray:4.3561,4.3561;" d="
						M380.109,334.797c-3.43,3.53-8.406,9.562-14.17,19.329c-8.62,14.606-19.211,37.471-23.387,46.673"/>
					<path style="fill:none;stroke:#F9F9F9;stroke-width:1.2855;stroke-linecap:round;stroke-miterlimit:10;" d="M341.654,402.786
						c-0.591,1.313-0.917,2.049-0.917,2.049"/>
				</g>
			</g>
			<path style="fill:#0D5375;" d="M469.743,333.199c-4.216,6.878-12.438,5.039-24.747,3.362
				c-12.309-1.678-32.016-0.302-34.915,0.765c-1.748,0.643-7.045,27.253-11.512,48.529c-2.385,11.371-4.538,21.218-5.785,24.766
				v0.006c-0.296,0.836-0.54,1.318-0.726,1.388c-2.443,0.913-10.233,2.597-15.883-2.442c-0.913-15.555-0.379-52.354,3.349-75.628
				c1.253-7.81,2.867-14.096,4.898-17.548c2.057-3.497,6.537-6.126,12.065-8.112c0.019-0.006,0.039-0.013,0.058-0.019
				c0.019-0.007,0.045-0.013,0.084-0.026c0.161-0.064,0.315-0.116,0.476-0.174c6.338-2.192,13.961-3.567,20.903-4.429
				c3.323,4.763,13.53,2.886,21.359,4.094c1.806,0.276,4.088,0.456,6.588,0.521c9.031,0.251,20.954-0.874,23.789-3.509
				C469.987,305.148,478.356,319.186,469.743,333.199z"/>
			<path style="opacity:0.25;" d="M469.743,333.199c-4.216,6.878-12.438,5.039-24.747,3.362
				c-12.309-1.678-32.016-0.302-34.915,0.765c-1.748,0.643-7.045,27.253-11.512,48.529c1.684-20.132,4.757-55.522,5.701-55.4
				c1.221,0.148,5.656,4.654,5.656,4.654s37.917-4.583,33.475-10.419c-4.441-5.843-21.79-15.812-29.812-17.644
				c-7.437-1.697-15.799,0.823-16.963,1.196c0.161-0.064,0.315-0.116,0.476-0.174c6.338-2.192,13.961-3.567,20.903-4.429
				c3.323,4.763,13.53,2.886,21.359,4.094c1.806,0.276,4.088,0.456,6.588,0.521c9.031,0.251,20.954-0.874,23.789-3.509
				C469.987,305.148,478.356,319.186,469.743,333.199z"/>
			<linearGradient id="SVGID_1_" gradientUnits="userSpaceOnUse" x1="317.376" y1="249.1951" x2="401.7655" y2="256.992">
				<stop  offset="0" style="stop-color:#FFA894"/>
				<stop  offset="1" style="stop-color:#FC7B65"/>
			</linearGradient>
			<path style="fill:url(#SVGID_1_);" d="M405.119,260.958l-9.243,1.067c0,0-9.134-0.263-19.939-0.591
				c-14.083-0.431-31.001-0.983-34.285-1.24c-5.804-0.456-16.648-2.905-15.883-4.583c0.765-1.678,7.636-2.443,10.844-2.597
				c3.207-0.154,8.857,2.597,10.998,2.597c1.858,0,25.274-0.919,32.858-1.363c1.17-0.071,1.967-0.128,2.25-0.167
				c2.115-0.302,10.882-6.601,10.882-6.601l6.64,1.832L405.119,260.958z"/>
			<path style="opacity:0.25;" d="M405.119,260.958l-9.243,1.067c0,0-9.134-0.263-19.939-0.591l4.531-7.186
				c1.17-0.071,1.967-0.128,2.25-0.167c2.115-0.302,10.882-6.601,10.882-6.601l6.64,1.832L405.119,260.958z"/>
			<path style="fill:#0C1C28;" d="M470.296,303.953c-0.096,0.276-0.283,0.54-0.553,0.784v0.006
				c-2.835,2.635-14.758,3.76-23.789,3.509c-2.5-0.064-4.782-0.244-6.588-0.521c-7.829-1.208-18.036,0.669-21.359-4.094
				c-0.476-0.668-0.81-1.472-0.977-2.436c-1.266-7.16,3.619-17.123,2.97-28.475c-0.058-0.996-0.161-2.005-0.309-3.027
				c-0.161-1.099-0.321-2.211-0.476-3.323c-0.096-0.662-0.193-1.33-0.283-1.999c-0.437-3.156-0.848-6.306-1.202-9.327
				c-5.451,2.712-12.798,6.511-14.45,6.286c-0.353-0.045-0.823-0.334-1.369-0.797c-3.336-2.828-9.417-12.213-8.137-13.292
				c1.491-1.26,29.902-21.764,29.902-21.764c2.417-1.851,5.386-3.567,8.857-5.001c1.292-0.54,2.655-1.035,4.082-1.485h0.006
				c1.678-0.534,3.445-1.003,5.303-1.395c0,0,1.009,0.174,2.603,0.514l0.064,0.013c1.086,0.225,2.43,0.527,3.908,0.906l0.161,0.039
				c5.791,1.478,13.53,4.037,15.677,7.52c0.482,0.778,0.906,2.262,1.292,4.268c2.449,12.836,3.027,46.954,3.522,52.701
				C469.724,290.204,471.671,299.942,470.296,303.953z"/>
			<path style="opacity:0.25;" d="M470.296,303.953c-1.099,3.201-14.456,4.576-24.342,4.3c7.514-1.948,12.2-5.56,12.624-9.115
				c0.688-5.804-4.815-7.79-15.677-10.233c-7.25-1.633-17.136-10.477-22.902-16.178c-0.058-0.996-0.161-2.005-0.309-3.027
				c-0.161-1.099-0.321-2.211-0.476-3.323c15.266-7.533,43.689-39.1,43.689-39.1l2.725,3.587
				c2.449,12.836,3.027,46.954,3.522,52.701C469.724,290.204,471.671,299.942,470.296,303.953z"/>
			<path style="opacity:0.25;" d="M420.642,258.516v5.952c0,0-0.636-0.032-1.71-0.09c-0.437-3.156-0.848-6.306-1.202-9.327
				c-5.451,2.712-12.798,6.511-14.45,6.286c-0.353-0.045-0.823-0.334-1.369-0.797c8.266-5.014,15.439-24.046,18.73-25.55
				C418.527,238.962,420.642,258.516,420.642,258.516z"/>
			<path style="fill:#0C1C28;" d="M471.478,245.679c0.071,5.759-3.169,13.601-5.733,18.049c-1.234,2.134-2.308,3.49-2.79,3.452
				c-0.225-0.019-0.72-0.193-1.408-0.501c-3.902-1.729-14.025-7.662-15.876-13.016c0.54-0.938,1.073-1.851,1.6-2.745
				c9.082-15.401,16.089-24.47,16.693-24.856C463.965,226.062,471.279,229.687,471.478,245.679z"/>
			
				<linearGradient id="SVGID_00000075875744525414673840000011620168579401126275_" gradientUnits="userSpaceOnUse" x1="373.2837" y1="261.4504" x2="457.5948" y2="269.2401">
				<stop  offset="0" style="stop-color:#FFA894"/>
				<stop  offset="1" style="stop-color:#FC7B65"/>
			</linearGradient>
			<path style="fill:url(#SVGID_00000075875744525414673840000011620168579401126275_);" d="M461.548,266.679
				c-1.768,2.25-5.117,6.363-8.594,9.995c-3.889,4.056-7.945,7.508-10.149,7.058c-5.097-1.029-39.98-26.746-43.304-27.26
				c-3.323-0.514-16.834,0.688-16.783-0.231c0.058-0.919,7.392-8.761,10.882-8.761c3.49,0,11.686,4.294,15.24,4.692
				c3.548,0.405,31.438,10.773,31.438,10.773l3.124-5.374l2.269-3.908C447.523,259.017,457.646,264.95,461.548,266.679z"/>
			<path style="opacity:0.25;" d="M448.66,219.075c-2.455,6.871-9.95,12.001-14.411,10.072c-3.67-1.588-2.468-6.479-1.716-8.665
				c1.292-0.54,2.655-1.035,4.082-1.485h0.006l7.906-0.881l0.064,0.013l3.908,0.906L448.66,219.075z"/>
			<path style="fill:#07171C;" d="M424.781,209.286l-3.329,0.579l-0.469,0.083c-2.661,0.469-5.431-2.655-6.184-6.974
				c-0.758-4.319,0.778-8.202,3.439-8.671l3.805-0.662c-0.469,0.084-0.906,0.27-1.298,0.559c-0.174,0.116-0.341,0.257-0.495,0.411
				c-0.662,0.656-1.17,1.6-1.478,2.719c-0.405,1.433-0.488,3.169-0.173,4.975c0.315,1.813,0.99,3.407,1.851,4.622
				c0.681,0.951,1.478,1.665,2.32,2.057C423.425,209.292,424.106,209.402,424.781,209.286z"/>
			<path style="opacity:0.25;" d="M424.781,209.286l-3.329,0.579c-2.16-0.604-4.14-3.349-4.757-6.891
				c-0.758-4.319,0.778-8.202,3.439-8.671l0.611-0.103c-0.174,0.116-0.341,0.257-0.495,0.411c-0.662,0.656-1.17,1.6-1.478,2.719
				c-0.405,1.433-0.488,3.169-0.173,4.975c0.315,1.813,0.99,3.407,1.851,4.622c0.681,0.951,1.478,1.665,2.32,2.057
				C423.425,209.292,424.106,209.402,424.781,209.286z"/>
			<path style="fill:#0C1C28;" d="M451.173,190.208c-0.392,7.109-3.098,15.369-8.125,20.941c-0.006,0.006-0.006,0.006-0.013,0.013
				l-5.007-17.181c0,0-5.418,2.288-11.756,4.737c-3.175,1.221-5.753,2.217-8.292,2.455c-2.526,0.231-5.001-0.289-7.977-2.076
				c-4.075-2.455-4.917-8.028-2.873-11.332c0.945-1.53,2.5-2.571,4.628-2.603c1.375-10.541,9.789-12.72,14.919-7.45
				c0.064,0.071,0.154,0.129,0.257,0.174c0,0,0.007,0.006,0.019,0.013c1.832,0.868,8.864-0.758,8.864-0.758s2.192-2.648,6.942-1.8
				c1.099,0.199,2.333,0.579,3.709,1.228C449.965,178.208,451.533,183.729,451.173,190.208z"/>
			
				<linearGradient id="SVGID_00000124162870979080900750000012731557006909746084_" gradientUnits="userSpaceOnUse" x1="427.0177" y1="224.0715" x2="436.7928" y2="194.2877">
				<stop  offset="0" style="stop-color:#FFA894"/>
				<stop  offset="1" style="stop-color:#FC7B65"/>
			</linearGradient>
			<path style="fill:url(#SVGID_00000124162870979080900750000012731557006909746084_);" d="M445.286,218.799
				c-2.063,7.411-9.089,8.247-10.079,7.636c-0.469-0.289-1.401-2.308-2.243-4.339c-0.855-2.05-1.62-4.114-1.742-4.442
				c-0.006-0.032-0.013-0.045-0.013-0.045s-0.058,0.038-0.186,0.071c-0.186,0.045-0.514,0.09-1.028,0.013
				c-0.72-0.109-1.8-0.469-3.317-1.414c-5.451-3.374-7.822-11.39-8.549-14.443c-0.058-0.257-0.109-0.482-0.148-0.662
				c2.539-0.238,5.117-1.234,8.292-2.455c6.338-2.449,11.756-4.737,11.756-4.737l3.895,13.37l1.112,3.812
				c0.006-0.007,0.006-0.007,0.013-0.013C443.512,213.374,444.244,216.253,445.286,218.799z"/>
			<path style="opacity:0.25;" d="M451.173,190.208c-0.392,7.109-3.098,15.369-8.125,20.941c-0.006,0.006-0.006,0.006-0.013,0.013
				l-5.007-17.181c0,0-5.418,2.288-11.756,4.737c-3.175,1.221-5.753,2.217-8.292,2.455c-2.526,0.231-5.001-0.289-7.977-2.076
				c-4.075-2.455-4.917-8.028-2.873-11.332c-0.302,5.599,3.998,8.208,3.998,8.208s-1.086-3.31,0.463-5.772
				c0.052,2.867,1.774,5.727,8.099,6.389c6.331,0.662,13.665-3.985,12.348-10.053c-1.26-5.817-4.789-8.427-5.084-8.639
				c1.832,0.868,8.864-0.758,8.864-0.758s2.192-2.648,6.942-1.8c-2.217,2.925,4.486,11.538,7.533,13.884
				C450.634,189.488,450.923,189.823,451.173,190.208z"/>
			<path style="opacity:0.25;" d="M432.964,222.096c-0.855-2.05-1.62-4.114-1.742-4.442c1.478-0.199,4.005-1.086,5.914-4.544
				C438.016,214.974,434.359,220.206,432.964,222.096z"/>
			<path style="opacity:0.25;" d="M441.924,207.351c-5.039-3.085-9.789-7.726-17.143-6.177c-2.957,0.623-5.11,0.752-6.653,0.662
				c-0.058-0.257-0.109-0.482-0.148-0.662c2.539-0.238,5.117-1.234,8.292-2.455c6.338-2.449,11.756-4.737,11.756-4.737
				L441.924,207.351z"/>
			<path style="fill:#00B3F9;" d="M442.361,188.576l-4.281,1.626c0,0-0.038-0.309-0.135-0.829c-0.54-2.982-2.905-12.9-10.239-11.274
				c1.054-2.301,11.454-4.107,14.218,7.951C442.104,186.834,442.252,187.676,442.361,188.576z"/>
			<path style="fill:#00B3F9;" d="M446.655,203.951c-0.675,0.116-1.356,0.006-2.012-0.302c-0.842-0.392-1.639-1.105-2.32-2.057
				c-0.861-1.215-1.536-2.809-1.851-4.621c-0.315-1.806-0.231-3.542,0.174-4.975c0.309-1.118,0.816-2.063,1.478-2.719
				c0.514-0.514,1.118-0.855,1.793-0.971c2.655-0.469,5.425,2.655,6.184,6.974C450.859,199.599,449.316,203.482,446.655,203.951z"/>
			<path style="fill:#07171C;" d="M448.435,200.377c-0.302,0.058-0.611,0.026-0.913-0.071c-0.09-0.026-0.174-0.064-0.264-0.103
				c-0.276-0.129-0.546-0.321-0.803-0.566c-0.199-0.18-0.386-0.398-0.559-0.643c-0.508-0.714-0.9-1.646-1.086-2.713
				c-0.186-1.061-0.135-2.076,0.103-2.918c0.077-0.289,0.18-0.559,0.309-0.803c0.154-0.309,0.341-0.578,0.559-0.791
				c0.058-0.058,0.116-0.109,0.18-0.154c0.257-0.219,0.553-0.36,0.874-0.418c1.556-0.276,3.182,1.562,3.625,4.094
				C450.903,197.825,449.997,200.101,448.435,200.377z"/>
			<path style="opacity:0.25;" d="M448.069,200.448c-0.373,0.726-0.926,1.221-1.6,1.343c-0.302,0.058-0.611,0.026-0.913-0.071
				c-0.09-0.026-0.173-0.064-0.264-0.103c-0.276-0.129-0.546-0.321-0.803-0.566c-0.199-0.18-0.385-0.398-0.559-0.643
				c-0.508-0.714-0.9-1.645-1.086-2.713c-0.173-1.003-0.141-1.967,0.071-2.783c-0.032,0.54,0,1.118,0.103,1.71
				c0.186,1.061,0.579,1.999,1.086,2.712c0.398,0.553,0.868,0.977,1.363,1.202c0.386,0.186,0.784,0.251,1.176,0.18L448.069,200.448z
				"/>
			<path style="fill:#07171C;" d="M446.655,203.951l-3.799,0.662c-2.661,0.469-5.432-2.655-6.184-6.974
				c-0.758-4.319,0.778-8.202,3.439-8.671l3.805-0.662c-0.675,0.116-1.279,0.456-1.793,0.971c-0.662,0.656-1.17,1.601-1.478,2.719
				c-0.405,1.433-0.488,3.169-0.174,4.975c0.315,1.813,0.99,3.407,1.851,4.621c0.681,0.951,1.478,1.665,2.32,2.057
				C445.298,203.957,445.98,204.066,446.655,203.951z"/>
			<path style="opacity:0.25;" d="M442.361,188.576l-4.281,1.626c0,0-0.038-0.309-0.135-0.829c1.016-1.883,2.468-3.137,3.979-3.323
				C442.104,186.834,442.252,187.676,442.361,188.576z"/>
			<path style="fill:#008EBA;" d="M448.435,200.377l-0.366,0.071l-1.427,0.27c-0.392,0.071-0.791,0.006-1.176-0.18
				c-0.495-0.225-0.964-0.649-1.363-1.202c-0.508-0.714-0.9-1.652-1.086-2.712c-0.103-0.591-0.135-1.17-0.103-1.71
				c0-0.007,0-0.007,0-0.013c0.032-0.424,0.103-0.829,0.206-1.196c0.18-0.656,0.476-1.215,0.868-1.594
				c0.302-0.302,0.656-0.508,1.054-0.572l1.793-0.341c-0.321,0.058-0.617,0.199-0.874,0.418c-0.064,0.045-0.122,0.096-0.18,0.154
				c-0.218,0.212-0.405,0.482-0.559,0.791c-0.007,0.007-0.007,0.019-0.013,0.026c-0.122,0.238-0.219,0.495-0.296,0.778
				c-0.238,0.842-0.289,1.858-0.103,2.918c0.187,1.067,0.579,1.999,1.086,2.713c0.174,0.244,0.36,0.463,0.559,0.643
				c0.257,0.244,0.527,0.437,0.803,0.566c0.09,0.038,0.174,0.077,0.264,0.103c0.186,0.058,0.386,0.09,0.572,0.096
				C448.21,200.409,448.32,200.396,448.435,200.377z"/>
			<path style="opacity:0.25;fill:#FFFFFF;" d="M465.745,263.728c-1.234,2.134-2.308,3.49-2.79,3.452
				c-0.225-0.019-0.72-0.193-1.408-0.501c-3.902-1.729-14.025-7.662-15.876-13.016c0.54-0.938,1.073-1.851,1.6-2.745
				C450.119,253.592,459.015,261.607,465.745,263.728z"/>
			<path style="opacity:0.25;" d="M461.548,266.679c-1.768,2.25-5.117,6.363-8.594,9.995c-6.074-5.862-8.555-13.948-9.552-19.103
				l2.269-3.908C447.523,259.017,457.646,264.95,461.548,266.679z"/>
			<path style="fill:#02374C;" d="M392.398,317.811c-4.885,4.782-7.212,17.413-8.362,17.297c-0.739-0.071-3.002-0.713-4.512-1.163
				c1.253-7.81,2.867-14.096,4.898-17.548c2.134-3.625,6.871-6.318,12.682-8.33c1.472,2.121,2.86,4.313,2.97,4.821
				C400.305,313.916,397.444,312.887,392.398,317.811z"/>
			<path style="opacity:0.25;fill:none;stroke:#F9F9F9;stroke-width:1.2855;stroke-miterlimit:10;" d="M452.475,312.2
				c0,0-1.612,6.404,6.1,9.388"/>
			<g style="opacity:0.25;">
				<g>
					<path style="fill:none;stroke:#F9F9F9;stroke-width:1.2855;stroke-linecap:round;stroke-miterlimit:10;" d="M450.479,316.693
						c0,0-0.817,0.06-2.237,0.196"/>
					
						<path style="fill:none;stroke:#F9F9F9;stroke-width:1.2855;stroke-linecap:round;stroke-miterlimit:10;stroke-dasharray:4.6228,4.6228;" d="
						M443.648,317.383c-12.046,1.434-36.151,5.356-39.906,14.062c-4.239,9.828-11.206,58.067-13.314,73.151"/>
					<path style="fill:none;stroke:#F9F9F9;stroke-width:1.2855;stroke-linecap:round;stroke-miterlimit:10;" d="M390.109,406.886
						c-0.197,1.43-0.305,2.225-0.305,2.225"/>
				</g>
			</g>
			<path style="fill:#1C1C1C;" d="M394.121,427.667h-37.576c0-1.196,0.366-2.288,1.003-3.285c2.16-3.419,7.398-5.727,11.409-7.276
				c1.993-0.778,3.683-1.363,4.544-1.806c3.092-1.607,2.674-5.727,2.674-5.727c1.08,0.964,2.237,1.678,3.42,2.198
				c0.321,0.142,0.643,0.27,0.97,0.386c0,0,0,0,0.007,0c4.731,1.678,9.642,0.553,11.486-0.141c0.186-0.071,0.431-0.553,0.726-1.388
				l0.501,6.415l0.578,7.34L394.121,427.667z"/>
			<line style="fill:none;" x1="392.784" y1="410.627" x2="392.784" y2="410.621"/>
			<path style="fill:#1C1C1C;" d="M341.806,409.875c0,0-1.067,2.796-2.507,6.177c-1.144,2.68-2.52,5.727-3.786,8.028
				c-1.157,2.108-2.217,3.587-2.912,3.587c-2.404,0-27.832-14.546-30.352-21.533c0.926-0.816,1.909-1.356,2.938-1.697
				c3.529-1.17,7.668-0.026,12.283,0.321c1.048,0.077,2.121,0.116,3.22,0.077c7.334-0.27,6.755-3.818,6.755-3.818
				c0.103,0.501,1.62,1.652,3.632,2.957c0.797,0.514,1.671,1.06,2.571,1.594C337.307,407.767,341.318,409.875,341.806,409.875z"/>
			<path style="opacity:0.25;" d="M379.595,411.771c-1.118,5.978-5.149,8.543-7.167,8.26c-1.736-0.238-3.002-2.121-3.471-2.925
				c1.993-0.778,3.683-1.363,4.544-1.806c3.092-1.607,2.674-5.727,2.674-5.727C377.255,410.537,378.412,411.25,379.595,411.771z"/>
			<path style="opacity:0.25;" d="M331.078,403.974c-3.092,4.904-9.821,5.637-11.531,5.136c-1.369-0.405-1.89-2.905-2.076-4.352
				c1.048,0.077,2.121,0.116,3.22,0.077c7.334-0.27,6.755-3.818,6.755-3.818C327.549,401.519,329.066,402.669,331.078,403.974z"/>
			<path style="opacity:0.25;" d="M335.513,424.08c-1.157,2.108-2.217,3.587-2.912,3.587c-2.404,0-27.832-14.546-30.352-21.533
				c0.926-0.816,1.909-1.356,2.938-1.697C309.494,408.474,324.323,421.766,335.513,424.08z"/>
			<path style="opacity:0.25;" d="M341.806,409.875c0,0-1.067,2.796-2.507,6.177l-5.65-10.484
				C337.307,407.767,341.318,409.875,341.806,409.875z"/>
			<path style="opacity:0.25;" d="M393.286,417.042c-5.599-0.058-12.444-4.692-12.714-4.885c4.731,1.678,9.642,0.553,11.486-0.141
				c0.186-0.071,0.431-0.553,0.726-1.388L393.286,417.042z"/>
		</g>
		<g>
			
				<linearGradient id="SVGID_00000057140600108224136700000010387381141393654928_" gradientUnits="userSpaceOnUse" x1="324.4817" y1="237.5578" x2="323.1071" y2="271.4657">
				<stop  offset="0" style="stop-color:#FFB000"/>
				<stop  offset="1" style="stop-color:#FF6700"/>
			</linearGradient>
			<path style="fill:url(#SVGID_00000057140600108224136700000010387381141393654928_);" d="M313.073,262.944
				c0,0,1.146-4.355,5.842-5.845c4.697-1.489,11.856,1.833,13.918,2.52c2.062,0.687,0.516,3.326,0.516,3.326L313.073,262.944z"/>
			
				<linearGradient id="SVGID_00000052785725323213785950000006744314517506106500_" gradientUnits="userSpaceOnUse" x1="348.8287" y1="251.917" x2="346.1661" y2="295.3588">
				<stop  offset="0" style="stop-color:#4C1710"/>
				<stop  offset="1" style="stop-color:#723328"/>
			</linearGradient>
			<polygon style="fill:url(#SVGID_00000052785725323213785950000006744314517506106500_);" points="323.02,262.945 
				325.731,258.207 373.576,258.207 371.743,262.944 			"/>
			<polygon style="fill:#3A1508;" points="373.576,258.207 402.757,259.975 403.742,262.944 371.743,262.944 			"/>
		</g>
		<g>
			<path style="fill:#0D5375;" d="M456.438,427.667h-24.747c-1.806,0-3.252-1.549-3.079-3.394c0.154-1.607,1.6-2.79,3.214-2.79
				h0.039c4.969,0,8.992-4.024,8.992-8.992v-62.182h6.415v62.182c0,4.969,4.024,8.992,8.992,8.992h0.039
				c1.613,0,3.06,1.183,3.214,2.79C459.69,426.118,458.244,427.667,456.438,427.667z"/>
			<path style="opacity:0.25;" d="M456.438,427.667h-19.932c-1.806,0-3.252-1.549-3.079-3.394c0.154-1.607,1.6-2.79,3.214-2.79
				h0.039c4.969,0,8.992-4.024,8.992-8.992v-62.182h1.6v62.182c0,4.969,4.024,8.992,8.992,8.992h0.039
				c1.613,0,3.06,1.183,3.214,2.79C459.69,426.118,458.244,427.667,456.438,427.667z"/>
			<path style="fill:#8BDEF2;" d="M529.334,221.042l-0.019,0.058l-43.168,129.209H409.58c-2.34,0-4.114-2.095-3.735-4.403
				l1.266-7.636c0.302-1.826,1.877-3.162,3.728-3.162h54.629c2.494,0,4.724-1.568,5.56-3.914l41.317-115.493
				c0.906-2.52,3.593-3.921,6.171-3.214l7.302,1.986C528.659,215.251,530.266,218.246,529.334,221.042z"/>
			<path style="opacity:0.25;" d="M529.315,221.1l-43.168,129.209h-72.427l0.72-4.364c0.302-1.826,1.883-3.169,3.734-3.169h54.629
				c2.494,0,4.718-1.562,5.56-3.915l41.317-115.493c0.9-2.513,3.587-3.914,6.171-3.214L529.315,221.1z"/>
			<g>
				<path style="fill:#00B3F9;" d="M447.271,344.062c-0.191,0-0.384-0.034-0.569-0.104c-0.624-0.237-1.037-0.835-1.037-1.503
					v-43.162c0-0.888,0.719-1.607,1.607-1.607h38.26c0.632,0,1.206,0.371,1.466,0.948c0.259,0.576,0.156,1.252-0.263,1.725
					l-38.26,43.162C448.163,343.872,447.723,344.062,447.271,344.062z M448.879,300.9v37.32l33.082-37.32H448.879z"/>
			</g>
			<path style="fill:#0D5375;" d="M452.335,342.455c0,2.796-2.267,5.063-5.063,5.063s-5.063-2.267-5.063-5.063
				s2.267-5.063,5.063-5.063S452.335,339.659,452.335,342.455z"/>
			<path style="fill:#0D5375;" d="M494.391,302.501h-65.697c-1.771,0-3.207-1.436-3.207-3.207l0,0c0-1.771,1.436-3.208,3.207-3.208
				h65.697c1.772,0,3.208,1.436,3.208,3.208l0,0C497.599,301.065,496.163,302.501,494.391,302.501z"/>
		</g>
		<g>
			<g>
				<path style="fill:#11191E;" d="M277.619,280.125h-54.713c-0.829,0-1.626-0.116-2.385-0.341
					c-3.587-1.029-6.203-4.332-6.203-8.247c0-2.372,0.964-4.519,2.513-6.074c1.555-1.556,3.702-2.52,6.074-2.52h54.713
					c-2.372,0-4.519,0.964-6.074,2.52c-0.746,0.746-1.356,1.633-1.793,2.616c-0.469,1.054-0.726,2.224-0.726,3.458
					C269.025,276.282,272.875,280.125,277.619,280.125z"/>
				<path style="fill:#1C262D;" d="M423.444,271.538c0,2.372-0.958,4.519-2.513,6.074c-1.556,1.549-3.702,2.513-6.074,2.513H277.619
					c-4.744,0-8.594-3.844-8.594-8.587c0-1.234,0.257-2.404,0.726-3.458c0.437-0.983,1.048-1.87,1.793-2.616
					c1.556-1.556,3.702-2.52,6.074-2.52h137.238C419.6,262.944,423.444,266.794,423.444,271.538z"/>
				<path style="opacity:0.25;" d="M401.911,276.674c0,1.228-0.302,2.391-0.848,3.452H222.907c-0.829,0-1.626-0.116-2.385-0.341
					c-0.45-0.964-0.694-2.012-0.694-3.111c0-2.372,1.131-4.512,2.97-6.074c1.832-1.556,4.364-2.52,7.16-2.52h161.83
					C397.38,268.08,401.911,271.93,401.911,276.674z"/>
			</g>
			<g>
				<g>
					<polygon style="fill:#008EBA;" points="240.711,280.125 202.267,427.667 196.232,427.667 234.676,280.125 					"/>
					<polygon style="opacity:0.25;" points="240.711,280.125 202.267,427.667 198.964,427.667 237.408,280.125 					"/>
				</g>
				<g>
					<polygon style="fill:#00B3F9;" points="296.099,280.125 257.655,427.667 251.613,427.667 290.057,280.125 					"/>
					<polygon style="opacity:0.25;" points="296.099,280.125 257.655,427.667 254.82,427.667 293.264,280.125 					"/>
				</g>
				<g>
					<polygon style="fill:#00B3F9;" points="440.857,427.667 434.815,427.667 396.371,280.125 402.413,280.125 					"/>
					<polygon style="opacity:0.25;" points="440.857,427.667 438.022,427.667 399.578,280.125 402.413,280.125 					"/>
				</g>
			</g>
		</g>
		<g>
			<path style="fill:#CAE7EF;" d="M467.663,149.038h-86.144c-2.973,0-5.384-2.41-5.384-5.384l0,0c0-2.973,2.41-5.384,5.384-5.384
				h86.144c2.973,0,5.384,2.41,5.384,5.384l0,0C473.047,146.627,470.636,149.038,467.663,149.038z"/>
			<path style="fill:#ADD0D8;" d="M395.869,169.428L395.869,169.428c-1.535,0-2.78-1.244-2.78-2.78v-17.611h5.559v17.611
				C398.649,168.184,397.405,169.428,395.869,169.428z"/>
			<path style="fill:#ADD0D8;" d="M453.493,169.428L453.493,169.428c-1.535,0-2.78-1.244-2.78-2.78v-17.611h5.559v17.611
				C456.273,168.184,455.029,169.428,453.493,169.428z"/>
			<path style="fill:#ADD0D8;" d="M404.266,108.486h-2.548c-0.886,0-1.604,0.718-1.604,1.604v26.576
				c0,0.886,0.718,1.604,1.604,1.604h2.548c0.886,0,1.604-0.718,1.604-1.604V110.09
				C405.869,109.204,405.151,108.486,404.266,108.486z"/>
			<path style="fill:#ADD0D8;" d="M443.985,108.486h-2.547c-0.886,0-1.604,0.718-1.604,1.604v26.576
				c0,0.886,0.718,1.604,1.604,1.604h2.547c0.886,0,1.604-0.718,1.604-1.604V110.09
				C445.589,109.204,444.871,108.486,443.985,108.486z"/>
			<path style="fill:#FFFFFF;" d="M414.151,108.486h-6.121c-1.193,0-2.16,0.967-2.16,2.16v25.463c0,1.193,0.967,2.16,2.16,2.16
				h6.121c1.193,0,2.16-0.967,2.16-2.16v-25.463C416.311,109.453,415.344,108.486,414.151,108.486z"/>
			<path style="fill:#65B8D1;" d="M437.944,110.564l-5.717-2.188c-1.114-0.426-2.363,0.131-2.79,1.245l-9.103,23.781
				c-0.426,1.114,0.131,2.363,1.245,2.79l5.717,2.188c1.114,0.427,2.363-0.131,2.79-1.245l9.103-23.781
				C439.616,112.24,439.058,110.991,437.944,110.564z"/>
		</g>
		<g>
			<path style="fill:#8BDEF2;" d="M286.256,390.467l-21.225,8.625l-26.162-64.383c-2.382-5.861,0.439-12.543,6.3-14.925l0,0
				c5.861-2.382,12.543,0.439,14.925,6.3L286.256,390.467z"/>
			
				<line style="opacity:0.25;fill:none;stroke:#000000;stroke-width:1.2855;stroke-linecap:round;stroke-miterlimit:10;" x1="245.168" y1="319.784" x2="272.844" y2="385.513"/>
			<path style="fill:#65B8D1;" d="M276.302,398.536l-17.44-6.762c-1.083-0.42-1.62-1.638-1.201-2.721l13.697-35.326
				c2.287-5.899,8.923-8.826,14.822-6.539l0,0c5.899,2.287,8.826,8.923,6.539,14.822l-13.697,35.326
				C278.603,398.419,277.385,398.956,276.302,398.536z"/>
			
				<line style="opacity:0.25;fill:none;stroke:#000000;stroke-width:1.2855;stroke-linecap:round;stroke-miterlimit:10;" x1="286.181" y1="347.189" x2="269.771" y2="387.728"/>
			<path style="fill:#65B8D1;" d="M295.301,390.894l-1.954,10.908l-3.612,20.138c-0.514,3.297-3.355,5.727-6.691,5.727h-26.546
				c-3.336,0-6.177-2.43-6.691-5.727l-5.566-31.046c-0.643-4.114,2.539-7.822,6.698-7.822h37.666
				C292.762,383.071,295.944,386.78,295.301,390.894z"/>
			<path style="opacity:0.25;" d="M293.347,401.802l-3.612,20.138c-0.514,3.297-3.355,5.727-6.691,5.727h-19.161l-3.233-18.043
				c-0.643-4.114,2.539-7.823,6.698-7.823H293.347z"/>
			<path style="fill:#8BDEF2;" d="M292.987,392.845h-46.432c-3.11,0-5.63-2.521-5.63-5.631v-3.402c0-3.11,2.521-5.631,5.63-5.631
				h46.432c3.11,0,5.631,2.521,5.631,5.631v3.402C298.618,390.324,296.097,392.845,292.987,392.845z"/>
		</g>
		<g>
			<path style="fill:#8BDEF2;" d="M563.182,373.963h-22.934l-0.096-2.494l-1.723-44.75l-0.36-9.397
				c-0.244-6.318,4.686-11.641,11.004-11.885c0.148-0.007,0.302-0.007,0.45-0.007c6.125,0,11.203,4.84,11.441,11.011l0.398,10.278
				l0.238,6.286l0.514,13.299l0.623,16.185L563.182,373.963z"/>
			
				<line style="opacity:0.25;fill:none;stroke:#000000;stroke-width:1.2855;stroke-linecap:round;stroke-miterlimit:10;" x1="549.074" y1="305.438" x2="552.713" y2="373.963"/>
			<path style="fill:#65B8D1;" d="M582.228,353.813c0,2.668-0.926,5.348-2.822,7.52l-11.017,12.631h-30.409l2.173-2.494
				l11.615-13.305l10.349-11.859l0.026-0.032c4.159-4.769,11.396-5.264,16.159-1.099
				C580.897,347.436,582.228,350.618,582.228,353.813z"/>
			
				<line style="opacity:0.25;fill:none;stroke:#000000;stroke-width:1.2855;stroke-linecap:round;stroke-miterlimit:10;" x1="578.304" y1="345.171" x2="552.713" y2="373.963"/>
		</g>
		<g>
			<path style="fill:#8BDEF2;" d="M295.329,262.944h-54.018c-2.175,0-3.939-1.764-3.939-3.939v-63.129
				c0-2.175,1.764-3.939,3.939-3.939h54.018c2.175,0,3.939,1.763,3.939,3.939v63.129
				C299.268,261.181,297.504,262.944,295.329,262.944z"/>
			<path style="fill:#0D5375;" d="M249.074,260.373c-0.754,0-1.368-0.613-1.368-1.368v-63.129c0-0.754,0.614-1.368,1.368-1.368
				h46.255c0.754,0,1.368,0.613,1.368,1.368v63.129c0,0.754-0.614,1.368-1.368,1.368H249.074z"/>
			<polygon style="opacity:0.25;fill:#FFFFFF;" points="249.058,262.944 241.718,262.944 260.942,191.938 268.282,191.938 			"/>
			<polygon style="opacity:0.25;fill:#FFFFFF;" points="268.583,262.944 253.713,262.944 272.938,191.938 287.808,191.938 			"/>
			<path style="fill:#65B8D1;" d="M242.346,262.944h-18.118c-1.324,0-2.396-1.073-2.396-2.396v-66.214
				c0-1.323,1.073-2.396,2.396-2.396h18.118c1.324,0,2.396,1.073,2.396,2.396v66.214
				C244.742,261.871,243.669,262.944,242.346,262.944z"/>
			<path style="opacity:0.25;" d="M240.204,247.313h-3.971c-0.675,0-1.222-0.547-1.222-1.222l0,0c0-0.675,0.547-1.222,1.222-1.222
				h3.971c0.675,0,1.222,0.547,1.222,1.222l0,0C241.426,246.766,240.879,247.313,240.204,247.313z"/>
			<path style="opacity:0.25;" d="M229.503,247.313h-3.971c-0.675,0-1.222-0.547-1.222-1.222l0,0c0-0.675,0.547-1.222,1.222-1.222
				h3.971c0.675,0,1.222,0.547,1.222,1.222l0,0C230.725,246.766,230.178,247.313,229.503,247.313z"/>
			<g>
				<path style="fill:#55C6FF;" d="M274.444,262.944c-5.277,1.69-5.894,10.355-6.492,18.75c-0.624,8.703-1.208,16.918-6.46,19.18
					c-0.379,0.167-0.829,0.289-1.343,0.289c-0.797,0-1.735-0.309-2.706-1.273c-5.772-5.695-8.324-30.718-0.456-49.615
					c2.867-6.891,7.803-14.61,16.198-19.2c-0.257,0.649-0.508,1.298-0.752,1.948c-7.27,4.493-11.647,11.473-14.263,17.747
					c-7.546,18.133-5.232,42.873,0.173,48.208c0.881,0.868,1.742,1.105,2.642,0.72c4.532-1.961,5.117-10.162,5.682-18.094
					c0.546-7.598,1.099-15.401,5.078-18.66H274.444z"/>
				<path style="fill:#55C6FF;" d="M291.323,227.643c-0.006,0.354-0.315,0.63-0.649,0.636h-0.437c-0.983,0-1.935,0.032-2.86,0.103
					c0.231-0.45,0.463-0.894,0.707-1.331c0.701-0.039,1.414-0.058,2.147-0.058h0.456C291.04,227.001,291.323,227.29,291.323,227.643
					z"/>
				<path style="fill:#55C6FF;" d="M366.071,260.572c0,0.354-0.289,0.643-0.643,0.649c-0.488,0-32.119,0.225-58.048,0.63
					c-14.212,0.219-26.714,0.495-31.438,0.816c-0.534,0.039-1.035,0.129-1.498,0.276h-2.7c1.093-0.894,2.436-1.446,4.114-1.562
					c4.564-0.309,16.352-0.572,29.934-0.791c26.218-0.424,59.128-0.656,59.63-0.656C365.762,259.91,366.064,260.219,366.071,260.572
					z"/>
			</g>
			<g>
				<path style="fill:#003C54;" d="M274.238,228.479c-0.219,0.521-0.431,1.041-0.643,1.562c-7.707,2.661-18.319,9.031-20.292,24.123
					c-1.53,11.634-0.508,21.205,0.315,28.899c0.939,8.78,1.562,14.584-2.494,17.226c-2.076,1.356-5.586,3.207-9.243,3.207
					c-1.337,0-2.7-0.251-4.017-0.861c-4.409-2.044-7.218-7.61-8.343-16.551c-2.063-16.352-0.218-31.47,4.589-37.628
					c1.369-1.755,2.944-2.745,4.673-2.957c0.354-0.038,0.675,0.212,0.714,0.566c0.045,0.354-0.206,0.669-0.559,0.713
					c-1.375,0.167-2.661,0.996-3.812,2.468c-4.609,5.907-6.351,20.646-4.332,36.676c1.067,8.472,3.625,13.704,7.61,15.549
					c4.352,2.012,9.397-0.553,12.02-2.256c3.394-2.218,2.809-7.707,1.915-16.018c-0.829-7.758-1.857-17.413-0.315-29.201
					C254.184,237.529,266.165,231.018,274.238,228.479z"/>
			</g>
			<path style="fill:#0D5375;" d="M233.287,209.026L233.287,209.026c-3.332,0-6.032-2.701-6.032-6.032l0,0
				c0-3.331,2.701-6.032,6.032-6.032l0,0c3.331,0,6.032,2.701,6.032,6.032l0,0C239.319,206.325,236.618,209.026,233.287,209.026z"/>
			<path style="fill:#0D5375;" d="M235.272,212.462h-3.971c-0.675,0-1.222-0.547-1.222-1.222l0,0c0-0.675,0.547-1.222,1.222-1.222
				h3.971c0.675,0,1.222,0.547,1.222,1.222l0,0C236.494,211.915,235.947,212.462,235.272,212.462z"/>
			<path style="fill:#0D5375;" d="M235.272,215.899h-3.971c-0.675,0-1.222-0.547-1.222-1.222l0,0c0-0.675,0.547-1.222,1.222-1.222
				h3.971c0.675,0,1.222,0.547,1.222,1.222l0,0C236.494,215.352,235.947,215.899,235.272,215.899z"/>
			<path style="opacity:0.25;" d="M240.943,219.974h-15.312c-0.675,0-1.222-0.547-1.222-1.222l0,0c0-0.675,0.547-1.222,1.222-1.222
				h15.312c0.675,0,1.222,0.547,1.222,1.222l0,0C242.165,219.427,241.618,219.974,240.943,219.974z"/>
			<path style="opacity:0.25;" d="M240.943,225.759h-15.312c-0.675,0-1.222-0.547-1.222-1.222l0,0c0-0.675,0.547-1.222,1.222-1.222
				h15.312c0.675,0,1.222,0.547,1.222,1.222l0,0C242.165,225.212,241.618,225.759,240.943,225.759z"/>
			<path style="opacity:0.25;" d="M240.943,231.544h-15.312c-0.675,0-1.222-0.547-1.222-1.222l0,0c0-0.675,0.547-1.222,1.222-1.222
				h15.312c0.675,0,1.222,0.547,1.222,1.222l0,0C242.165,230.997,241.618,231.544,240.943,231.544z"/>
			<path style="opacity:0.25;" d="M240.943,237.329h-15.312c-0.675,0-1.222-0.547-1.222-1.222l0,0c0-0.675,0.547-1.222,1.222-1.222
				h15.312c0.675,0,1.222,0.547,1.222,1.222l0,0C242.165,236.782,241.618,237.329,240.943,237.329z"/>
			<path style="fill:#0D5375;" d="M227.359,241.234c0,0.664-0.538,1.203-1.203,1.203c-0.664,0-1.203-0.539-1.203-1.203
				c0-0.664,0.538-1.203,1.203-1.203C226.82,240.031,227.359,240.57,227.359,241.234z"/>
			<path style="fill:#0D5375;" d="M231.769,241.234c0,0.664-0.539,1.203-1.203,1.203c-0.664,0-1.203-0.539-1.203-1.203
				c0-0.664,0.539-1.203,1.203-1.203C231.23,240.031,231.769,240.57,231.769,241.234z"/>
			<path style="fill:#0D5375;" d="M236.179,241.234c0,0.664-0.538,1.203-1.203,1.203c-0.664,0-1.203-0.539-1.203-1.203
				c0-0.664,0.539-1.203,1.203-1.203C235.641,240.031,236.179,240.57,236.179,241.234z"/>
			<path style="fill:#0D5375;" d="M240.589,241.234c0,0.664-0.538,1.203-1.203,1.203c-0.664,0-1.203-0.539-1.203-1.203
				c0-0.664,0.538-1.203,1.203-1.203C240.051,240.031,240.589,240.57,240.589,241.234z"/>
		</g>
		<g>
			<path style="fill:#16374C;" d="M347.037,234.99h-62.316c-1.329,0-2.406-1.077-2.406-2.406V164.77
				c0-1.329,1.077-2.406,2.406-2.406h62.316c1.329,0,2.406,1.077,2.406,2.406v67.815C349.442,233.913,348.365,234.99,347.037,234.99
				z"/>
			<path style="fill:#0C1C28;" d="M346.235,164.768v67.819c0,1.324-1.08,2.404-2.404,2.404h-62.316c-1.331,0-2.404-1.08-2.404-2.404
				v-67.819c0-1.324,1.073-2.404,2.404-2.404h62.316C345.155,162.364,346.235,163.443,346.235,164.768z"/>
			<path style="opacity:0.25;" d="M334.755,177.25v57.74h-53.241c-1.331,0-2.404-1.08-2.404-2.404v-57.734h53.241
				C333.675,174.853,334.755,175.926,334.755,177.25z"/>
			<path style="opacity:0.25;" d="M303.966,206.516c0,6.376-1.967,11.795-4.699,13.768c-0.72,0.521-1.485,0.803-2.288,0.803
				c-0.759,0-1.491-0.257-2.179-0.726c-2.796-1.909-4.808-7.385-4.808-13.845c0-8.054,3.124-14.578,6.987-14.578
				C300.836,191.938,303.966,198.462,303.966,206.516z"/>
			<path style="fill:#00B3F9;" d="M301.805,207.251c0,3.75-1.157,6.937-2.763,8.098c-0.423,0.306-0.873,0.473-1.346,0.473
				c-0.446,0-0.877-0.151-1.281-0.427c-1.645-1.123-2.828-4.344-2.828-8.143c0-4.737,1.837-8.574,4.109-8.574
				C299.964,198.677,301.805,202.514,301.805,207.251z"/>
			<path style="fill:#008EBA;" d="M300.63,207.251c0,3.75-1.157,6.937-2.763,8.098c-0.423,0.306-0.873,0.473-1.346,0.473
				c-0.446,0-0.877-0.151-1.282-0.427c-1.645-1.123-2.828-4.344-2.828-8.143c0-4.737,1.837-8.574,4.109-8.574
				C298.789,198.677,300.63,202.514,300.63,207.251z"/>
			<path style="fill:#00B3F9;" d="M307.9,262.944h-43.837c0,0,0.791-4.352,2.404-10.715c0.347-1.376,0.739-2.841,1.163-4.377
				c1.26-4.532,2.854-9.674,4.802-14.829c0.244-0.649,0.495-1.298,0.752-1.948v-0.006c0.135-0.341,0.27-0.688,0.411-1.029
				c0.212-0.521,0.424-1.041,0.643-1.562c3.683-8.716,8.388-16.937,14.173-21.661c0.829-0.681,1.678-1.286,2.552-1.813
				c1.504-0.906,3.079-1.568,4.718-1.947c3.87-0.9,2.899,7.951,1.755,9.712c-0.566,0.868-5.252,6.762-9.352,14.282
				c-0.244,0.437-0.476,0.881-0.707,1.331c-3.857,7.379-6.923,16.076-5.059,23.101c0.058,0.225,0.302,0.463,0.694,0.714
				c3.317,2.128,17.393,5.11,22.78,8.395c0.688,0.418,1.228,0.836,1.588,1.26C307.694,262.218,307.874,262.578,307.9,262.944z"/>
			<path style="opacity:0.25;" d="M297.436,212.77c-1.144,1.755-19.039,23.924-15.118,38.714c0.058,0.225,0.302,0.463,0.694,0.714
				c-2.635-0.932-5.116-2.603-4.744-5.598c0.302-19.701,16.191-34.671,14.97-38.438c-0.54-1.658-1.44-2.61-2.275-3.156
				c1.504-0.906,3.079-1.568,4.718-1.947C299.551,202.158,298.58,211.008,297.436,212.77z"/>
			<path style="opacity:0.25;" d="M294.305,262.944h-30.242c0,0,0.791-4.352,2.404-10.715c1.858,5.419,6.794,7.765,14.089,8.35
				C289.266,261.267,294.305,262.944,294.305,262.944z"/>
			<path style="opacity:0.25;fill:#FFFFFF;" d="M284.073,217.603c-9.166,9.442-11.152,28.076-13.138,29.876
				c-1.35,1.221-2.629,0.784-3.304,0.373c3.773-13.614,10.606-32.736,20.781-41.035C289.35,209.26,288.559,212.982,284.073,217.603z
				"/>
			<path style="fill:#00B3F9;" d="M291.109,229.149h-0.518c-0.741,0-1.342-0.601-1.342-1.342v-0.518
				c0-0.741,0.601-1.342,1.342-1.342h0.518c0.741,0,1.342,0.601,1.342,1.342v0.518C292.451,228.548,291.85,229.149,291.109,229.149z
				"/>
			<path style="fill:#00B3F9;" d="M307.515,229.149h-0.696c-0.692,0-1.253-0.561-1.253-1.253V227.2c0-0.692,0.561-1.253,1.253-1.253
				h0.696c0.692,0,1.253,0.561,1.253,1.253v0.696C308.768,228.588,308.207,229.149,307.515,229.149z"/>
			<path style="fill:#00B3F9;" d="M312.441,229.149h-0.696c-0.692,0-1.253-0.561-1.253-1.253V227.2c0-0.692,0.561-1.253,1.253-1.253
				h0.696c0.692,0,1.253,0.561,1.253,1.253v0.696C313.694,228.588,313.133,229.149,312.441,229.149z"/>
			<path style="fill:#00B3F9;" d="M317.367,229.149h-0.697c-0.692,0-1.253-0.561-1.253-1.253V227.2c0-0.692,0.561-1.253,1.253-1.253
				h0.697c0.692,0,1.253,0.561,1.253,1.253v0.696C318.62,228.588,318.059,229.149,317.367,229.149z"/>
			<rect x="290.678" y="181.036" style="fill:#00B3F9;" width="14.663" height="4.811"/>
		</g>
	</g>
</g>

</svg>