<?xml version="1.0" encoding="utf-8"?>
<!-- Generator: Adobe Illustrator 27.5.0, SVG Export Plug-In . SVG Version: 6.00 Build 0)  -->
<svg version="1.1" xmlns="http://www.w3.org/2000/svg" xmlns:xlink="http://www.w3.org/1999/xlink" x="0px" y="0px"
	 viewBox="0 0 500 500" style="enable-background:new 0 0 500 500;" xml:space="preserve">
<g id="Background_Complete">
	<g>
		<!-- <g>
			<rect y="382.398" style="fill:#EBEBEB;" width="500" height="0.25"/>
			<path style="fill:#EBEBEB;" d="M237.014,337.8H43.915c-3.147,0-5.708-2.561-5.708-5.708V60.66c0-3.147,2.561-5.708,5.708-5.708
				h193.099c3.146,0,5.707,2.561,5.707,5.708v271.432C242.721,335.239,240.16,337.8,237.014,337.8z M43.915,55.203
				c-3.01,0-5.458,2.448-5.458,5.458v271.432c0,3.01,2.448,5.458,5.458,5.458h193.099c3.009,0,5.457-2.448,5.457-5.458V60.66
				c0-3.009-2.448-5.458-5.457-5.458H43.915z"/>
			<path style="fill:#EBEBEB;" d="M453.31,337.8H260.212c-3.147,0-5.707-2.561-5.707-5.708V60.66c0-3.147,2.561-5.708,5.707-5.708
				H453.31c3.148,0,5.708,2.561,5.708,5.708v271.432C459.019,335.239,456.458,337.8,453.31,337.8z M260.212,55.203
				c-3.009,0-5.457,2.448-5.457,5.458v271.432c0,3.01,2.448,5.458,5.457,5.458H453.31c3.01,0,5.458-2.448,5.458-5.458V60.66
				c0-3.009-2.448-5.458-5.458-5.458H260.212z"/>
		</g> -->
		<!-- <g>
			<rect x="418.333" y="391.922" style="fill:#EBEBEB;" width="31.568" height="0.25"/>
			<rect x="301.926" y="389.208" style="fill:#EBEBEB;" width="33.408" height="0.25"/>
			<rect x="396.586" y="401.208" style="fill:#EBEBEB;" width="62.433" height="0.25"/>
			<rect x="52.459" y="399.528" style="fill:#EBEBEB;" width="19.235" height="0.25"/>
			<rect x="80.597" y="399.528" style="fill:#EBEBEB;" width="30.292" height="0.25"/>
			<rect x="189.578" y="395.306" style="fill:#EBEBEB;" width="54.556" height="0.25"/>
		</g> -->
	</g>
	<g>
		<!-- <g>
			<g>
				
					<rect x="277.249" y="91.251" transform="matrix(-1 -1.224647e-16 1.224647e-16 -1 702.8809 339.0832)" style="fill:#E6E6E6;" width="148.384" height="156.582"/>
				<path style="fill:#E6E6E6;" d="M261.347,86.183h173.891c0.814,0,1.473,0.66,1.473,1.473l0,0c0,0.813-0.659,1.473-1.473,1.473
					H261.347c-0.814,0-1.473-0.66-1.473-1.473l0,0C259.874,86.843,260.533,86.183,261.347,86.183z"/>
				
					<rect x="270.952" y="91.251" transform="matrix(-1 -1.224647e-16 1.224647e-16 -1 693.6425 339.0832)" style="fill:#F0F0F0;" width="151.738" height="156.582"/>
				
					<rect x="277.249" y="247.832" transform="matrix(-1 -1.224647e-16 1.224647e-16 -1 702.8809 501.5149)" style="fill:#E6E6E6;" width="148.384" height="5.85"/>
				
					<rect x="260.463" y="247.832" transform="matrix(-1 -1.224647e-16 1.224647e-16 -1 672.664 501.5149)" style="fill:#F0F0F0;" width="151.738" height="5.85"/>
				
					<rect x="277.345" y="102.487" transform="matrix(-1.836970e-16 1 -1 -1.836970e-16 516.363 -177.2797)" style="fill:#FAFAFA;" width="138.952" height="134.109"/>
				<polygon style="fill:#FFFFFF;" points="383.432,239.018 331.696,100.065 307.273,100.065 359.009,239.018 				"/>
				<polygon style="fill:#FFFFFF;" points="353.763,239.018 302.027,100.065 292.506,100.065 344.242,239.018 				"/>
				
					<rect x="210.85" y="168.982" transform="matrix(-1.836970e-16 1 -1 -1.836970e-16 449.8683 -110.785)" style="fill:#E6E6E6;" width="138.952" height="1.119"/>
			</g>
			<g style="opacity:0.6;">
				<polygon style="fill:#F0F0F0;" points="314.619,225.181 264.119,225.184 266.988,83.352 317.488,83.349 				"/>
				<polygon style="fill:#E6E6E6;" points="334.292,225.18 294.947,225.183 297.816,83.35 337.16,83.348 				"/>
				<polygon style="fill:#F0F0F0;" points="365.12,225.178 314.619,225.181 317.488,83.349 367.989,83.346 				"/>
				<polygon style="fill:#E6E6E6;" points="384.792,225.177 345.448,225.18 348.317,83.347 387.661,83.345 				"/>
				<polygon style="fill:#F0F0F0;" points="415.621,225.175 365.12,225.178 367.989,83.346 418.489,83.343 				"/>
			</g>
		</g> -->
		<!-- <g>
			<g>
				
					<rect x="77.799" y="83.2" transform="matrix(-1.836970e-16 1 -1 -1.836970e-16 303.8329 -2.4321)" style="fill:#EBEBEB;" width="150.667" height="135"/>
				
					<rect x="145.91" y="150.089" transform="matrix(-1.836970e-16 1 -1 -1.836970e-16 371.9441 -70.5434)" style="fill:#E0E0E0;" width="150.667" height="1.222"/>
				
					<rect x="95.633" y="85.367" transform="matrix(-1 -1.224647e-16 1.224647e-16 -1 306.2654 301.4006)" style="fill:#F5F5F5;" width="115" height="130.667"/>
			</g>
			
				<rect x="157.384" y="175.034" transform="matrix(-1 -1.224647e-16 1.224647e-16 -1 347.1528 395.4007)" style="fill:#FFFFFF;" width="32.385" height="45.333"/>
			<polygon style="fill:#FFFFFF;" points="118.419,224.327 150.804,224.327 153.133,178.993 120.748,178.993 			"/>
			<polygon style="fill:#FFFFFF;" points="90.21,168.188 122.595,168.188 124.924,122.854 92.539,122.854 			"/>
			
				<rect x="190.071" y="92.534" transform="matrix(-0.999 -0.0438 0.0438 -0.999 400.0537 228.7347)" style="fill:#FFFFFF;" width="24.928" height="34.895"/>
			
				<rect x="90.962" y="78.534" transform="matrix(-0.999 -0.0438 0.0438 -0.999 202.5462 196.4038)" style="fill:#FFFFFF;" width="24.928" height="34.895"/>
			
				<rect x="190.071" y="133.253" transform="matrix(0.9999 0.0132 -0.0132 0.9999 2.0078 -2.6616)" style="fill:#FFFFFF;" width="24.928" height="34.895"/>
			
				<rect x="130.972" y="91.738" transform="matrix(-0.9996 0.0289 -0.0289 -0.9996 318.4267 252.8108)" style="fill:#FFFFFF;" width="52.824" height="73.944"/>
		</g> -->
		<!-- <g>
			<g>
				
					<rect x="21.01" y="285.441" transform="matrix(-1.836970e-16 1 -1 -1.836970e-16 403.4084 222.9892)" style="fill:#F0F0F0;" width="138.399" height="55.515"/>
				
					<rect x="69.839" y="243.13" transform="matrix(-1.836970e-16 1 -1 -1.836970e-16 358.0503 177.631)" style="fill:#E6E6E6;" width="40.74" height="49.42"/>
				
					<rect x="69.839" y="287.527" transform="matrix(-1.836970e-16 1 -1 -1.836970e-16 402.4472 222.028)" style="fill:#E6E6E6;" width="40.74" height="49.42"/>
				
					<rect x="69.84" y="331.924" transform="matrix(-1.836970e-16 1 -1 -1.836970e-16 446.8443 266.4251)" style="fill:#E6E6E6;" width="40.74" height="49.42"/>
				
					<rect x="54.849" y="258.121" transform="matrix(-1.836970e-16 1 -1 -1.836970e-16 343.0594 192.6219)" style="fill:#E0E0E0;" width="40.74" height="19.439"/>
				
					<rect x="54.849" y="302.518" transform="matrix(-1.836970e-16 1 -1 -1.836970e-16 387.4564 237.0189)" style="fill:#E0E0E0;" width="40.74" height="19.439"/>
				
					<rect x="54.849" y="346.915" transform="matrix(-1.836970e-16 1 -1 -1.836970e-16 431.8535 281.416)" style="fill:#E0E0E0;" width="40.74" height="19.439"/>
				
					<rect x="56.304" y="305.662" transform="matrix(-1.836970e-16 1 -1 -1.836970e-16 438.7026 187.6951)" style="fill:#F5F5F5;" width="138.399" height="15.074"/>
			</g>
			<g>
				
					<rect x="80.361" y="285.441" transform="matrix(-1.836970e-16 1 -1 -1.836970e-16 462.7592 163.6384)" style="fill:#F0F0F0;" width="138.399" height="55.515"/>
				
					<rect x="129.19" y="243.13" transform="matrix(-1.836970e-16 1 -1 -1.836970e-16 417.4011 118.2803)" style="fill:#E6E6E6;" width="40.74" height="49.42"/>
				
					<rect x="129.19" y="287.527" transform="matrix(-1.836970e-16 1 -1 -1.836970e-16 461.7981 162.6772)" style="fill:#E6E6E6;" width="40.74" height="49.42"/>
				
					<rect x="129.19" y="331.924" transform="matrix(-1.836970e-16 1 -1 -1.836970e-16 506.1951 207.0743)" style="fill:#E6E6E6;" width="40.74" height="49.42"/>
				
					<rect x="114.199" y="258.121" transform="matrix(-1.836970e-16 1 -1 -1.836970e-16 402.4102 133.2711)" style="fill:#E0E0E0;" width="40.74" height="19.439"/>
				
					<rect x="114.199" y="302.518" transform="matrix(-1.836970e-16 1 -1 -1.836970e-16 446.8072 177.6681)" style="fill:#E0E0E0;" width="40.74" height="19.439"/>
				
					<rect x="114.199" y="346.915" transform="matrix(-1.836970e-16 1 -1 -1.836970e-16 491.2043 222.0652)" style="fill:#E0E0E0;" width="40.74" height="19.439"/>
				
					<rect x="115.655" y="305.662" transform="matrix(-1.836970e-16 1 -1 -1.836970e-16 498.0535 128.3442)" style="fill:#F5F5F5;" width="138.399" height="15.074"/>
			</g>
			<path style="fill:#F0F0F0;" d="M106.026,324.603c0,4.421-5.714,8.005-12.762,8.005c-7.048,0-12.762-3.584-12.762-8.005H106.026z"
				/>
			<path style="fill:#F0F0F0;" d="M106.026,318.619c0,4.421-5.714,8.005-12.762,8.005c-7.048,0-12.762-3.584-12.762-8.005H106.026z"
				/>
			<path style="fill:#FAFAFA;" d="M166.997,280.206c0,4.421-7.144,8.005-15.956,8.005c-8.812,0-15.956-3.584-15.956-8.005H166.997z"
				/>
			<path style="fill:#FAFAFA;" d="M166.997,274.222c0,4.421-7.144,8.005-15.956,8.005c-8.812,0-15.956-3.584-15.956-8.005H166.997z"
				/>
			
				<rect x="128.205" y="342.138" transform="matrix(-1 -1.224647e-16 1.224647e-16 -1 296.5379 719.1427)" style="fill:#F0F0F0;" width="40.128" height="34.867"/>
			<rect x="168.333" y="342.138" style="fill:#E0E0E0;" width="5.938" height="34.867"/>
			
				<rect x="68.854" y="253.344" transform="matrix(-1 -1.224647e-16 1.224647e-16 -1 177.8362 541.5546)" style="fill:#F0F0F0;" width="40.128" height="34.867"/>
			<rect x="108.982" y="253.344" style="fill:#E0E0E0;" width="5.938" height="34.867"/>
		</g> -->
		<!-- <g>
			
				<rect x="267.623" y="309.142" transform="matrix(-1 -1.224647e-16 1.224647e-16 -1 543.0319 691.539)" style="fill:#E6E6E6;" width="7.786" height="73.255"/>
			
				<rect x="265.539" y="309.142" transform="matrix(-1 -1.224647e-16 1.224647e-16 -1 535.6646 691.539)" style="fill:#F0F0F0;" width="4.586" height="73.255"/>
			<rect x="264.119" y="309.142" style="fill:#F0F0F0;" width="110.573" height="8.114"/>
			
				<rect x="424.133" y="309.142" transform="matrix(-1 -1.224647e-16 1.224647e-16 -1 856.0523 691.539)" style="fill:#E6E6E6;" width="7.786" height="73.255"/>
			
				<rect x="422.673" y="309.142" transform="matrix(-1 -1.224647e-16 1.224647e-16 -1 849.933 691.539)" style="fill:#F0F0F0;" width="4.586" height="73.255"/>
			<rect x="378.024" y="309.142" style="fill:#E6E6E6;" width="55.287" height="8.114"/>
			
				<rect x="375.355" y="309.142" transform="matrix(-1 -1.224647e-16 1.224647e-16 -1 758.4969 691.539)" style="fill:#E6E6E6;" width="7.786" height="73.255"/>
			
				<rect x="373.272" y="309.142" transform="matrix(-1 -1.224647e-16 1.224647e-16 -1 751.1295 691.539)" style="fill:#F0F0F0;" width="4.586" height="73.255"/>
		</g> -->
	</g>
</g>
<g id="Background_Simple" style="display:none;">
	<g style="display:inline;">
		<g>
			<path style="fill:#407BFF;" d="M57.967,278.185c12.345,14.052,43.191,27.572,62.872,26.229
				c25.131-1.714,28.662-18.796,48.203-24.885c52.767-16.443,94.097,14.422,139.055,38.972
				c99.637,54.409,192.841-30.926,104.414-120.967c-53.154-54.123-178.211-115.892-218.998-19.275
				c-17.629,41.76,4.746,51.053-51.669,46.596C119.582,223.097,2.05,214.539,57.967,278.185z"/>
		</g>
		<path style="opacity:0.9;fill:#FFFFFF;" d="M57.967,278.185c12.345,14.052,43.191,27.572,62.872,26.229
			c25.131-1.714,28.662-18.796,48.203-24.885c52.767-16.443,94.097,14.422,139.055,38.972
			c99.637,54.409,192.841-30.926,104.414-120.967c-53.154-54.123-178.211-115.892-218.998-19.275
			c-17.629,41.76,4.746,51.053-51.669,46.596C119.582,223.097,2.05,214.539,57.967,278.185z"/>
	</g>
</g>
<g id="Shadow_1_">
	<ellipse id="_x3C_Path_x3E__97_" style="fill:#F5F5F5;" cx="250" cy="416.238" rx="193.889" ry="11.323"/>
</g>
<g id="Character_1_">
	<g>
		<g>
			<g>
				<polygon style="fill:#263238;" points="298.811,405.635 284.666,404.003 284.666,322.893 272.551,322.893 272.551,404.003 
					258.407,405.635 257.179,409.657 300.038,409.657 				"/>
				<polygon style="opacity:0.4;fill:#407BFF;" points="298.811,405.635 284.666,404.003 284.666,322.893 272.551,322.893 
					272.551,404.003 258.407,405.635 257.179,409.657 300.038,409.657 				"/>
			</g>
			<g>
				<g>
					<g>
						<path style="fill:#407BFF;" d="M274.95,213.747c20.997,0,41.994,0,62.991,0c-10.797,34.162-16.284,68.963-16.259,103.125
							c-20.997,0-41.994,0-62.991,0C258.666,282.71,264.153,247.909,274.95,213.747z"/>
						<path style="opacity:0.3;" d="M274.95,213.747c20.997,0,41.994,0,62.991,0c-10.797,34.162-16.284,68.963-16.259,103.125
							c-20.997,0-41.994,0-62.991,0C258.666,282.71,264.153,247.909,274.95,213.747z"/>
					</g>
					<path style="fill:#407BFF;" d="M271.168,213.747c20.997,0,41.994,0,62.992,0c-10.797,34.162-16.284,68.963-16.259,103.125
						c-20.997,0-41.994,0-62.991,0C254.885,282.71,260.371,247.909,271.168,213.747z"/>
				</g>
				<g>
					<path style="fill:#407BFF;" d="M307.271,326.548h-89.18l0,0c3.746-8.156,10.565-13.16,17.931-13.16h65.204L307.271,326.548z"/>
					<g>
						<path style="fill:#407BFF;" d="M325.386,326.548h-43.06l0,0c3.746-8.156,10.565-13.16,17.931-13.16h15.239
							C322.864,313.389,326.511,317.644,325.386,326.548L325.386,326.548z"/>
						<path style="opacity:0.3;" d="M325.386,326.548h-43.06l0,0c3.746-8.156,10.565-13.16,17.931-13.16h15.239
							C322.864,313.389,326.511,317.644,325.386,326.548L325.386,326.548z"/>
					</g>
				</g>
			</g>
		</g>
		<g>
			<g>
				<g>
					<polygon style="fill:#FFC3BD;" points="237.446,401.311 229.377,402.371 224.127,384.09 232.196,383.03 					"/>
					<path style="fill:#263238;" d="M228.365,400.262l9.056-1.19c0.329-0.043,0.608,0.153,0.67,0.472l1.38,7.107
						c0.143,0.737-0.462,1.532-1.223,1.619c-3.16,0.36-4.69,0.372-8.673,0.895c-2.45,0.322-10.876,1.499-14.288,1.517
						c-3.338,0.019-3.334-3.356-1.889-3.669c6.477-1.406,11.603-3.988,13.644-6.074C227.41,400.564,227.883,400.325,228.365,400.262
						z"/>
					<g>
						<polygon style="opacity:0.2;" points="232.199,383.035 224.127,384.095 226.837,393.517 234.909,392.457 						"/>
					</g>
					<path style="fill:#263238;" d="M263.924,284.102c0,0-63.259,4.529-60.706,27.702c3.669,33.309,18.04,77.046,18.04,77.046
						l14.676-2.521c0,0-6.184-40.351-9.447-66.305c15.785-6.544,58.58-0.278,63.607-13.906c4.112-11.149,1.889-22.016,1.889-22.016
						H263.924z"/>
					<path style="opacity:0.3;" d="M233.103,303.394c0,0,1.535,6.887,2.588,14.366c-0.044,0.011-0.099,0.011-0.143,0.022
						c-0.548,0.077-1.097,0.165-1.623,0.252c-0.274,0.055-0.559,0.099-0.822,0.154c-0.318,0.055-0.625,0.121-0.932,0.176
						c-1.349,0.274-2.61,0.592-3.761,0.965c-0.296,0.088-0.57,0.186-0.844,0.285c-0.373,0.121-0.735,0.263-1.075,0.406
						c0.373,2.972,1.65,6.909,1.661,10.33C214.077,313.724,225.678,303.394,233.103,303.394z"/>
					<polygon style="fill:#407BFF;" points="238.189,389.664 220.981,391.924 218.657,385.733 235.893,381.873 					"/>
					<path style="fill:#407BFF;" d="M225.692,402.041c0.744-0.098,1.548-0.359,2.11-0.57c0.07-0.026,0.118-0.091,0.122-0.166
						c0.004-0.075-0.036-0.145-0.102-0.179c-0.281-0.145-2.768-1.405-3.701-0.889c-0.217,0.119-0.344,0.323-0.368,0.589
						c-0.04,0.439,0.085,0.772,0.369,0.988C224.485,402.09,225.068,402.123,225.692,402.041z M227.25,401.267
						c-1.404,0.477-2.472,0.572-2.897,0.247c-0.176-0.134-0.249-0.348-0.221-0.654c0.013-0.141,0.068-0.234,0.173-0.291
						C224.807,400.291,226.237,400.794,227.25,401.267z"/>
					<path style="fill:#407BFF;" d="M227.761,401.481c0.029-0.004,0.058-0.015,0.083-0.032c0.053-0.037,0.084-0.099,0.081-0.165
						c-0.005-0.099-0.128-2.441-1.045-3.118c-0.247-0.182-0.527-0.235-0.831-0.158c-0.365,0.093-0.581,0.327-0.607,0.658
						c-0.07,0.904,1.353,2.428,2.218,2.801C227.693,401.482,227.727,401.486,227.761,401.481z M226.23,398.359
						c0.156-0.02,0.296,0.016,0.425,0.112c0.547,0.403,0.787,1.723,0.866,2.491c-0.779-0.5-1.747-1.673-1.7-2.266
						c0.008-0.113,0.053-0.252,0.322-0.32C226.173,398.368,226.202,398.363,226.23,398.359z"/>
				</g>
				<path style="fill:#FFC3BD;" d="M272.681,221.55c-0.706,3.136-1.546,6.056-2.397,9.057c-0.878,2.974-1.817,5.932-2.849,8.867
					c-1.016,2.94-2.133,5.86-3.328,8.761c-1.19,2.906-2.52,5.781-3.949,8.639l-0.254,0.507l-0.105,0.148
					c-1.082,1.526-2.139,2.419-3.154,3.18c-1.018,0.75-1.993,1.325-2.956,1.847c-1.922,1.044-3.82,1.786-5.701,2.473
					c-1.891,0.659-3.773,1.215-5.669,1.682c-1.91,0.46-3.772,0.852-5.772,1.119l-1.853-5.816l4.743-2.667
					c1.572-0.894,3.126-1.785,4.607-2.711c1.488-0.901,2.909-1.869,4.141-2.81c0.612-0.47,1.177-0.953,1.59-1.396
					c0.41-0.431,0.705-0.852,0.647-0.888l-0.359,0.655c1.083-2.661,2.084-5.385,3.054-8.144c0.939-2.774,1.853-5.568,2.723-8.39
					c0.853-2.827,1.702-5.662,2.513-8.512c0.832-2.824,1.596-5.751,2.351-8.499L272.681,221.55z"/>
				<g>
					<path style="fill:#407BFF;" d="M259.46,219.383c-6.611,7.587-10.983,18.202-10.983,18.202l17.282,10.41
						c4.991-6.082,11.216-22.174,11.472-27.605C277.624,212.049,266.583,211.208,259.46,219.383z"/>
					<path style="opacity:0.5;fill:#FFFFFF;" d="M259.46,219.383c-6.611,7.587-10.983,18.202-10.983,18.202l17.282,10.41
						c4.991-6.082,11.216-22.174,11.472-27.605C277.624,212.049,266.583,211.208,259.46,219.383z"/>
				</g>
				<path style="opacity:0.5;fill:#407BFF;" d="M265.55,227.123c-3.772,3.169-6.448,9.76-7.622,16.153l7.83,4.716
					c2.467-3.005,5.242-8.455,7.446-13.873C271.439,228.746,268.884,224.316,265.55,227.123z"/>
				<g>
					<polygon style="fill:#FFC3BD;" points="263.106,406.177 254.976,406.177 251.252,387.349 259.382,387.349 					"/>
					<path style="fill:#263238;" d="M254.724,404.2l9.134,0c0.332,0,0.583,0.231,0.603,0.555l0.443,7.227
						c0.046,0.749-0.657,1.459-1.423,1.446c-3.18-0.055-4.699-0.242-8.716-0.242c-2.471,0-10.854,0.257-14.266,0.257
						c-3.338,0-3.315-3.374-1.869-3.68c6.485-1.37,12.398-3.26,14.694-5.063C253.737,404.375,254.237,404.2,254.724,404.2z"/>
					<g>
						<polygon style="opacity:0.2;" points="259.385,387.354 251.251,387.354 253.175,397.059 261.308,397.059 						"/>
					</g>
					<path style="fill:#263238;" d="M279.852,284.102c0,0-53.605,4.527-52.286,27.804c1.444,25.49,22.08,82.81,22.08,82.81h14.891
						c0,0-6.733-51.861-9.995-77.814c15.108,0,46.454,2.845,51.481-10.784c4.112-11.149,1.432-21.601,1.432-21.601L279.852,284.102z
						"/>
					<polygon style="fill:#407BFF;" points="265.389,394.953 247.527,395.763 246.152,388.086 264.842,388.154 					"/>
					<path style="fill:#407BFF;" d="M251.842,405.616c0.751,0,1.582-0.155,2.167-0.291c0.073-0.017,0.129-0.075,0.143-0.148
						c0.014-0.074-0.017-0.148-0.078-0.191c-0.26-0.181-2.561-1.754-3.554-1.364c-0.23,0.09-0.383,0.275-0.441,0.537
						c-0.096,0.43-0.017,0.776,0.237,1.028C250.639,405.507,251.212,405.616,251.842,405.616z M253.487,405.051
						c-1.454,0.29-2.525,0.245-2.905-0.133c-0.157-0.156-0.201-0.377-0.134-0.677c0.031-0.138,0.098-0.223,0.209-0.266
						C251.192,403.765,252.544,404.45,253.487,405.051z"/>
					<path style="fill:#407BFF;" d="M253.965,405.33c0.029,0,0.059-0.007,0.087-0.021c0.058-0.03,0.096-0.087,0.102-0.153
						c0.008-0.099,0.191-2.438-0.63-3.228c-0.221-0.213-0.492-0.302-0.803-0.264c-0.374,0.045-0.618,0.249-0.687,0.573
						c-0.188,0.887,1.025,2.584,1.835,3.066C253.899,405.322,253.932,405.33,253.965,405.33z M252.854,402.035
						c0.157,0,0.291,0.055,0.407,0.167c0.49,0.471,0.556,1.811,0.534,2.583c-0.707-0.597-1.514-1.886-1.391-2.468
						c0.023-0.111,0.086-0.242,0.361-0.276C252.797,402.036,252.826,402.035,252.854,402.035z"/>
				</g>
				<path style="fill:#FFC3BD;" d="M238.538,262.218l-9.087-2.279l0.636,9.72c0,0,8.981,0.024,9.768-2.647L238.538,262.218z"/>
				<polygon style="fill:#FFC3BD;" points="222.539,264.681 224.682,270.781 230.087,269.66 229.451,259.939 				"/>
				<g>
					<path style="fill:#407BFF;" d="M263.973,284.518h43.482c0.307-3.882-0.592-16.515,0.077-32.603
						c0.45-10.802,1.612-23.161,4.321-35.465c0.198-0.878,0.395-1.744,0.603-2.621c0,0-2.204-0.45-5.362-0.91
						c-2.621-0.384-5.911-0.779-9.135-0.932c-5.549-0.263-13.587-0.438-18.478,0c-2.84,0.264-5.615,0.735-7.83,1.163
						c-2.829,0.57-4.496,1.058-4.496,1.058S256.439,238.799,263.973,284.518z"/>
					<path style="opacity:0.5;fill:#FFFFFF;" d="M263.973,284.518h43.482c0.307-3.882-0.592-16.515,0.077-32.603
						c0.45-10.802,1.612-23.161,4.321-35.465c0.198-0.878,0.395-1.744,0.603-2.621c0,0-2.204-0.45-5.362-0.91
						c-2.621-0.384-5.911-0.779-9.135-0.932c-5.549-0.263-13.587-0.438-18.478,0c-2.84,0.264-5.615,0.735-7.83,1.163
						c-2.829,0.57-4.496,1.058-4.496,1.058S256.439,238.799,263.973,284.518z"/>
				</g>
				<path style="opacity:0.5;fill:#407BFF;" d="M307.531,251.918c0.45-10.802,1.612-23.161,4.321-35.465
					c-2.906-0.252-7.874,0.033-8.696,4.727C302.267,226.224,302.205,238.006,307.531,251.918z"/>
				<path style="fill:#FFC3BD;" d="M315.222,219.456c0.413,0.771,0.706,1.353,1.036,2.021c0.319,0.648,0.609,1.301,0.901,1.951
					c0.579,1.303,1.129,2.613,1.652,3.935c1.031,2.648,1.941,5.351,2.69,8.123c0.76,2.768,1.373,5.603,1.784,8.509
					c0.422,2.906,0.627,5.888,0.528,8.939l-0.007,0.285l-0.031,0.566c-0.022,0.404-0.091,0.798-0.165,1.192
					c-0.162,0.777-0.414,1.517-0.723,2.165c-0.62,1.31-1.407,2.307-2.185,3.091c-1.569,1.549-3.102,2.453-4.568,3.22
					c-2.935,1.502-5.751,2.3-8.535,3.017c-2.79,0.667-5.546,1.145-8.304,1.486c-2.772,0.333-5.474,0.561-8.316,0.6l-0.822-6.049
					c4.942-1.46,10.017-3.006,14.616-4.892c2.292-0.921,4.508-2.003,6.223-3.139c0.845-0.557,1.54-1.183,1.805-1.583
					c0.127-0.194,0.13-0.295,0.056-0.205c-0.031,0.042-0.087,0.139-0.121,0.261c-0.026,0.063-0.029,0.129-0.048,0.199
					c-0.007,0.018-0.006,0.108-0.009,0.066l-0.015-0.216c-0.268-4.589-1.391-9.361-2.878-14.063
					c-0.761-2.35-1.603-4.697-2.531-7.016c-0.456-1.162-0.937-2.316-1.439-3.454l-0.765-1.69l-0.731-1.573L315.222,219.456z"/>
				<g>
					<path style="fill:#407BFF;" d="M312.455,213.829c-7.915-2.5-12.981,3.829-10.791,14.805c2.19,10.976,5.006,15.059,5.006,15.059
						l18.52-2.621C323.667,230.312,320.56,216.389,312.455,213.829z"/>
					<path style="opacity:0.5;fill:#FFFFFF;" d="M312.455,213.829c-7.915-2.5-12.981,3.829-10.791,14.805
						c2.19,10.976,5.006,15.059,5.006,15.059l18.52-2.621C323.667,230.312,320.56,216.389,312.455,213.829z"/>
				</g>
				<path style="fill:#FFC3BD;" d="M297.563,191.26l-4.946,4.102l-6.733,5.592c0.197,0.91,0.351,1.832,0.428,2.72
					c0.362,3.651-0.581,6.975-5.955,8.246c0,0-5.282,4.939,5.286,5.088c10.569,0.148,13.027-4.978,13.027-4.978
					C294.646,208.061,296.192,197.215,297.563,191.26z"/>
				<g>
					<path style="fill:#FFFFFF;" d="M297.924,209.071c0,0-5.529,5.773-12.809,7.94c2.81,0.508,4.722,3.09,4.767,5.585
						c5.229-1.554,11.436-9.417,11.27-10.877C299.57,210.624,297.924,209.071,297.924,209.071z"/>
				</g>
				<g>
					<path style="fill:#FFFFFF;" d="M282.773,210.698c0,0-4.938,4.146,2.342,6.313c-2.81,0.508-4.691,1.953-5.651,5.037
						c-3.949-4.706-1.68-9.477-0.809-10.661C280.573,211.226,282.773,210.698,282.773,210.698z"/>
				</g>
				<path style="opacity:0.2;" d="M285.884,200.954c0.198,0.91,0.351,1.832,0.428,2.72c2.511-0.505,5.867-3.181,6.218-5.747
					c0.132-0.965,0.154-1.897,0.088-2.566L285.884,200.954z"/>
				<path style="fill:#263238;" d="M279.434,172.994c-3.327,2.741-2.72,13.382,0.462,12.404
					C283.078,184.42,284.909,168.484,279.434,172.994z"/>
				<path style="fill:#FFC3BD;" d="M299.602,182.695c-1.719,7.906-2.323,12.606-6.993,16.214
					c-7.024,5.427-16.333,0.606-17.015-7.571c-0.614-7.36,2.301-19.052,10.618-21.291
					C294.406,167.842,301.322,174.789,299.602,182.695z"/>
				<path style="fill:#263238;" d="M296.966,188.119c-1.279-1.575-1.371-5.596-0.457-6.875c-1.371-1.097-2.737-4.613-1.675-5.985
					c-2.683-0.183-16.552,3.152-19.319-6.81c1.437,0.457,4.348,0,4.348,0s-2.82-4.691,2.176-6.092
					c0.731,2.376,6.762,2.616,9.748,2.498c6.136-0.244,13.125,2.309,10.296,7.067C306.593,173.872,307.324,182.566,296.966,188.119z
					"/>
				<path style="fill:#263238;" d="M301.018,171.602c0,0,3.061,0.64,2.467-3.267C305.976,170.483,304.376,174.39,301.018,171.602z"
					/>
				<path style="fill:#FFC3BD;" d="M300.889,190.025c-1.16,1.523-2.856,2.427-4.342,2.689c-2.235,0.394-2.914-1.662-1.926-3.659
					c0.889-1.797,3.124-4.167,5.191-3.655C301.848,185.906,302.216,188.284,300.889,190.025z"/>
				<path style="fill:#263238;" d="M296.281,185.33c0,0-1.371,4.916-4.036,8.068c-2.665,3.153-5.294,3.771-8.164,3.716
					c-2.87-0.054-2.432-4.021-2.432-4.021l-1.407-0.32c0,0,0.146,4.883-2.649,2.818c-0.61-0.451-1.19-1.89-1.571-3.019
					c-0.292-0.866-0.46-1.765-0.506-2.678l0,0c-0.679,1.076-0.93,5.861,0.112,8.141c0.731,1.599,2.691,2.976,4.478,3.541
					c2.985,0.944,7.324,0.898,10.513-0.364c5.106-2.021,5.845-6.919,6.028-9.721c0.183-2.801,0.96-6.163,0.96-6.163H296.281z"/>
				<path style="fill:#263238;" d="M286.062,183.418c-0.1,0.648-0.526,1.133-0.952,1.083c-0.426-0.051-0.69-0.617-0.59-1.266
					c0.1-0.649,0.526-1.133,0.952-1.083C285.898,182.203,286.162,182.77,286.062,183.418z"/>
				<path style="fill:#263238;" d="M278.702,182.543c-0.1,0.648-0.526,1.133-0.952,1.082c-0.426-0.051-0.69-0.617-0.59-1.266
					c0.1-0.648,0.526-1.133,0.952-1.083C278.538,181.328,278.802,181.895,278.702,182.543z"/>
				<path style="fill:#ED847E;" d="M280.945,182.804c0,0-1.545,3.146-3.074,4.624c0.907,0.97,2.621,0.636,2.621,0.636
					L280.945,182.804z"/>
				<path style="fill:#263238;" d="M280.503,191.264c2.559,0.353,4.21-1.046,4.285-1.111c0.08-0.069,0.089-0.191,0.02-0.271
					c-0.069-0.081-0.191-0.089-0.271-0.02c-0.019,0.016-1.897,1.611-4.685,0.88c-0.104-0.028-0.208,0.035-0.235,0.138
					c-0.027,0.103,0.035,0.208,0.138,0.235C280.011,191.182,280.261,191.231,280.503,191.264z"/>
				<path style="fill:#263238;" d="M290.24,179.401c0.062-0.014,0.12-0.043,0.171-0.088c0.159-0.141,0.173-0.385,0.032-0.544
					c-1.399-1.573-3.163-1.287-3.237-1.274c-0.201,0.015-0.35,0.235-0.314,0.445c0.036,0.21,0.235,0.35,0.444,0.314
					c0.073-0.011,1.432-0.209,2.53,1.027C289.964,179.389,290.108,179.43,290.24,179.401z"/>
				<path style="fill:#263238;" d="M276.277,177.825c0.118,0.034,0.251,0.011,0.353-0.074c1.347-1.12,2.731-0.749,2.745-0.746
					c0.205,0.058,0.418-0.062,0.475-0.267c0.057-0.204-0.061-0.416-0.265-0.474c0,0-0.002,0-0.002-0.001
					c-0.073-0.02-1.791-0.48-3.445,0.895c-0.164,0.136-0.186,0.379-0.05,0.542C276.139,177.763,276.206,177.804,276.277,177.825z"/>
				<path style="fill:#FFC3BD;" d="M291.676,262.159l-7.502-0.005l3.633,7.999c0,0,7.388-0.109,7.015-3.914L291.676,262.159z"/>
				<polygon style="fill:#FFC3BD;" points="277.013,267.312 280.858,272.505 287.807,270.153 284.173,262.154 				"/>
			</g>
		</g>
	</g>
</g>
<g id="Desk">
	<g>
		<g>
			
				<rect x="347.351" y="275.632" transform="matrix(-1 -1.224647e-16 1.224647e-16 -1 698.355 690.5205)" style="fill:#407BFF;" width="3.653" height="139.257"/>
			<g>
				
					<rect x="368.905" y="275.632" transform="matrix(-1 -1.224647e-16 1.224647e-16 -1 741.462 690.5205)" style="fill:#407BFF;" width="3.653" height="139.257"/>
				
					<rect x="368.905" y="275.632" transform="matrix(-1 -1.224647e-16 1.224647e-16 -1 741.462 690.5205)" style="opacity:0.2;" width="3.653" height="139.257"/>
			</g>
			<g>
				
					<rect x="139.948" y="275.632" transform="matrix(-1 -1.224647e-16 1.224647e-16 -1 283.5488 690.5205)" style="fill:#407BFF;" width="3.653" height="139.257"/>
				<polygon style="opacity:0.2;" points="139.948,275.632 143.601,275.632 143.601,369.196 139.948,361.032 				"/>
			</g>
			
				<rect x="118.395" y="275.632" transform="matrix(-1 -1.224647e-16 1.224647e-16 -1 240.442 690.5205)" style="fill:#407BFF;" width="3.653" height="139.257"/>
		</g>
		<g>
			
				<rect x="118.395" y="275.632" transform="matrix(-1 -1.224647e-16 1.224647e-16 -1 469.3985 632.7226)" style="fill:#407BFF;" width="232.609" height="81.459"/>
			
				<rect x="116.063" y="269.686" transform="matrix(-1 -1.224647e-16 1.224647e-16 -1 467.0671 545.3179)" style="fill:#407BFF;" width="234.941" height="5.945"/>
			<g>
				<rect x="351.004" y="275.632" style="fill:#407BFF;" width="21.553" height="81.459"/>
				<rect x="351.004" y="275.632" style="opacity:0.2;" width="21.553" height="81.459"/>
			</g>
			<g>
				<rect x="351.004" y="269.686" style="fill:#407BFF;" width="23.885" height="5.945"/>
				<rect x="351.004" y="269.686" style="opacity:0.2;" width="23.885" height="5.945"/>
			</g>
			
				<rect x="118.395" y="275.632" transform="matrix(-1 -1.224647e-16 1.224647e-16 -1 490.952 555.4061)" style="opacity:0.2;" width="254.163" height="4.143"/>
		</g>
		<g>
			<g>
				<path style="fill:#407BFF;" d="M263.877,253.699h-86.449c-3.291,0-6.106-2.693-6.256-5.984l-2.285-50.239
					c-0.15-3.291,2.42-5.984,5.711-5.984h86.449c3.291,0,6.106,2.693,6.256,5.984l2.285,50.239
					C269.738,251.007,267.168,253.699,263.877,253.699z"/>
				<g>
					<path style="fill:#407BFF;" d="M262.716,253.699h-86.449c-3.291,0-6.106-2.693-6.256-5.984l-2.285-50.239
						c-0.15-3.291,2.42-5.984,5.711-5.984h86.449c3.291,0,6.106,2.693,6.256,5.984l2.285,50.239
						C268.577,251.007,266.007,253.699,262.716,253.699z"/>
					<path style="opacity:0.2;fill:#FFFFFF;" d="M262.716,253.699h-86.449c-3.291,0-6.106-2.693-6.256-5.984l-2.285-50.239
						c-0.15-3.291,2.42-5.984,5.711-5.984h86.449c3.291,0,6.106,2.693,6.256,5.984l2.285,50.239
						C268.577,251.007,266.007,253.699,262.716,253.699z"/>
				</g>
				<rect x="210.75" y="223.342" style="fill:#407BFF;" width="16.511" height="30.357"/>
				<g>
					<path style="fill:#407BFF;" d="M210.23,220.1l-7.29,49.57h17.86l7.29-49.57H210.23z M220.72,235.85l-1.18,8.01
						c-0.18,1.23-1.23,2.14-2.47,2.14h-2.69c-1.53,0-2.7-1.36-2.48-2.87l1.18-8.01c0.18-1.23,1.23-2.14,2.47-2.14h2.69
						C219.77,232.98,220.94,234.34,220.72,235.85z"/>
					<path style="opacity:0.2;fill:#FFFFFF;" d="M210.23,220.1l-7.29,49.57h17.86l7.29-49.57H210.23z M220.72,235.85l-1.18,8.01
						c-0.18,1.23-1.23,2.14-2.47,2.14h-2.69c-1.53,0-2.7-1.36-2.48-2.87l1.18-8.01c0.18-1.23,1.23-2.14,2.47-2.14h2.69
						C219.77,232.98,220.94,234.34,220.72,235.85z"/>
				</g>
				<g>
					<polygon style="fill:#407BFF;" points="230.978,266.051 199.723,266.051 195.885,269.686 239.294,269.686 					"/>
					<polygon style="opacity:0.2;fill:#FFFFFF;" points="230.978,266.051 199.723,266.051 195.885,269.686 239.294,269.686 					"/>
				</g>
			</g>
			<g>
				<g>
					<g>
						<path style="fill:#407BFF;" d="M138.661,258.567c-1.765-0.966-1.161-10.618-0.387-16.119
							c0.936-6.651,3.74-18.422,12.633-24.941c4.239-3.108,8.292-5.751,9.002-9.101c1.299,2.974,8.694,24.247-1.85,33.793
							C149.141,250.272,142.534,248.471,138.661,258.567z"/>
					</g>
					<g style="opacity:0.2;">
						<path d="M138.661,258.567c-1.765-0.966-1.161-10.618-0.387-16.119c0.936-6.651,3.74-18.422,12.633-24.941
							c4.239-3.108,8.292-5.751,9.002-9.101c1.299,2.974,8.694,24.247-1.85,33.793C149.141,250.272,142.534,248.471,138.661,258.567
							z"/>
					</g>
				</g>
				<g>
					<path style="fill:#407BFF;" d="M140.976,253.109c2.056-1.146-0.294-12.356-2.173-18.74
						c-2.273-7.718-7.734-21.361-19.975-28.821c-5.835-3.556-11.359-6.574-12.803-10.459c-1.14,3.473-4.792,30.805,10.021,41.761
						C128.575,246.115,134.448,241.425,140.976,253.109z"/>
					<path style="fill:#FFFFFF;" d="M139.948,250.606c-0.119,0-0.229-0.078-0.264-0.199c-0.032-0.113-3.352-11.523-11.434-27.413
						c-7.506-14.757-17.586-17.152-17.688-17.174c-0.147-0.033-0.24-0.179-0.208-0.327c0.032-0.148,0.174-0.241,0.327-0.208
						c0.103,0.023,10.425,2.456,18.057,17.461c8.107,15.941,11.439,27.396,11.473,27.51c0.042,0.146-0.042,0.297-0.188,0.339
						C139.999,250.603,139.974,250.606,139.948,250.606z"/>
					<path style="fill:#FFFFFF;" d="M108.101,215.514c-0.067,0-0.136-0.025-0.188-0.075c-0.109-0.104-0.114-0.277-0.011-0.388
						c0.059-0.062,5.938-6.133,14.148-2.094c0.136,0.067,0.191,0.231,0.125,0.367c-0.067,0.136-0.231,0.191-0.367,0.125
						c-7.84-3.858-13.452,1.92-13.508,1.979C108.246,215.485,108.173,215.514,108.101,215.514z"/>
					<path style="fill:#FFFFFF;" d="M118.671,233.76c-0.048,0-0.096-0.012-0.14-0.038c-0.13-0.077-0.174-0.245-0.097-0.375
						c0.049-0.084,5.023-8.341,12.323-6.313c0.146,0.041,0.232,0.191,0.191,0.337c-0.041,0.146-0.195,0.231-0.338,0.191
						c-6.907-1.912-11.657,5.983-11.704,6.063C118.855,233.712,118.765,233.76,118.671,233.76z"/>
					<path style="fill:#FFFFFF;" d="M126.598,219.744c-0.121,0-0.233-0.081-0.265-0.204c-0.019-0.069-0.445-1.711,0.257-2.839
						c0.313-0.505,0.799-0.826,1.441-0.954c0.157-0.029,0.294,0.067,0.322,0.215c0.03,0.148-0.066,0.293-0.215,0.323
						c-0.493,0.099-0.848,0.329-1.081,0.704c-0.577,0.925-0.198,2.395-0.194,2.41c0.039,0.146-0.048,0.296-0.194,0.335
						C126.645,219.741,126.621,219.744,126.598,219.744z"/>
				</g>
				<g>
					<polygon style="fill:#407BFF;" points="154.432,247.993 129.116,247.993 131.448,269.66 152.101,269.66 					"/>
					<polygon style="opacity:0.7;fill:#FFFFFF;" points="154.432,247.993 129.116,247.993 131.448,269.66 152.101,269.66 					"/>
				</g>
			</g>
			<g>
				<g>
					<path style="fill:#407BFF;" d="M355.01,250.026v-1.348c0-0.601-0.487-1.088-1.088-1.088h-13.464
						c-0.601,0-1.088,0.487-1.088,1.088v21.008h15.64v-2.436c3.405,0,6.071-3.783,6.071-8.612
						C361.081,253.809,358.414,250.026,355.01,250.026z M355.01,265.057V252.22c2.102,0,3.878,2.939,3.878,6.419
						C358.888,262.117,357.112,265.057,355.01,265.057z"/>
					<path style="opacity:0.2;fill:#FFFFFF;" d="M355.01,250.026v-1.348c0-0.601-0.487-1.088-1.088-1.088h-13.464
						c-0.601,0-1.088,0.487-1.088,1.088v21.008h15.64v-2.436c3.405,0,6.071-3.783,6.071-8.612
						C361.081,253.809,358.414,250.026,355.01,250.026z M355.01,265.057V252.22c2.102,0,3.878,2.939,3.878,6.419
						C358.888,262.117,357.112,265.057,355.01,265.057z"/>
				</g>
				<polygon style="opacity:0.3;" points="355.01,252.22 353.23,252.22 355.01,257.155 				"/>
				<polygon style="opacity:0.3;" points="355.01,267.25 353.23,267.25 355.01,268.075 				"/>
			</g>
		</g>
	</g>
</g>
</svg>
