<?xml version="1.0" encoding="utf-8"?>
<!-- Generator: Adobe Illustrator 27.5.0, SVG Export Plug-In . SVG Version: 6.00 Build 0)  -->
<svg version="1.1" xmlns="http://www.w3.org/2000/svg" xmlns:xlink="http://www.w3.org/1999/xlink"
	x="0px" y="0px"
	viewBox="0 0 750 550" style="enable-background:new 0 0 750 500;" xml:space="preserve">

<g id="Background_simple" style="display:none;">
	<g style="display:inline;">
		<path style="fill:#407BFF;" d="M275.646,61.949c-32.303,2.963-63.452,9.273-91.078,19.169
			c-32.561,11.664-65.83,29.836-56.004,53.604c18.141,43.879,105.168,44.679,87.792,74.182
			c-19.682,33.419-6.483,72.62,81.835,83.522c167.746,20.705,370.527-100.445,313.574-167.016
			C576.307,83.966,447.166,46.214,275.646,61.949z"/>
		<path style="opacity:0.9;fill:#FFFFFF;" d="M275.646,61.949c-32.303,2.963-63.452,9.273-91.078,19.169
			c-32.561,11.664-65.83,29.836-56.004,53.604c18.141,43.879,105.168,44.679,87.792,74.182
			c-19.682,33.419-6.483,72.62,81.835,83.522c167.746,20.705,370.527-100.445,313.574-167.016
			C576.307,83.966,447.166,46.214,275.646,61.949z"/>
	</g>
</g>
<g id="Shadow">
	<g>
		<g>
			<path style="fill:#F5F5F5;" d="M700.513,448.394c0,3.387-141.26,6.132-315.513,6.132s-315.513-2.745-315.513-6.132
				c0-3.387,141.26-6.132,315.513-6.132S700.513,445.007,700.513,448.394z"/>
		</g>
	</g>
</g>
<g id="Plant">
	<g>
		<g>
			<g>
				<path style="fill:#407BFF;" d="M117.08,274.156c-18.236,21.331-23.562,52.906-13.332,79.038
					c11.366-10.144,19.37-25.607,19.876-39.132C124.131,300.538,120.591,287.226,117.08,274.156z"/>
			</g>
			<g>
				<path style="fill:#407BFF;" d="M113.898,355.659c-6.188,9.481-9.149,21.027-8.29,32.315
					c9.858-3.432,18.549-14.568,23.759-23.613c5.21-9.045,8.123-19.205,10.774-29.301
					C129.462,338.819,120.086,346.178,113.898,355.659z"/>
			</g>
			<g>
				<g>
					<path style="fill:#263238;" d="M111.624,311.407c-7.326,26.327-11.058,53.636-11.036,80.965
						c0.006,7.775,0.321,15.547,0.929,23.298c0.038,0.478,0.788,0.482,0.75,0c-2.136-27.258-0.551-54.784,4.742-81.611
						c1.49-7.55,3.276-15.039,5.339-22.452C112.477,311.141,111.754,310.942,111.624,311.407L111.624,311.407z"/>
				</g>
			</g>
			<g>
				<g>
					<path style="fill:#263238;" d="M101.722,396.893c7.484-17.817,17.324-34.507,28.697-50.108
						c0.285-0.391-0.366-0.765-0.648-0.379c-8.903,12.213-16.903,25.087-23.523,38.682c-1.859,3.818-3.605,7.69-5.249,11.605
						C100.812,397.138,101.538,397.332,101.722,396.893L101.722,396.893z"/>
				</g>
			</g>
			<g>
				<path style="fill:#407BFF;" d="M91.108,370.432c5.16,7.906,7.629,17.533,6.913,26.946c-8.22-2.862-15.467-12.147-19.811-19.689
					c-4.345-7.542-6.774-16.013-8.984-24.432C78.13,356.39,85.948,362.527,91.108,370.432z"/>
			</g>
			<g>
				<g>
					<path style="fill:#263238;" d="M101.499,403.616c-6.139-14.606-14.252-28.144-23.573-40.93
						c-0.282-0.386-0.933-0.012-0.648,0.378c9.279,12.728,17.386,26.21,23.498,40.751
						C100.96,404.254,101.687,404.061,101.499,403.616L101.499,403.616z"/>
				</g>
			</g>
			<g>
				<g>
					<path style="fill:#263238;" d="M101.788,408.467c11.6-11.934,23.445-23.628,35.045-35.562c0.337-0.346-0.193-0.877-0.53-0.53
						c-11.6,11.935-23.445,23.628-35.045,35.562C100.921,408.283,101.45,408.814,101.788,408.467L101.788,408.467z"/>
				</g>
			</g>
			<g>
				<path style="fill:#407BFF;" d="M137.269,367.422c-10.064,9.706-19.234,20.339-27.354,31.721l1.841,0
					c7.66-0.359,15.096-4.138,19.902-10.114C136.464,383.054,138.56,374.98,137.269,367.422z"/>
			</g>
			<g>
				<g>
					<g>
						<path style="fill:#263238;" d="M89.628,344.275c4.321,7.067,8.393,14.283,12.207,21.636c0.222,0.429,0.87,0.05,0.648-0.379
							c-3.814-7.353-7.886-14.569-12.207-21.636C90.024,343.485,89.375,343.861,89.628,344.275L89.628,344.275z"/>
					</g>
				</g>
				<g>
					<path style="fill:#407BFF;" d="M79.207,308.594c-1.648,7.413-3.283,17.052-3.299,24.771c-0.017,7.719,2.338,15.25,6.725,20.423
						s13.241,7.438,16.81,4.478L79.207,308.594z"/>
				</g>
			</g>
		</g>
		<rect x="78.981" y="411.913" style="fill:#263238;" width="43.964" height="8.148"/>
		<polygon style="fill:#263238;" points="115.825,449.088 88.525,449.088 83.564,418.194 119.744,418.194 		"/>
		<polygon style="opacity:0.2;" points="83.888,420.212 119.488,420.212 119.045,423.71 84.45,423.71 		"/>
	</g>
</g>
<g id="Speech_Bubble_2">
	<g>
		<g>
			<g>
				<path style="fill:#407BFF;" d="M635.175,235.829c11.107-6.351,25.259-2.496,31.609,8.611
					c6.351,11.107,2.496,25.259-8.611,31.609c-8.574,4.903-18.95,3.702-26.164-2.202l-6.873,1.081l1.635-7.168
					c-0.066-0.111-0.143-0.211-0.207-0.324C620.213,256.332,624.069,242.18,635.175,235.829z"/>
			</g>
			<path style="fill:none;stroke:#407BFF;stroke-width:0.5;stroke-linecap:round;stroke-linejoin:round;stroke-miterlimit:10;" d="
				M639.291,230.694c-7.396,1.424-13.905,6.814-16.685,13.814"/>
			<path style="fill:none;stroke:#407BFF;stroke-width:0.5;stroke-linecap:round;stroke-linejoin:round;stroke-miterlimit:10;" d="
				M621.446,247.764c-0.502,1.033-0.787,2.171-0.833,3.319"/>
		</g>
		<g>
			<polygon style="fill:#FFFFFF;" points="643.958,264.695 634.18,255.771 637.294,252.359 643.851,258.343 654.746,247.704 
				657.973,251.009 			"/>
		</g>
	</g>
</g>
<g id="Speech_Bubble_1">
	<g>
		<g>
			<g>
				<g>
					<path style="fill:#407BFF;" d="M396.577,87.908c11.668-6.78,26.624-2.818,33.404,8.851c6.78,11.668,2.818,26.624-8.851,33.404
						c-9.008,5.234-19.96,4.044-27.613-2.13l-7.242,1.191l1.672-7.572c-0.07-0.117-0.152-0.222-0.221-0.34
						C380.946,109.644,384.909,94.688,396.577,87.908z"/>
				</g>
				<path style="fill:none;stroke:#407BFF;stroke-width:0.5;stroke-linecap:round;stroke-linejoin:round;stroke-miterlimit:10;" d="
					M430.023,91.134c-4.746-6.371-12.852-10.081-20.776-9.509"/>
				<path style="fill:none;stroke:#407BFF;stroke-width:0.5;stroke-linecap:round;stroke-linejoin:round;stroke-miterlimit:10;" d="
					M405.623,82.016c-1.212-0.003-2.423,0.248-3.535,0.732"/>
			</g>
		</g>
		<g>
			<rect x="396.624" y="105.523" style="fill:#FFFFFF;" width="22.825" height="5.706"/>
			<polygon style="fill:#FFFFFF;" points="417.339,114.335 417.339,102.806 422.961,108.571 			"/>
		</g>
	</g>
</g>
<g id="Character_3">
	<g>
		<g>
			<path style="fill:#EEC1BB;" d="M546.078,233.047c0,0-0.607,10.473-5.722,28.828c-3.208,11.342-7.103,22.479-11.661,33.349
				c-2.551,6.141-5.479,12.659-8.84,19.516c-1.512,3.118-3.131,6.289-4.832,9.542c-1.957,55.55-33.133,112.018-33.133,112.018
				c-1.727,0.891-7.76-0.081-7.72-1.835c4.616-7.329,13.699-78.508,19.556-112.275c0.364-4.589,0.891-9.447,1.538-14.589
				c1.714-13.631,4.251-28.45,6.748-41.487c3.873-20.541,7.558-36.642,7.558-36.642l10.271,0.999L546.078,233.047z"/>
			<path style="fill:#263238;" d="M481.553,448.284h-1.755l-0.499-2.213l-5.938,2.699h-15.048c0,0-2.389-2.402,4.764-4.305
				c0.349-0.1,0.687-0.23,1.012-0.391c3.819-1.795,9.245-7.841,9.245-7.841h8.246c0.255,0.383,0.481,0.785,0.675,1.201
				C483.159,439.215,484.711,443.075,481.553,448.284z"/>
			<path style="fill:#EEC1BB;" d="M482.255,437.406L482.255,437.406c-1.08-1.215-6.033,4.116-9.663,5.938
				c-3.239,1.606-6.883,2.321-8.503,0.688c3.819-1.795,10.621-10.195,10.621-10.195l5.831,0.586
				C480.541,434.424,481.877,436.624,482.255,437.406z"/>
		</g>
		<g>
			<path style="fill:#EEC1BB;" d="M558.333,309.948L558.333,309.948c-0.828,5.974-1.894,12.367-3.199,19.178
				c11.135,37.155-11.769,109.67-11.769,109.67c-3.873,0.769-7.302,0.27-9.042-1.039c4.319-21.85,1.215-78.656-2.146-112.599
				c-0.297-3.077-0.675-6.465-1.08-10.082c-0.688-6.127-1.512-12.875-2.389-19.853c-1.485-11.674-3.145-23.956-4.643-34.847
				c-1.835-13.159-3.428-24.293-4.251-29.894c-0.338-2.456-0.54-3.846-0.54-3.846l32.148,3.482c0,0,8.179,9.164,9.447,37.789
				C561.289,281.969,560.44,296.039,558.333,309.948z"/>
			<path style="fill:#263238;" d="M544.162,448.284h-1.795l-0.499-2.213l-5.925,2.699h-15.035c0,0-2.389-2.402,4.777-4.305
				c0.349-0.1,0.688-0.23,1.012-0.391c3.806-1.795,9.245-7.841,9.245-7.841h8.246c0.248,0.387,0.474,0.788,0.675,1.201
				C545.768,439.215,547.28,443.075,544.162,448.284z"/>
			<path style="fill:#EEC1BB;" d="M544.864,437.406L544.864,437.406c-1.093-1.215-6.046,4.116-9.677,5.938
				c-3.239,1.606-6.883,2.321-8.489,0.688c3.806-1.795,9.812-9.609,9.812-9.609h6.627
				C543.136,434.424,544.472,436.624,544.864,437.406z"/>
		</g>
		<g>
			<g>
				<path style="fill:#263238;" d="M566.775,152.322c-1.651-1.426-4.318-0.879-6.588-1.146c-3.446-0.405-6.223-2.895-7.706-5.719
					c-1.483-2.825-1.915-5.986-2.443-9.073c-0.528-3.087-1.211-6.249-3.103-8.869c-1.892-2.62-6.449-5.868-9.76-3.881l-4.434,6.871
					c2.661,8.05,4.825,16.234,6.478,24.499c0.738,3.691,1.472,7.595,4.151,10.47c2.625,2.816,6.78,4.189,10.857,4.452
					c2.067,0.133,4.205,0.001,6.094-0.766c1.889-0.767,3.497-2.248,3.916-4.072c0.418-1.824-0.587-3.93-2.508-4.628
					c1.855-0.783,3.784-1.62,5.021-3.089C567.984,155.902,568.252,153.599,566.775,152.322z"/>
			</g>
			<g>
				<path style="fill:#263238;" d="M503.263,118.126c-5.068,4.904-5.708,10.741-4.903,14.736c1.702,5.283,4.278,8.773,6.697,13.769
					l8.584-34.299C510.409,113.608,508.774,113.195,503.263,118.126z"/>
				<path style="fill:#263238;" d="M518.55,112.131c9.894,0.201,19.827,8.474,20.605,16.501c0.778,8.028-7.118,18.386-8.599,19.022
					l-4.686,1.723c0,0,5.169-11.952,3.024-15.145c-2.145-3.193-3.701-3.228-3.701-3.228L518.55,112.131z"/>
				<path style="fill:#263238;" d="M510.149,114.034c5.147-3.64,11.227-1.559,14.835,0c4.064,2.346,6.932,6.317,7.879,10.914
					c0.786,4.315,1.739,9.546-0.467,12.272c-1.228,1.57-3.06,2.55-5.047,2.703l-24.929-15.806
					C504.097,120.153,506.757,116.683,510.149,114.034z"/>
				<g>
					<path style="fill:#EEC1BB;" d="M520.204,172.482c1.949,1.394,3.345,0.556,5.371-0.739c12.178-7.061,7.175-12.65,7.175-12.65
						c-3.001-2.45-3.741-5.9-3.804-11.354c-0.01-0.157-0.032-0.314-0.065-0.468c-0.137-0.704-0.489-1.349-1.007-1.845
						c-1.379-1.394-3.628-1.407-5.022-0.028c-0.001,0.001-0.003,0.003-0.004,0.004l-5.53,2.73l0,0
						c-0.001,0.083-0.003,0.166-0.004,0.26c0.511,2.896,1.003,5.127,1.304,6.897c-0.004,0.218,0.076,0.438,0.103,0.646l0,0
						c-0.004,0.218,0.055,0.447,0.093,0.656c0.301,2.446-3.146,6.745-4.661,7.893C513.248,165.246,513.597,167.789,520.204,172.482z
						"/>
					<path style="opacity:0.2;enable-background:new    ;" d="M517.33,148.048L517.33,148.048c0.013,0.09,0.011,0.181-0.005,0.27
						c0.511,2.896,1.002,5.127,1.304,6.897c0.05,0.212,0.085,0.428,0.103,0.646l0,0c0.029,0.228,0.042,0.457,0.04,0.686l0,0
						c4.214-2.013,7.709-5.27,10.016-9.331l0,0c-0.132-0.695-0.464-1.335-0.955-1.844c-1.366-1.407-3.612-1.446-5.025-0.086
						L517.33,148.048z"/>
					<path style="fill:#EEC1BB;" d="M529.7,126.774c1.594,10.018,2.487,14.208-1.265,20.489c-5.656,9.436-18.004,9.443-22.538,0.153
						c-4.01-8.377-5.987-23.313,2.585-29.605C517.053,111.52,528.096,116.746,529.7,126.774z"/>
					<path style="fill:#EEC1BB;" d="M535.674,134.514c-0.617,2.338-2.165,4.12-3.782,5.025c-2.432,1.361-4.917-2.469-4.734-5.326
						c0.165-2.571,2.307-4.824,4.986-4.998C534.782,129.043,536.38,131.842,535.674,134.514z"/>
					
						<path style="opacity:0.2;fill:none;stroke:#000000;stroke-width:0.5;stroke-linecap:round;stroke-linejoin:round;stroke-miterlimit:10;" d="
						M530.017,135.483c-0.191-0.951,0.01-1.974,0.547-2.782c0.536-0.808,1.401-1.391,2.351-1.584"/>
					<g>
						<g>
							<path style="fill:#263238;" d="M517.484,133.437c0.234,1.056-0.099,2.066-0.744,2.255c-0.645,0.189-1.357-0.514-1.591-1.57
								c-0.234-1.056,0.099-2.066,0.744-2.255C516.538,131.678,517.25,132.38,517.484,133.437z"/>
							<path style="fill:#263238;" d="M507.753,136.041c0.225,1.024-0.114,2.007-0.757,2.196c-0.643,0.188-1.346-0.489-1.571-1.513
								c-0.225-1.024,0.114-2.007,0.757-2.196C506.825,134.34,507.528,135.017,507.753,136.041z"/>
							<path style="fill:#263238;" d="M518.557,129.246c-0.122,0.048-0.259,0.046-0.381-0.017c-1.9-0.995-3.476-0.038-3.494-0.027
								c-0.234,0.142-0.529,0.069-0.657-0.174c-0.127-0.243-0.04-0.558,0.196-0.705c0.082-0.05,2.06-1.254,4.418-0.018
								c0.235,0.123,0.322,0.43,0.195,0.686C518.771,129.112,518.671,129.201,518.557,129.246z"/>
							<path style="fill:#263238;" d="M503.143,131.98c-0.108-0.006-0.211-0.058-0.284-0.154c-0.15-0.199-0.117-0.512,0.073-0.7
								c1.91-1.877,3.842-1.367,3.924-1.343c0.23,0.064,0.354,0.331,0.276,0.597c-0.077,0.265-0.326,0.428-0.556,0.365
								c-0.075-0.021-1.58-0.392-3.098,1.101C503.378,131.942,503.257,131.987,503.143,131.98z"/>
							<path style="fill:#D4827D;" d="M510.268,134.844c0,0-0.543,4.109-1.66,6.88c-0.195,0.484,0.152,1.02,0.672,1.066
								c1.339,0.118,2.654-0.673,2.654-0.673L510.268,134.844z"/>
						</g>
						<path style="fill:#263238;" d="M516.276,131.809l-2.408,0.079C513.868,131.888,515.563,133.24,516.276,131.809z"/>
						<path style="fill:#263238;" d="M506.421,134.489l-2.408,0.078C504.014,134.567,505.708,135.919,506.421,134.489z"/>
					</g>
				</g>
				<path style="fill:#263238;" d="M526.688,129.835c0,0-6.887-5.474-8.078-11.012c0,0-21.217-0.81-16.13,16.449
					c0,0-7.181-14.418,9.028-19.938c16.209-5.52,23.611,15.614,17.441,24.574C528.905,139.835,530.958,133.273,526.688,129.835z"/>
				<path style="fill:#263238;" d="M504.329,118.893c-1.81,2.504-2.775,5.519-2.755,8.608c0.395,2.171,3.637,3.202,3.637,3.202
					l2.747-5.391l0.758,4.158c5.792-1.725,8.638-5.486,9.836-10.384l-4.367-5.284C514.183,113.801,505.981,116.836,504.329,118.893z
					"/>
			</g>
			<path style="fill:none;stroke:#263238;stroke-width:0.5;stroke-linecap:round;stroke-linejoin:round;stroke-miterlimit:10;" d="
				M516.072,143.911c0.664,0.107,1.374-0.117,1.855-0.587c0.482-0.47,0.723-1.174,0.632-1.841"/>
			<path style="opacity:0.2;enable-background:new    ;" d="M535.841,140.665c0,0,7.477-9.276,1.622-17.181
				c0,0,4.314,2.968,3.494,8.091C540.314,135.597,538.561,138.857,535.841,140.665z"/>
		</g>
		<path style="opacity:0.2;enable-background:new    ;" d="M558.333,309.948L558.333,309.948
			c-8.795,2.969-17.962,4.696-27.235,5.129c-0.688-6.127-1.512-12.875-2.389-19.853c-2.551,6.141-5.479,12.659-8.84,19.516
			c-8.577-0.779-16.925-3.198-24.59-7.126c1.714-13.631,4.251-28.45,6.748-41.487c3.408-2,7.091-3.487,10.932-4.413
			c3.651-0.879,7.392-1.332,11.148-1.35c5.47-0.025,10.93,0.477,16.303,1.498c6.979,1.306,13.804,3.333,20.366,6.046
			C561.226,281.966,560.409,296.036,558.333,309.948z"/>
		<path style="fill:#263238;" d="M508.95,226.636h42.689l1.161,5.506c0,0,15.683,21.702,7.733,75.822c0,0-34.348,3.968-66.698-2.969
			c0,0,7.261-55.604,14.846-73.757L508.95,226.636z"/>
		<g>
			<path style="fill:#407BFF;" d="M549.483,209.854l3.035,22.701l-46.798-1.886c-0.123-4.877,4.227-17.819,3.724-21.358
				c-1.42-4.372-8.609-10.97-10.523-16.252c-2.041-7.335,2.173-27.503,3.547-28.143c1.666-0.775,3.743-0.705,5.02-1.267
				c4.967-1.169,16.268-5.205,21.332-5.835c0.98-0.092,1.953-0.269,2.921-0.381c0,0,19.147-0.922,19.995,6.869
				C551.82,164.735,547.172,185.171,549.483,209.854z"/>
			<polygon style="opacity:0.2;enable-background:new    ;" points="549.114,205.037 548.733,198.82 541.639,179.505 
				547.197,202.245 529.586,208.415 			"/>
			<path style="opacity:0.2;enable-background:new    ;" d="M528.732,225.298c0.626-0.082,6.183-6.118,6.183-6.118l15.896,0.602
				l-0.768-5.748c0.472-0.372-18.574,0.496-18.574,0.496l-2.736,5.933V225.298z"/>
			<path style="fill:#407BFF;" d="M544.507,159.244c0.819,0.102,4.147-1.783,10.156,5.934c6.008,7.717,12.744,37.136,13.124,41.428
				c0.483,5.451-3.15,8.138-6.772,8.736c-10.868,1.794-30.927,2.156-30.927,2.156v-9.24l20.014-4.531
				c0,0-11.358-27.342-9.565-34.387C542.329,162.297,544.507,159.244,544.507,159.244z"/>
		</g>
		<path style="fill:#EEC1BB;" d="M535.505,157.407c-1.445,7.855-7.32,14.021-15.055,16.013c-2.713,0.652-5.745-0.849-7.89-2.626
			c-2.174-1.814-3.621-4.35-4.077-7.144C517.904,159.936,526.435,156.751,535.505,157.407z"/>
		<path style="opacity:0.2;enable-background:new    ;" d="M550.101,203.728c0,0,3.253-0.184,4.633,1.589
			c0,0-0.831-3.399-5.08-2.685L550.101,203.728z"/>
	</g>
	<g>
		<g>
			<path style="fill:#407BFF;" d="M523.623,263.019V159.982H420.732v41.168c1.865,0.708,7.958,1.175,9.811,0.485
				c3.247-1.21,1.128-4.952,4.264-6.428c4.626-2.178,10.389,0.892,12.814,5.393c1.881,3.492,2.234,5.321,2.061,8.338
				c0.173,3.017-0.18,4.846-2.061,8.338c-2.425,4.502-8.188,7.571-12.814,5.393c-3.135-1.476-0.586-5.125-3.833-6.335
				c-1.853-0.69-8.377-0.317-10.242,0.392v46.294h46.011c0.055,1.005-0.06,2.01-0.415,2.963c-1.21,3.248-4.662,5.18-6.138,8.315
				c-2.178,4.626,0.892,10.389,5.393,12.814c3.492,1.881,5.321,2.234,8.338,2.061c3.017,0.173,4.846-0.18,8.338-2.061
				c4.501-2.425,7.571-8.188,5.393-12.814c-1.476-3.135-4.928-5.068-6.138-8.315c-0.355-0.953-0.47-1.958-0.415-2.963H523.623z"/>
		</g>
		<g>
			<g>
				<path style="fill:#407BFF;" d="M528.732,263.019V159.982H425.84v41.168c1.865,0.708,3.907,0.885,5.76,0.195
					c3.247-1.21,5.18-4.662,8.315-6.138c4.626-2.178,10.389,0.892,12.814,5.393c1.881,3.492,2.234,5.321,2.061,8.338
					c0.173,3.017-0.18,4.846-2.061,8.338c-2.425,4.502-8.188,7.571-12.814,5.393c-3.135-1.476-5.068-4.928-8.315-6.138
					c-1.853-0.69-3.895-0.514-5.76,0.195v46.294h46.011c0.055,1.005-0.06,2.01-0.415,2.963c-1.21,3.248-4.662,5.18-6.138,8.315
					c-2.178,4.626,0.892,10.389,5.394,12.814c3.492,1.881,5.321,2.234,8.338,2.061c3.017,0.173,4.846-0.18,8.338-2.061
					c4.501-2.425,7.571-8.188,5.393-12.814c-1.476-3.135-4.928-5.068-6.138-8.315c-0.355-0.953-0.47-1.958-0.415-2.963H528.732z"/>
			</g>
			<g style="opacity:0.3;">
				<path style="fill:#FFFFFF;" d="M528.732,263.019V159.982H425.84v41.168c1.865,0.708,3.907,0.885,5.76,0.195
					c3.247-1.21,5.18-4.662,8.315-6.138c4.626-2.178,10.389,0.892,12.814,5.393c1.881,3.492,2.234,5.321,2.061,8.338
					c0.173,3.017-0.18,4.846-2.061,8.338c-2.425,4.502-8.188,7.571-12.814,5.393c-3.135-1.476-5.068-4.928-8.315-6.138
					c-1.853-0.69-3.895-0.514-5.76,0.195v46.294h46.011c0.055,1.005-0.06,2.01-0.415,2.963c-1.21,3.248-4.662,5.18-6.138,8.315
					c-2.178,4.626,0.892,10.389,5.394,12.814c3.492,1.881,5.321,2.234,8.338,2.061c3.017,0.173,4.846-0.18,8.338-2.061
					c4.501-2.425,7.571-8.188,5.393-12.814c-1.476-3.135-4.928-5.068-6.138-8.315c-0.355-0.953-0.47-1.958-0.415-2.963H528.732z"/>
			</g>
			<g>
				<g>
					<g>
						<path style="fill:#EEC1BB;" d="M528.732,210.065c0,0-6.906,1.726-7.663,3.351c-0.756,1.625,1.799,1.501,1.799,1.501
							s-2.803,0.31-2.832,1.517c-0.035,1.45,2.641,1.307,2.641,1.307s-2.278,0.347-2.232,1.423c0.048,1.116,3.08,1.17,3.08,1.17
							s-1.558,0.548-1.103,1.278c0.455,0.73,6.889,0.969,8.783-0.235c1.894-1.204,1.902-9.471,1.533-11.275
							c-0.37-1.804-1.738-2.777-4.004-5.517V210.065L528.732,210.065z"/>
					</g>
					<g>
						<path style="opacity:0.2;" d="M522.874,215.052c0.004,0,0.008-0.001,0.012-0.001l4.861-0.774
							c0.065-0.011,0.11-0.079,0.1-0.153c-0.01-0.074-0.074-0.127-0.136-0.116l-4.861,0.774c-0.065,0.011-0.11,0.079-0.1,0.153
							C522.758,215.005,522.813,215.055,522.874,215.052z"/>
					</g>
					<g>
						<path style="opacity:0.2;" d="M522.822,217.87c0.001,0,0.002,0,0.003,0l4.728-0.372c0.066-0.005,0.115-0.07,0.109-0.144
							c-0.005-0.075-0.053-0.119-0.129-0.126l-4.728,0.372c-0.066,0.005-0.115,0.07-0.109,0.144
							C522.701,217.818,522.757,217.874,522.822,217.87z"/>
					</g>
					<g>
						<path style="opacity:0.2;" d="M523.692,220.462l3.521-0.176c0.066-0.003,0.116-0.067,0.113-0.141
							c-0.004-0.075-0.06-0.133-0.126-0.13l-3.521,0.176c-0.066,0.003-0.116,0.067-0.112,0.141
							C523.569,220.407,523.626,220.465,523.692,220.462z"/>
					</g>
				</g>
			</g>
		</g>
		<g>
			<g>
				<g>
					<path style="fill:#EEC1BB;" d="M449.755,207.338c0,0,7.397,2.068,8.153,3.692c0.757,1.625-1.799,1.501-1.799,1.501
						s2.803,0.31,2.832,1.517c0.035,1.45-2.641,1.307-2.641,1.307s2.278,0.346,2.232,1.423c-0.048,1.116-3.08,1.17-3.08,1.17
						s1.558,0.547,1.103,1.278c-0.455,0.73-6.889,0.969-8.783-0.235c-1.894-1.204-1.902-9.471-1.533-11.275
						c0.369-1.804,0.52-1.506,2.786-4.246l0.413,1.534c0.112,0.417,0.187,0.843,0.224,1.273L449.755,207.338z"/>
				</g>
				<g>
					<path style="opacity:0.2;" d="M456.103,212.666c-0.004,0-0.007-0.001-0.012-0.001l-4.861-0.774
						c-0.065-0.011-0.11-0.079-0.1-0.153c0.01-0.074,0.074-0.127,0.136-0.116l4.861,0.774c0.065,0.011,0.11,0.079,0.1,0.153
						C456.218,212.62,456.163,212.669,456.103,212.666z"/>
				</g>
				<g>
					<path style="opacity:0.2;" d="M456.155,215.485c-0.001,0-0.002,0-0.003,0l-4.728-0.372c-0.066-0.005-0.115-0.07-0.109-0.144
						c0.005-0.075,0.053-0.12,0.129-0.126l4.728,0.372c0.066,0.005,0.115,0.07,0.109,0.145
						C456.275,215.432,456.219,215.488,456.155,215.485z"/>
				</g>
				<g>
					<path style="opacity:0.2;" d="M455.285,218.076l-3.521-0.176c-0.066-0.003-0.116-0.067-0.113-0.141
						c0.004-0.075,0.06-0.133,0.126-0.13l3.521,0.176c0.066,0.003,0.116,0.067,0.113,0.142
						C455.407,218.021,455.351,218.08,455.285,218.076z"/>
				</g>
			</g>
		</g>
	</g>
</g>
<g id="Character_2">
	<g>
		<g>
			<polygon style="fill:#EEC1BB;" points="298.181,436.758 308.392,437.758 315.94,411.903 300.404,410.212 			"/>
			<g>
				<path style="fill:#263238;" d="M309.872,433.248h-3.646c-0.825,0-1.588,0.417-2.075,1.083c-2.103,2.871-3.683,1.786-5.969-0.913
					c-1.454-0.17-1.845,1.499-1.964,1.947l-2.726,9.914c-0.237,0.828,0.242,1.691,1.07,1.928c0.147,0.042,0.3,0.062,0.453,0.06
					c4.428,0,6.522,0,12.033,0h16.853c4.594,0,5.546-4.63,3.654-5.058c-8.51-1.881-14.536-4.385-17.166-6.86
					C309.901,434.915,310.402,434.591,309.872,433.248z"/>
				<path style="fill:#407BFF;" d="M317.783,436.067c0.384-0.276,0.613-0.718,0.619-1.19c0.032-0.254-0.083-0.503-0.297-0.643
					c-1.143-0.809-5.701,1.321-6.213,1.571c-0.057,0.02-0.102,0.065-0.122,0.122c-0.038,0.105,0.017,0.221,0.122,0.259
					c1.12,0.265,2.265,0.413,3.416,0.44C316.171,436.709,317.039,436.513,317.783,436.067z M317.819,434.579
					c0.093,0.057,0.14,0.167,0.119,0.274c-0.019,0.341-0.184,0.658-0.452,0.869c-1.035,0.774-3.535,0.44-4.88,0.19
					C314.498,435.079,317.188,434.139,317.819,434.579z"/>
				<path style="fill:#407BFF;" d="M312.047,436.234c1.369-0.571,4.237-2.821,4.082-4.011c-0.024-0.25-0.202-0.547-0.821-0.631
					c-2.499-0.286-3.571,4.202-3.571,4.392c-0.025,0.077-0.001,0.161,0.06,0.214c0.046,0.014,0.096,0.014,0.143,0L312.047,436.234z
					 M315.224,431.961c0.464,0.048,0.464,0.214,0.464,0.274c0.131,0.726-1.952,2.595-3.44,3.38c0.309-1.047,1.226-3.666,2.809-3.666
					L315.224,431.961z"/>
				<path style="fill:none;stroke:#407BFF;stroke-width:0.5;stroke-linecap:round;stroke-linejoin:round;stroke-miterlimit:10;" d="
					M312.403,436.062c-1.256,0.172-2.421,0.922-3.096,1.995"/>
				<path style="fill:none;stroke:#407BFF;stroke-width:0.5;stroke-linecap:round;stroke-linejoin:round;stroke-miterlimit:10;" d="
					M314.669,437.767c-1.256,0.171-2.421,0.922-3.096,1.994"/>
				<path style="fill:none;stroke:#407BFF;stroke-width:0.5;stroke-linecap:round;stroke-linejoin:round;stroke-miterlimit:10;" d="
					M317.488,439.202c-1.256,0.171-2.421,0.922-3.096,1.994"/>
			</g>
			<polygon style="opacity:0.3;" points="311.951,425.567 311.025,428.738 299.007,426.892 299.225,424.293 			"/>
		</g>
		<g>
			<polygon style="fill:#EEC1BB;" points="357.625,436.758 367.837,437.758 375.384,411.903 359.849,410.212 			"/>
			<g>
				<path style="fill:#263238;" d="M369.316,433.248h-3.646c-0.825,0-1.588,0.417-2.076,1.083c-2.102,2.871-3.682,1.786-5.969-0.913
					c-1.454-0.17-1.845,1.499-1.964,1.947l-2.726,9.914c-0.237,0.828,0.242,1.691,1.07,1.928c0.147,0.042,0.3,0.062,0.453,0.06
					c4.428,0,6.522,0,12.033,0h16.853c4.594,0,5.546-4.63,3.654-5.058c-8.51-1.881-14.536-4.385-17.166-6.86
					C369.345,434.915,369.846,434.591,369.316,433.248z"/>
				<path style="fill:#407BFF;" d="M377.228,436.067c0.384-0.276,0.613-0.718,0.619-1.19c0.032-0.254-0.083-0.503-0.298-0.643
					c-1.143-0.809-5.701,1.321-6.213,1.571c-0.057,0.02-0.102,0.065-0.122,0.122c-0.038,0.105,0.017,0.221,0.122,0.259
					c1.12,0.265,2.265,0.413,3.416,0.44C375.616,436.709,376.483,436.513,377.228,436.067z M377.263,434.579
					c0.093,0.057,0.14,0.167,0.119,0.274c-0.019,0.341-0.184,0.658-0.452,0.869c-1.036,0.774-3.535,0.44-4.88,0.19
					C373.943,435.079,376.633,434.139,377.263,434.579z"/>
				<path style="fill:#407BFF;" d="M371.491,436.234c1.369-0.571,4.237-2.821,4.082-4.011c-0.024-0.25-0.202-0.547-0.821-0.631
					c-2.5-0.286-3.571,4.202-3.571,4.392c-0.025,0.077-0.001,0.161,0.06,0.214c0.047,0.014,0.096,0.014,0.143,0L371.491,436.234z
					 M374.669,431.961c0.464,0.048,0.464,0.214,0.464,0.274c0.131,0.726-1.952,2.595-3.44,3.38c0.31-1.047,1.226-3.666,2.809-3.666
					L374.669,431.961z"/>
				<path style="fill:none;stroke:#407BFF;stroke-width:0.5;stroke-linecap:round;stroke-linejoin:round;stroke-miterlimit:10;" d="
					M371.847,436.062c-1.256,0.172-2.421,0.922-3.096,1.995"/>
				<path style="fill:none;stroke:#407BFF;stroke-width:0.5;stroke-linecap:round;stroke-linejoin:round;stroke-miterlimit:10;" d="
					M374.113,437.767c-1.256,0.171-2.421,0.922-3.096,1.994"/>
				<path style="fill:none;stroke:#407BFF;stroke-width:0.5;stroke-linecap:round;stroke-linejoin:round;stroke-miterlimit:10;" d="
					M376.932,439.202c-1.256,0.171-2.421,0.922-3.096,1.994"/>
			</g>
			<polygon style="opacity:0.3;" points="371.395,425.567 370.47,428.738 358.452,426.892 358.669,424.293 			"/>
		</g>
		<g>
			<g>
				<g>
					<g>
						<g>
							<path style="fill:#407BFF;" d="M379.452,241.924c0,0,8.464,37.377,12.498,69.933c1.229,9.923,1.464,23.192-0.708,32.961
								l-16.314,81.103l-20.529-2.056c3.226-34.978,7.722-78.119,9.01-96.473c-4.516-21.509-14.138-47.546-23.598-73.439
								L379.452,241.924z"/>
						</g>
					</g>
				</g>
				<g style="opacity:0.2;enable-background:new    ;">
					<g>
						<g>
							<path d="M379.452,241.924c0,0,8.464,37.377,12.498,69.933c1.229,9.923,1.464,23.192-0.708,32.961l-16.314,81.103
								l-20.529-2.056c3.226-34.978,7.722-78.119,9.01-96.473c-4.516-21.509-14.138-47.546-23.598-73.439L379.452,241.924z"/>
						</g>
					</g>
				</g>
				<path style="fill:#407BFF;" d="M311.996,333.923c0.464-2.023,1.206-6.132,2.116-11.551c-0.027-0.006-0.058-0.013-0.085-0.019
					c0.667-7.167,1.901-40.408,4.168-61.61c1.742-13.505,5.194-22.644,8.669-27.119c0.179-0.23,0.343-0.439,0.493-0.625
					c0.577-0.721,0.928-1.117,0.928-1.117c0.661,0.165,1.317,0.319,1.971,0.462c0.245,0.054,0.488,0.106,0.729,0.157
					c24.539,5.131,46.132-1.319,46.132-1.319c2.259,5.579,3.946,17.474,5.594,29.809c-2.567,2.817-13.831,6.471-26.753,8.893
					l-3.685,16.666c-1.939,10.333-4.429,20.468-6.544,29.594l-2.21,9.995c-0.134,0.656-0.266,1.306-0.391,1.944
					c-1.121,5.746-27.802,98.325-27.802,98.325l-17.383-1.018C297.945,425.389,305.71,361.314,311.996,333.923z"/>
				<path style="opacity:0.2;enable-background:new    ;" d="M311.996,333.923c0.464-2.023,1.206-6.132,2.116-11.551
					c-0.027-0.006-0.058-0.013-0.085-0.019c0.667-7.167,1.901-40.408,4.168-61.61c1.742-13.505,5.194-22.644,8.669-27.119
					c0.179-0.23,0.343-0.439,0.493-0.625c0.577-0.721,0.928-1.117,0.928-1.117c0.661,0.165,1.317,0.319,1.971,0.462
					c0.245,0.054,0.488,0.106,0.729,0.157c24.539,5.131,46.132-1.319,46.132-1.319c2.259,5.579,3.946,17.474,5.594,29.809
					c-2.567,2.817-13.831,6.471-26.753,8.893l-3.685,16.666c-1.939,10.333-4.429,20.468-6.544,29.594l-2.21,9.995
					c-0.134,0.656-0.266,1.306-0.391,1.944c-1.121,5.746-27.802,98.325-27.802,98.325l-17.383-1.018
					C297.945,425.389,305.71,361.314,311.996,333.923z"/>
			</g>
			<path style="opacity:0.2;enable-background:new    ;" d="M352.037,288.09c-0.068,0.34,7.961-28.842,7.961-28.842
				s6.759,26.054-3.526,42.35L352.037,288.09z"/>
		</g>
		<g>
			<path style="fill:#EEC1BB;" d="M334.762,156.428c0,0,4.082,3.139,9.339,7.669c1.095,0.944,2.301,1.76,3.577,2.438
				c3.445,1.829,6.584,2.876,7.435,1.215c0.189-0.365,0.335-0.761,0.442-1.175c0.722-2.781,0.426-6.69-1.822-8.479
				c-2.534-2.017-3.756-3.743-3.299-6.474c0.24-1.548,0.8-3.146,1.455-4.699l-1.994-2.332l-10.431-10.527
				C339.724,141.093,340.257,152.612,334.762,156.428z"/>
			<path style="opacity:0.2;" d="M350.349,152.221c-2.869-1.703-6.016-4.657-5.639-8.032c0.168-1.421,0.475-2.768,0.815-3.631
				l5.827,7.715C350.873,149.517,350.699,150.339,350.349,152.221z"/>
			<path style="fill:#EEC1BB;" d="M336.51,122.77c0.982,10.717,1.171,15.262,6.702,20.882c8.319,8.453,21.117,5.609,23.321-5.014
				c1.983-9.562,0.044-25.482-10.477-29.986C345.69,104.215,335.529,112.053,336.51,122.77z"/>
			<path style="fill:#263238;" d="M349.86,126.15c0.056,1.003,0.672,1.829,1.377,1.843c0.705,0.015,1.231-0.786,1.175-1.79
				c-0.056-1.003-0.672-1.829-1.377-1.843C350.331,124.345,349.804,125.146,349.86,126.15z"/>
			<path style="fill:#263238;" d="M360.967,125.998c0.056,0.972,0.672,1.772,1.374,1.787c0.703,0.015,1.227-0.761,1.171-1.734
				c-0.056-0.972-0.672-1.772-1.374-1.787C361.434,124.249,360.91,125.025,360.967,125.998z"/>
			<path style="fill:#263238;" d="M348.156,122.31c0.137,0.015,0.275-0.024,0.381-0.122c1.651-1.529,3.51-0.992,3.532-0.986
				c0.276,0.08,0.554-0.076,0.617-0.357c0.062-0.281-0.113-0.576-0.392-0.66c-0.097-0.029-2.43-0.705-4.479,1.193
				c-0.204,0.189-0.208,0.524-0.009,0.748C347.902,122.233,348.028,122.296,348.156,122.31z"/>
			<path style="fill:#263238;" d="M364.396,121.776c0.127,0.031,0.261,0.015,0.376-0.057c0.236-0.147,0.297-0.472,0.138-0.725
				c-1.605-2.537-3.99-2.691-4.092-2.696c-0.285-0.015-0.512,0.209-0.507,0.502c0.005,0.292,0.24,0.541,0.525,0.557
				c0.094,0.005,1.943,0.152,3.219,2.169C364.136,121.658,364.262,121.744,364.396,121.776z"/>
			<path style="fill:#263238;" d="M341.077,129.494c0,0,3.307-4.999,1.944-14.733c-0.228-1.632,0.804-3.177,2.422-3.491
				c4.624-0.898,10.806-6.731,18.348,4.854c0,0-3.597-13.876-24.657-8.286c-18.742,4.975-5.91,20.86-3.977,22.493
				C337.09,131.965,341.077,129.494,341.077,129.494z"/>
			<path style="fill:#EEC1BB;" d="M333.268,131.505c1.266,2.198,3.323,3.578,5.209,4.051c2.837,0.711,4.302-3.85,3.333-6.692
				c-0.872-2.558-3.659-4.252-6.42-3.694C332.67,125.72,331.82,128.992,333.268,131.505z"/>
			<g>
				<path style="fill:#263238;" d="M358.265,136.468c-0.872,1.343-1.921,3.945-1.921,3.945c-0.253-0.053-0.506-0.105-0.755-0.171
					c-3.412-0.799-4.731-2.296-5.159-3.715c-0.231-0.777-0.185-1.537-0.069-2.138c0.127-0.697,0.376-1.165,0.376-1.165
					c1.556,1.504,4.68,2.493,6.37,2.952C357.812,136.377,358.265,136.468,358.265,136.468z"/>
				<path style="fill:#FFFFFF;" d="M357.106,136.178l-0.596,1.149c-3.212-0.76-5.371-1.726-6.15-2.936
					c0.127-0.697,0.376-1.165,0.376-1.165C352.292,134.729,355.416,135.719,357.106,136.178z"/>
				<path style="fill:#DC5753;" d="M355.588,140.243c-3.412-0.799-4.731-2.296-5.159-3.715c1.152,0.317,2.506,0.827,3.613,1.638
					C354.891,138.782,355.34,139.532,355.588,140.243z"/>
			</g>
			<path style="fill:#D4827D;" d="M358.086,125.705c0,0,1.677,4.012,3.568,6.513c0.331,0.437,0.126,1.075-0.388,1.264
				c-1.323,0.487-2.872,0.046-2.872,0.046L358.086,125.705z"/>
			<path style="fill:#263238;" d="M350.82,124.336l2.46-0.581C353.28,123.755,351.935,125.589,350.82,124.336z"/>
			<path style="fill:#263238;" d="M361.884,124.29l2.46-0.581C364.344,123.709,362.999,125.543,361.884,124.29z"/>
			<g>
				<path style="fill:#263238;" d="M365.667,120.657c0,0,6.491-7.679,2.16-14.008c-1.627-2.379-4.616-2.733-7.253-3.895
					c-6.085-2.681-11.017-3.223-18.783,4.389c-8.08,7.919-9.542,10.586-0.629,20.342c0,0-0.962-1.276,2.333-4.178
					c3.295-2.903,6.931-5.485,5.166-8.3c0,0,2.739,1.057,2.935,3.663l4.818-1.316c0,0-0.209-1.863-1.484-3.726
					c0,0,2.497,1.471,3.308,3.628l4.168,0.785c0,0-0.612-3.824-1.789-5.197C360.616,112.842,364.434,116.768,365.667,120.657z"/>
			</g>
		</g>
		
			<path style="opacity:0.2;fill:none;stroke:#000000;stroke-width:0.5;stroke-linecap:round;stroke-linejoin:round;stroke-miterlimit:10;" d="
			M339.636,131.19c-0.089-1.011-0.559-1.985-1.294-2.684c-0.736-0.699-1.732-1.119-2.747-1.156"/>
		<g>
			<g>
				<path style="fill:#263238;" d="M390.59,220.125c-0.603-0.465-1.175-0.979-1.711-1.538c-0.455-0.477-0.772-1.092-0.662-1.092
					c-0.024-0.068-0.052-0.135-0.083-0.2l-0.193-0.446l-0.469-1.2c-0.317-0.861-0.621-1.8-0.924-2.753
					c-0.635-1.892-1.228-3.861-1.807-5.845c-1.173-3.984-2.29-8.014-3.421-12.059l-2.076-8.481c-0.301-1.374-0.766-3.376-1.385-5.66
					l-0.002-0.007l0,0c-1.688-6.229-4.508-14.538-8.196-17.842c-5.725-4.38-9.379,1.023-11.735,6.641
					c-2.261,5.392,3.321,20.126,3.321,20.126l6.801-0.492c0.86,3.135,1.762,6.254,2.65,9.437c1.159,4.153,2.538,8.229,3.918,12.305
					c0.704,2.046,1.435,4.092,2.235,6.153c0.469,1.046,0.897,2.076,1.38,3.169c0.235,0.538,0.497,1.108,0.786,1.677l0.51,0.954
					c0.214,0.398,0.454,0.779,0.717,1.138c1.008,1.297,2.249,2.345,3.642,3.076c1.073,0.601,2.202,1.071,3.366,1.4
					c2.12,0.613,4.309,0.878,6.498,0.785l1.228-5.937C393.515,222.34,391.901,221.202,390.59,220.125z"/>
				<path style="opacity:0.5;fill:#FFFFFF;" d="M390.59,220.125c-0.603-0.465-1.175-0.979-1.711-1.538
					c-0.455-0.477-0.772-1.092-0.662-1.092c-0.024-0.068-0.052-0.135-0.083-0.2l-0.193-0.446l-0.469-1.2
					c-0.317-0.861-0.621-1.8-0.924-2.753c-0.635-1.892-1.228-3.861-1.807-5.845c-1.173-3.984-2.29-8.014-3.421-12.059l-2.076-8.481
					c-0.301-1.374-0.766-3.376-1.385-5.66l-0.002-0.007l0,0c-1.688-6.229-4.508-14.538-8.196-17.842
					c-5.725-4.38-9.379,1.023-11.735,6.641c-2.261,5.392,3.321,20.126,3.321,20.126l6.801-0.492c0.86,3.135,1.762,6.254,2.65,9.437
					c1.159,4.153,2.538,8.229,3.918,12.305c0.704,2.046,1.435,4.092,2.235,6.153c0.469,1.046,0.897,2.076,1.38,3.169
					c0.235,0.538,0.497,1.108,0.786,1.677l0.51,0.954c0.214,0.398,0.454,0.779,0.717,1.138c1.008,1.297,2.249,2.345,3.642,3.076
					c1.073,0.601,2.202,1.071,3.366,1.4c2.12,0.613,4.309,0.878,6.498,0.785l1.228-5.937
					C393.515,222.34,391.901,221.202,390.59,220.125z"/>
				<g style="opacity:0.3;">
					<path d="M370.918,172.572c1.149,1.962,1.543,3.08,2.263,5.341c0.72,2.261,1.535,14.472-2.587,18.082v-8.466
						C370.744,182.341,370.767,177.759,370.918,172.572z"/>
				</g>
				<path style="fill:#263238;" d="M320.207,188.016l-6.384-21.768c4.039-6.027,24.021-10.659,24.021-10.659l10.241,3.594
					l2.924-2.874c0,0,5.06,1.129,9.392,2.542c5.783,1.886,8.911,3.403,10.289,6.612c0,0,2.413,7.11,0.962,21.761
					c-0.399,4.029,0.054,24.974,1.178,31.894l6.814,21.568c-24.054,18.733-57.725,1.24-57.725,1.24
					c1.081-3.308,4.684-13.464,5.173-16.697c-0.353-4.124,0.138-10.484-1.609-17.705
					C325.146,206.128,320.792,189.37,320.207,188.016z"/>
				<path style="opacity:0.5;fill:#FFFFFF;" d="M320.207,188.016l-6.384-21.768c4.039-6.027,24.021-10.659,24.021-10.659
					l10.241,3.594l2.924-2.874c0,0,5.06,1.129,9.392,2.542c5.783,1.886,8.911,3.403,10.289,6.612c0,0,2.413,7.11,0.962,21.761
					c-0.399,4.029,0.054,24.974,1.178,31.894l6.814,21.568c-24.054,18.733-57.725,1.24-57.725,1.24
					c1.081-3.308,4.684-13.464,5.173-16.697c-0.353-4.124,0.138-10.484-1.609-17.705
					C325.146,206.128,320.792,189.37,320.207,188.016z"/>
			</g>
			<path style="fill:#407BFF;" d="M393.285,211.459c0.749-9.059,7.734-16.358,16.751-17.505l-1.846,3.076l3.522-2.092
				l-16.151,20.258L393.285,211.459z"/>
			<path style="opacity:0.8;fill:#FFFFFF;enable-background:new    ;" d="M393.285,211.459c0.749-9.059,7.734-16.358,16.751-17.505
				l-1.846,3.076l3.522-2.092l-16.151,20.258L393.285,211.459z"/>
			<path style="fill:#407BFF;" d="M367.982,194.831l5.553-0.169l26.58,9.014l-24.226,37.009l-23.842-5.953
				c-1.359-0.376-2.155-1.783-1.779-3.142c0.056-0.202,0.137-0.397,0.241-0.58l9.629-17.412c0.192-0.344,0.192-0.763,0-1.108
				l-1.307-2.323c-0.275-0.476-0.275-1.062,0-1.538l6.46-12.105C365.838,195.535,366.854,194.896,367.982,194.831z"/>
			<polygon style="fill:#407BFF;" points="400.115,203.676 415.251,193.954 390.363,230.932 375.888,240.684 			"/>
			<polygon style="opacity:0.2;enable-background:new    ;" points="400.115,203.676 415.251,193.954 390.363,230.932 
				375.888,240.684 			"/>
			<g>
				<g>
					<path style="fill:#EEC1BB;" d="M397.143,220.873c0,0-5.882-1.542-7.175-0.533c-1.293,1.009,0.477,1.967,0.477,1.967
						s-2.025-0.911-2.629,0.06c-0.725,1.165,1.134,2.16,1.134,2.16s-1.692-0.663-2.182,0.232c-0.509,0.928,1.493,2.23,1.493,2.23
						s-1.307-0.201-1.356,0.582c-0.049,0.783,4.138,3.647,5.989,3.453c1.85-0.194,5.857-6.92,6.483-8.541
						c0.626-1.622,0.562-2.885-0.626-4.013L397.143,220.873L397.143,220.873z"/>
				</g>
				<g>
					<path style="opacity:0.2;" d="M390.384,222.42c0.003,0.002,0.005,0.003,0.008,0.004l3.626,1.387
						c0.049,0.018,0.112-0.019,0.141-0.083c0.029-0.065,0.012-0.134-0.035-0.151l-3.626-1.387c-0.049-0.018-0.112,0.019-0.141,0.083
						C390.329,222.334,390.342,222.398,390.384,222.42z"/>
				</g>
				<g>
					<path style="opacity:0.2;" d="M388.985,224.693c0.001,0,0.001,0.001,0.002,0.001l3.342,1.659
						c0.047,0.023,0.111-0.009,0.143-0.072c0.033-0.063,0.022-0.119-0.025-0.156l-3.342-1.659c-0.047-0.023-0.111,0.009-0.143,0.072
						C388.929,224.6,388.94,224.669,388.985,224.693z"/>
				</g>
				<g>
					<path style="opacity:0.2;" d="M388.312,227.163l2.44,1.318c0.046,0.025,0.11-0.006,0.144-0.068
						c0.034-0.062,0.024-0.133-0.022-0.158l-2.44-1.318c-0.046-0.025-0.11,0.006-0.144,0.068
						C388.256,227.068,388.266,227.139,388.312,227.163z"/>
				</g>
			</g>
			<polygon style="fill:#263238;" points="354.783,157.23 350.344,152.931 348.085,159.183 338.223,151.323 333.222,156.808 
				345.608,165.439 348.085,159.958 354.783,164.983 			"/>
			<path style="opacity:0.3;" d="M354.783,157.23c0.315,0.484,0,7.753,0,7.753l-6.698-5.025l-2.477,5.481l-11.903-8.209
				l12.183,10.615l2.196-6.445l7.47,6.445L354.783,157.23z"/>
			<path style="opacity:0.3;" d="M361.121,190.944l-34.117,32.872v-6.496c0,0,30.71-28.132,31.082-28.172
				C358.458,189.107,361.121,190.944,361.121,190.944z"/>
			<polygon style="opacity:0.3;" points="329.077,193.545 325.382,178.304 324.65,195.995 			"/>
		</g>
		<path style="fill:#407BFF;" d="M335.2,135.276c0,1.132,0.918,2.05,2.05,2.05c1.132,0,2.05-0.918,2.05-2.05
			c0-1.132-0.918-2.05-2.05-2.05C336.117,133.225,335.2,134.143,335.2,135.276z"/>
		<g>
			<g>
				<path style="fill:#263238;" d="M313.823,166.247c0,0-4.613,4.491-6.166,19.812c-1.114,10.997-3.932,34.711,4.614,37.756
					c8.546,3.045,45.815-32.587,45.815-32.587l-6.05-10.386l-27.386,15.151c0,0,2.792-25.118-2.035-27.413
					C317.789,166.285,313.823,166.247,313.823,166.247z"/>
				<path style="opacity:0.5;fill:#FFFFFF;" d="M313.823,166.247c0,0-4.613,4.491-6.166,19.812
					c-1.114,10.997-3.932,34.711,4.614,37.756c8.546,3.045,45.815-32.587,45.815-32.587l-6.05-10.386l-27.386,15.151
					c0,0,2.792-25.118-2.035-27.413C317.789,166.285,313.823,166.247,313.823,166.247z"/>
			</g>
			<g>
				<path style="fill:#EEC1BB;" d="M354.376,180.073c0,0,3.595-7.2,5.302-7.517c1.706-0.317,3.081,0.252,3.081,0.252
					s11.619-6.845,12.393-5.044c0.418,0.975-2.162,3.123-7.701,6.283c0,0,3.189,1.174,1.904,3.043c0,0,2.348,1.077,1.095,3.41
					c0,0,1.078,2.061-0.277,3.377c-1.355,1.316-7.739,4.949-11.436,5.491c-3.697,0.542-5.853-6.642-5.853-6.642L354.376,180.073z"/>
			</g>
		</g>
	</g>
</g>
<g id="Puzzle">
	<g>
		<path style="fill:#407BFF;" d="M393.627,385.791c3.135,1.476,5.068,4.928,8.315,6.138c1.824,0.68,3.833,0.521,5.675-0.161v-46.328
			h-44.341c-0.055-1.005,0.06-2.01,0.415-2.963c1.21-3.247,4.662-5.18,6.138-8.315c2.178-4.626-0.892-10.389-5.393-12.814
			c-3.492-1.881-5.321-2.234-8.338-2.061c-3.017-0.173-4.846,0.18-8.338,2.061c-4.502,2.425-7.572,8.188-5.393,12.814
			c1.476,3.135,4.928,5.068,6.138,8.315c0.355,0.953,0.47,1.958,0.415,2.963h-44.34v103.037h103.037v-41.202
			c-1.842-0.681-3.85-0.84-5.675-0.161c-3.247,1.21-5.193,4.635-8.315,6.138c-4.164,2.004-10.37-0.899-12.814-5.393
			c-1.895-3.484-2.234-5.321-2.061-8.338c-0.173-3.017,0.18-4.846,2.061-8.338C383.238,386.683,389.001,383.613,393.627,385.791z"/>
		<path style="opacity:0.4;" d="M393.627,385.791c3.135,1.476,5.068,4.928,8.315,6.138c1.824,0.68,3.833,0.521,5.675-0.161v-46.328
			h-44.341c-0.055-1.005,0.06-2.01,0.415-2.963c1.21-3.247,4.662-5.18,6.138-8.315c2.178-4.626-0.892-10.389-5.393-12.814
			c-3.492-1.881-5.321-2.234-8.338-2.061c-3.017-0.173-4.846,0.18-8.338,2.061c-4.502,2.425-7.572,8.188-5.393,12.814
			c1.476,3.135,4.928,5.068,6.138,8.315c0.355,0.953,0.47,1.958,0.415,2.963h-44.34v103.037h103.037v-41.202
			c-1.842-0.681-3.85-0.84-5.675-0.161c-3.247,1.21-5.193,4.635-8.315,6.138c-4.164,2.004-10.37-0.899-12.814-5.393
			c-1.895-3.484-2.234-5.321-2.061-8.338c-0.173-3.017,0.18-4.846,2.061-8.338C383.238,386.683,389.001,383.613,393.627,385.791z"/>
		<path style="fill:#407BFF;" d="M398.679,385.791c3.135,1.476,5.068,4.928,8.315,6.138c1.824,0.68,3.832,0.521,5.675-0.161v-46.328
			h-44.341c-0.055-1.005,0.06-2.01,0.415-2.963c1.21-3.247,4.662-5.18,6.138-8.315c2.178-4.626-0.892-10.389-5.393-12.814
			c-3.492-1.881-5.321-2.234-8.338-2.061c-3.017-0.173-4.846,0.18-8.338,2.061c-4.502,2.425-7.572,8.188-5.393,12.814
			c1.476,3.135,4.928,5.068,6.138,8.315c0.355,0.953,0.47,1.958,0.415,2.963h-44.34v103.037h103.037v-41.202
			c-1.842-0.681-3.851-0.84-5.675-0.161c-3.247,1.21-5.193,4.635-8.315,6.138c-4.164,2.004-10.37-0.899-12.814-5.393
			c-1.895-3.484-2.234-5.321-2.061-8.338c-0.173-3.017,0.18-4.846,2.061-8.338C388.29,386.683,394.053,383.613,398.679,385.791z"/>
	</g>
	<path style="opacity:0.4;" d="M395.56,413.969c0,0,3.568,6.394,9.696,5.861c6.128-0.533,7.412-3.197,7.412-3.197l-0.085-8.793
		l-13.672,5.235C397.968,413.849,396.839,414.114,395.56,413.969z"/>
</g>
<g id="Character_4">
	<g>
		<g>
			<g>
				<path style="fill:#407BFF;" d="M522.442,359.58l35.22-13.533l20.33-19.709c0.564-0.654,6.46-10.82,6.46-10.82l9.978,21.374
					c0,0-24.811,24.932-33.898,27.835c-7.345,2.346-33.348,8.717-33.348,8.717L522.442,359.58z"/>
			</g>
			<path style="opacity:0.4;" d="M544.032,369.218c0,0,4.246-16.646,13.738-20.109c9.492-3.462,21.762,1.968,21.411,2.202
				c-0.352,0.234-10.63,9.804-10.981,9.921c-0.262,0.087-13.327,4.693-20.09,6.927L544.032,369.218z"/>
		</g>
		<g>
			<g>
				<g>
					<path style="fill:#263238;" d="M480.09,345.971c-0.055,1.005,0.06,2.01,0.415,2.963c1.21,3.247,4.662,5.18,6.138,8.315
						c2.178,4.626-0.892,10.389-5.393,12.814c-3.492,1.881-5.321,2.234-8.338,2.061c-3.017,0.173-4.846-0.181-8.338-2.061
						c-4.502-2.425-7.571-8.188-5.393-12.814c1.476-3.135,4.928-5.068,6.138-8.315c0.355-0.953,0.47-1.958,0.415-2.963h-45.926
						v46.294c-1.865,0.709-3.907,0.885-5.76,0.195c-3.248-1.21-5.18-4.662-8.315-6.138c-4.626-2.178-10.389,0.892-12.814,5.393
						c-1.881,3.492-2.234,5.321-2.061,8.338c-0.173,3.017,0.181,4.846,2.061,8.338c2.425,4.501,8.188,7.571,12.814,5.393
						c3.135-1.476,5.068-4.928,8.315-6.138c1.852-0.69,3.895-0.514,5.76,0.195v41.168l102.681,0.459V346.43L480.09,345.971z"/>
				</g>
				<g style="opacity:0.4;">
					<path d="M480.09,345.971c-0.055,1.005,0.06,2.01,0.415,2.963c1.21,3.247,4.662,5.18,6.138,8.315
						c2.178,4.626-0.892,10.389-5.393,12.814c-3.492,1.881-5.321,2.234-8.338,2.061c-3.017,0.173-4.846-0.181-8.338-2.061
						c-4.502-2.425-7.571-8.188-5.393-12.814c1.476-3.135,4.928-5.068,6.138-8.315c0.355-0.953,0.47-1.958,0.415-2.963h-45.926
						v46.294c-1.865,0.709-3.907,0.885-5.76,0.195c-3.248-1.21-5.18-4.662-8.315-6.138c-4.626-2.178-10.389,0.892-12.814,5.393
						c-1.881,3.492-2.234,5.321-2.061,8.338c-0.173,3.017,0.181,4.846,2.061,8.338c2.425,4.501,8.188,7.571,12.814,5.393
						c3.135-1.476,5.068-4.928,8.315-6.138c1.852-0.69,3.895-0.514,5.76,0.195v41.168l102.681,0.459V346.43L480.09,345.971z"/>
				</g>
			</g>
			<g>
				<path style="fill:#263238;" d="M484.635,345.971c-0.055,1.005,0.06,2.01,0.415,2.963c1.21,3.247,4.662,5.18,6.138,8.315
					c2.178,4.626-0.892,10.389-5.393,12.814c-3.492,1.881-5.321,2.234-8.338,2.061c-3.017,0.173-4.846-0.181-8.338-2.061
					c-4.502-2.425-7.571-8.188-5.393-12.814c1.476-3.135,4.928-5.068,6.138-8.315c0.355-0.953,0.47-1.958,0.415-2.963h-45.926
					v46.294c-1.865,0.709-3.907,0.885-5.76,0.195c-3.247-1.21-5.18-4.662-8.315-6.138c-4.626-2.178-10.389,0.892-12.814,5.393
					c-1.881,3.492-2.234,5.321-2.061,8.338c-0.172,3.017,0.181,4.846,2.061,8.338c2.425,4.501,8.188,7.571,12.814,5.393
					c3.135-1.476,5.068-4.928,8.315-6.138c1.853-0.69,3.895-0.514,5.76,0.195v41.168l102.681,0.459V346.43L484.635,345.971z"/>
			</g>
		</g>
		<g>
			<g>
				<path style="fill:#E9B376;" d="M556.961,415.427l16.15-0.977c-2.584,14.229-5.241,23.459-4.11,30.764l-6.51,4.352l-6.028-5.928
					C556.464,443.638,555.35,432.008,556.961,415.427z"/>
				<g>
					<g>
						<g>
							<g>
								<path style="fill:#407BFF;" d="M555.493,433.654l5.869,0.069c2.839,4.917,4.804,3.759,7.813,0.29
									c1.704-0.178,2.139,1.78,2.272,2.307l3.054,11.642c0.266,0.972-0.307,1.976-1.279,2.242
									c-0.173,0.047-0.352,0.069-0.531,0.064c-5.183-0.061-7.635-0.09-14.085-0.165l-19.727-0.232
									c-5.378-0.063-6.429-5.496-4.208-5.971c9.987-2.084,17.075-4.933,20.188-7.794
									C555.436,435.605,554.854,435.218,555.493,433.654z"/>
								
									<path style="fill:none;stroke:#263238;stroke-width:0.5;stroke-linecap:round;stroke-linejoin:round;stroke-miterlimit:10;" d="
									M552.492,436.913c1.468,0.218,2.821,1.112,3.597,2.377"/>
								
									<path style="fill:none;stroke:#263238;stroke-width:0.5;stroke-linecap:round;stroke-linejoin:round;stroke-miterlimit:10;" d="
									M549.816,438.878c1.468,0.218,2.821,1.112,3.597,2.377"/>
								
									<path style="fill:none;stroke:#263238;stroke-width:0.5;stroke-linecap:round;stroke-linejoin:round;stroke-miterlimit:10;" d="
									M546.496,440.518c1.468,0.218,2.821,1.112,3.597,2.377"/>
							</g>
						</g>
					</g>
					<path style="opacity:0.7;fill:#FFFFFF;" d="M573.222,450.204c-0.173,0.047-0.352,0.069-0.531,0.064
						c-5.182-0.061-7.635-0.09-14.085-0.165l-19.727-0.232c-2.91-0.034-4.543-1.64-5.086-3.183
						c0.819,0.016,40.017,0.78,40.535,0.612l0.208,0.868C574.676,449.072,574.126,449.957,573.222,450.204z"/>
				</g>
			</g>
			<path style="fill:#263238;" d="M618.811,372.594c0,0-44.108-22.778-52.696-23.427c-8.588-0.649-16.796,4.002-18.438,21.785
				c-1.641,17.784,1.642,63.518,1.642,63.518l23.793,0.408l2.949-52.984c0,0,36.849,26.917,37.943,26.644
				c1.094-0.274,15.478-0.925,15.478-0.925L618.811,372.594z"/>
			<path style="opacity:0.3;fill:#FFFFFF;" d="M618.811,372.594c0,0-44.108-22.778-52.696-23.427
				c-8.588-0.649-16.796,4.002-18.438,21.785c-1.641,17.784,1.642,63.518,1.642,63.518l23.793,0.408l2.949-52.984
				c0,0,36.849,26.917,37.943,26.644c1.094-0.274,15.478-0.925,15.478-0.925L618.811,372.594z"/>
			<path style="opacity:0.4;" d="M574.708,406.673c0,0-19.438,6.808-19.645,22.839c-0.207,16.031,16.936,12.98,16.936,12.98
				L574.708,406.673z"/>
		</g>
		<g>
			<g>
				<path style="fill:#E9B376;" d="M635.694,448.44l-4.373-15.897c15.285-1.655,25.497,2.109,32.603-1.245l6.399,5.326l-4.227,7.932
					C666.097,444.555,654.829,448.383,635.694,448.44z"/>
				<g>
					<g>
						<g>
							<g>
								<path style="fill:#407BFF;" d="M656.21,448.553l-1.699-6.004c4.158-4.376,2.385-6.031-2.059-8.054
									c-0.695-1.684,1.17-2.717,1.667-3.011l10.949-6.623c0.911-0.564,2.107-0.283,2.671,0.629c0.1,0.162,0.176,0.338,0.225,0.522
									c1.5,5.302,2.21,7.811,4.077,14.41l5.709,20.182c1.556,5.502-3.665,8.21-4.82,6.089
									c-5.135-9.554-10.175-15.922-14.031-18.233C658.216,448.024,657.997,448.733,656.21,448.553z"/>
								
									<path style="fill:none;stroke:#263238;stroke-width:0.5;stroke-linecap:round;stroke-linejoin:round;stroke-miterlimit:10;" d="
									M660.437,450.631c-0.22-1.562,0.284-3.211,1.339-4.383"/>
								
									<path style="fill:none;stroke:#263238;stroke-width:0.5;stroke-linecap:round;stroke-linejoin:round;stroke-miterlimit:10;" d="
									M663.247,452.767c-0.22-1.562,0.284-3.211,1.339-4.384"/>
								
									<path style="fill:none;stroke:#263238;stroke-width:0.5;stroke-linecap:round;stroke-linejoin:round;stroke-miterlimit:10;" d="
									M665.919,455.657c-0.22-1.562,0.284-3.211,1.339-4.384"/>
							</g>
						</g>
					</g>
					<path style="opacity:0.7;fill:#FFFFFF;" d="M667.74,425.49c0.1,0.162,0.176,0.338,0.225,0.522
						c1.5,5.302,2.21,7.811,4.077,14.41l5.709,20.182c0.842,2.977-0.303,5.126-1.712,6.145c-0.23-0.84-11.266-41.033-11.593-41.511
						l0.822-0.474C666.148,424.35,667.215,424.643,667.74,425.49z"/>
				</g>
			</g>
			<path style="fill:#263238;" d="M667.151,381.277l1.915,9.614c0,0,4.909,19.07-1.972,28.648
				c-6.574,9.151-16.273,10.783-16.273,10.783l1.994,18.391l-1.994,1.242c0,0-12.688,0-38.66-1.186
				c-24.672-1.126-45.88-2.305-50.257-9.966c-4.378-7.66-5.388-11.381,1.77-20.519c6.469-8.259,55.726-20.424,57.44-20.917
				l-0.688-4.197l-0.799-2.972L667.151,381.277z"/>
			<path style="opacity:0.3;fill:#FFFFFF;" d="M667.151,381.277l1.915,9.614c0,0,4.909,19.07-1.972,28.648
				c-6.574,9.151-16.273,10.783-16.273,10.783l1.994,18.391l-1.994,1.242c0,0-12.688,0-38.66-1.186
				c-24.672-1.126-45.88-2.305-50.257-9.966c-4.378-7.66-5.388-11.381,1.77-20.519c6.469-8.259,55.726-20.424,57.44-20.917
				l-0.688-4.197l-0.799-2.972L667.151,381.277z"/>
			<path style="opacity:0.4;" d="M650.821,430.322c-1.514,0.395-55.02-1.331-55.02-1.331s15.815,2.712,27.51,3.699
				C635.006,433.676,650.821,430.322,650.821,430.322z"/>
			<path style="opacity:0.4;" d="M621.114,397.367l30.811-5.373C651.925,391.994,629.716,391.633,621.114,397.367z"/>
		</g>
		<g>
			<g>
				<g>
					<g>
						<g>
							<path style="fill:#E9B376;" d="M542.568,375.551c0,0-2.57-3.957-6.396-4.723c-3.825-0.766-6.676-2.396-9.559-2.768
								c-2.883-0.373-0.267,2.552,1.439,3.826c1.706,1.274,3.628,2.736,2.463,3.863c-1.164,1.127-14.674,4.554-16.11,6.3
								c-1.437,1.746,0.922,1.875,0.922,1.875s-3.259,0.921-3.246,2.311c0.004,0.361,0.597,1.195,2.148,1.009
								c3.489-0.42,10.765-1.679,10.765-1.679c-0.419,0.064-9.289,2.259-10.575,2.761c-1.68,0.656-2.138,1.823-1.725,2.785
								c0.587,1.369,11.678-0.978,12.214-0.75c0,0-6.43,1.138-7.045,2.958c-0.615,1.821,3.472,1.325,6.993,0.204
								c3.227-1.028,9.828-2.199,13.007-3.562c3.918-1.68,6.171-3.688,6.257-7.684C544.204,378.28,542.568,375.551,542.568,375.551z
								"/>
						</g>
					</g>
				</g>
			</g>
			<polygon style="fill:#E9B376;" points="538.341,375.465 548.207,371.519 551.615,382.191 540.045,386.317 			"/>
		</g>
		<g>
			<g>
				<g>
					<g>
						<g>
							<path style="fill:#E9B376;" d="M609.908,301.653c0,0-2.679-6.051-2.111-18.031c-0.003-0.012-0.656-0.133-0.659-0.144
								c0.073-1.674,0.203-3.236,0.352-4.598c0.002-0.039-0.002-0.051-0.002-0.051l-13.058,13.136
								c1.217,3.496,1.587,10.726,1.52,13.833c0,0-0.668,5.757,6.43,4.304C607.566,309.039,609.908,301.653,609.908,301.653z"/>
							<path style="opacity:0.2;" d="M595.372,297.064l8.344-4.098c-0.144,2.934-1.794,6.766-7.867,8.499
								C595.848,301.466,595.726,298.25,595.372,297.064z"/>
						</g>
						<g>
							<path style="fill:#E9B376;" d="M605.826,271.356c1.291,9.962,2.22,15.554-1.798,21.521
								c-6.044,8.975-18.779,6.866-23.032-2.537c-3.828-8.464-5.296-23.333,3.624-29.018
								C593.408,255.721,604.535,261.394,605.826,271.356z"/>
							<path style="fill:#263238;" d="M601.989,257.342c-4.612-5.399-13.2-0.672-16.464,2.832c-0.488,0.524,8.345,3.019,7.822,2.935
								l2.79,2.313c0.36-0.156,1.104,3.268,1.734,6.234c0.578,2.724,1.878,5.232,3.778,7.269c1.592,1.706,3.723,3.75,6.117,5.409
								c3.115-2.338,2.163-8.36,2.562-12.131C610.922,266.585,610.791,256.066,601.989,257.342z"/>
							<path style="fill:#E9B376;" d="M611.294,278.815c-0.299,2.686-1.818,4.974-3.585,6.32c-2.657,2.025-4.371-0.976-4.69-4.132
								c-0.287-2.84-0.127-6.398,3.049-7.183C609.197,273.046,611.636,275.743,611.294,278.815z"/>
							<path style="fill:#263238;" d="M592.281,276.912c0.194,1.008-0.185,1.922-0.845,2.042c-0.661,0.121-1.354-0.598-1.548-1.606
								c-0.194-1.008,0.184-1.922,0.845-2.042C591.393,275.185,592.086,275.904,592.281,276.912z"/>
							<path style="fill:#263238;" d="M582.437,279.011c0.194,1.008-0.184,1.922-0.845,2.042c-0.661,0.12-1.354-0.599-1.548-1.606
								c-0.194-1.008,0.184-1.922,0.845-2.042C581.55,277.284,582.243,278.003,582.437,279.011z"/>
							<path style="fill:#D58745;" d="M585.544,277.833c0,0-2.226,5.62-2.855,7.855c1.646,0.997,3.949-0.052,3.949-0.052
								L585.544,277.833z"/>
							<path style="fill:#263238;" d="M593.829,271.689c-0.14,0.091-0.325,0.107-0.486,0.025c-1.915-0.978-3.466-0.127-3.482-0.118
								c-0.231,0.13-0.526,0.05-0.658-0.179c-0.132-0.229-0.051-0.521,0.178-0.651c0.081-0.047,2.024-1.114,4.4,0.101
								c0.237,0.121,0.331,0.409,0.21,0.644C593.953,271.585,593.896,271.645,593.829,271.689z"/>
							
								<path style="fill:none;stroke:#263238;stroke-width:0.75;stroke-linecap:round;stroke-linejoin:round;stroke-miterlimit:10;" d="
								M590.558,288.211c1.636-0.302,2.747-1.361,3.779-2.822"/>
						</g>
						
							<path style="opacity:0.2;fill:none;stroke:#000000;stroke-width:0.5;stroke-linecap:round;stroke-linejoin:round;stroke-miterlimit:10;" d="
							M608.521,276.525c-0.51-0.512-1.36-0.572-2.016-0.27c-0.656,0.302-1.133,0.904-1.443,1.556
							c-0.372,0.783-0.536,1.664-0.468,2.528"/>
					</g>
					<path style="fill:#263238;" d="M577.258,275.598c-0.091-0.002-0.183-0.03-0.264-0.087c-0.219-0.152-0.275-0.452-0.125-0.669
						c1.501-2.182,3.708-2.118,3.807-2.129c0.265,0.009,0.475,0.231,0.469,0.496c-0.006,0.264-0.224,0.471-0.487,0.465
						c-0.092-0.006-1.793-0.033-2.998,1.718C577.567,275.53,577.414,275.602,577.258,275.598z"/>
				</g>
			</g>
			<path style="fill:#263238;" d="M601.989,257.342c0,0-6.133-7.578-16.74-5.078c-8.532,2.011-12.982,8.253-13.148,14.224
				c-0.071,2.566,0.498,4.475,1.171,5.818c0.508,1.014,1.967,0.862,2.293-0.225c0.093-0.309,0.204-0.612,0.334-0.909
				c0.034,0.067,0.071,0.134,0.11,0.198c0.621,1.042,2.275,0.659,2.3-0.554c0.008-0.383,0.052-0.766,0.131-1.144
				c0.006,0.009,0.011,0.018,0.017,0.027c0.569,0.914,1.994,0.637,2.221-0.415c1.003-4.641,6.66-8.128,11.771-6.053l3.688,2.19
				C600.365,262.952,601.989,257.342,601.989,257.342z"/>
		</g>
		<polygon style="opacity:0.4;" points="617.908,390.478 617.326,394.38 600.122,399.559 604.087,402.1 621.114,397.367 
			621.816,389.787 		"/>
		<g>
			<g>
				<path style="fill:#407BFF;" d="M630.762,302.878c-7.725-4.953-21.339-2.598-21.339-2.598l-24.971,15.238l17.075,40.136
					c0,0,7.126,17.07,10.97,28.438c0.952,2.817,2.774,6.745,5.723,6.361l47.429-8.575c2.318-0.419,3.782-2.731,3.154-5.001
					C664.225,360.338,637.681,307.315,630.762,302.878z"/>
				<path style="opacity:0.4;" d="M635.22,325.202c0,0-7.6,14.308-20.945,26.783c-5.389,5.038-9.132,12.302-9.132,12.302
					l-3.346-8.547L635.22,325.202z"/>
			</g>
			<g>
				<path style="fill:#407BFF;" d="M611.708,314.176l-32.333,40.318l-37.96,17.234l3.784,15.713c0,0,30.779-8.305,43.149-16.014
					c12.37-7.709,32.765-29.266,32.765-29.266s17.786-14.274,16.937-25.822C637.203,304.79,620.273,302.093,611.708,314.176z"/>
			</g>
			<path style="fill:#407BFF;" d="M594.156,309.596c0,0,1.201-6.159,1.783-5.911c0.582,0.248,6.362,3.718,6.362,3.718l6.464-9.684
				l3.88,2.567l-8.93,18.513L594.156,309.596z"/>
			<polygon style="opacity:0.4;" points="591.317,335.436 583.861,325.202 589.885,341.227 592.818,338.107 613.406,312.082 			"/>
			<path style="opacity:0.4;" d="M594.156,309.596c0.326,0.117,5.68,3.726,5.388,3.785c-0.293,0.059,2.253-4.318,2.253-4.318
				l5.676,2.159l4.659-11.277l-4.586,12.99l-5.377-2.6l-2.625,4.761L594.156,309.596z"/>
		</g>
	</g>
</g>
<g id="Character_1">
	<g>
		<g>
			<g>
				<g>
					<path style="fill:#263238;" d="M225.722,232.948c0.055-1.005-0.06-2.01-0.415-2.963c-1.21-3.247-4.662-5.18-6.138-8.315
						c-2.178-4.626,0.892-10.389,5.393-12.814c3.492-1.881,5.321-2.234,8.338-2.061c3.017-0.173,4.846,0.181,8.338,2.061
						c4.501,2.425,7.571,8.188,5.393,12.814c-1.476,3.135-4.928,5.068-6.138,8.315c-0.355,0.953-0.47,1.958-0.415,2.963h45.926
						v-46.294c1.865-0.709,3.907-0.885,5.76-0.195c3.247,1.21,5.18,4.662,8.315,6.138c4.626,2.178,10.389-0.892,12.814-5.393
						c1.881-3.492,2.234-5.321,2.061-8.338c0.173-3.017-0.18-4.846-2.061-8.338c-2.425-4.502-8.188-7.571-12.814-5.393
						c-3.135,1.476-5.068,4.928-8.315,6.138c-1.852,0.69-3.895,0.514-5.76-0.195v-41.168l-102.681-0.459v103.037L225.722,232.948z"
						/>
				</g>
				<g style="opacity:0.4;">
					<path d="M225.722,232.948c0.055-1.005-0.06-2.01-0.415-2.963c-1.21-3.247-4.662-5.18-6.138-8.315
						c-2.178-4.626,0.892-10.389,5.393-12.814c3.492-1.881,5.321-2.234,8.338-2.061c3.017-0.173,4.846,0.181,8.338,2.061
						c4.501,2.425,7.571,8.188,5.393,12.814c-1.476,3.135-4.928,5.068-6.138,8.315c-0.355,0.953-0.47,1.958-0.415,2.963h45.926
						v-46.294c1.865-0.709,3.907-0.885,5.76-0.195c3.247,1.21,5.18,4.662,8.315,6.138c4.626,2.178,10.389-0.892,12.814-5.393
						c1.881-3.492,2.234-5.321,2.061-8.338c0.173-3.017-0.18-4.846-2.061-8.338c-2.425-4.502-8.188-7.571-12.814-5.393
						c-3.135,1.476-5.068,4.928-8.315,6.138c-1.852,0.69-3.895,0.514-5.76-0.195v-41.168l-102.681-0.459v103.037L225.722,232.948z"
						/>
				</g>
			</g>
			<g>
				<path style="fill:#263238;" d="M228.835,232.948c0.055-1.005-0.06-2.01-0.415-2.963c-1.21-3.247-4.662-5.18-6.138-8.315
					c-2.178-4.626,0.892-10.389,5.393-12.814c3.492-1.881,5.321-2.234,8.338-2.061c3.017-0.173,4.846,0.181,8.338,2.061
					c4.502,2.425,7.571,8.188,5.393,12.814c-1.476,3.135-4.928,5.068-6.138,8.315c-0.355,0.953-0.47,1.958-0.415,2.963h45.926
					v-46.294c1.865-0.709,3.907-0.885,5.76-0.195c3.248,1.21,5.18,4.662,8.315,6.138c4.626,2.178,10.389-0.892,12.814-5.393
					c1.881-3.492,2.234-5.321,2.061-8.338c0.173-3.017-0.181-4.846-2.061-8.338c-2.425-4.502-8.188-7.571-12.814-5.393
					c-3.135,1.476-5.068,4.928-8.315,6.138c-1.852,0.69-3.895,0.514-5.76-0.195v-41.168l-102.681-0.459v103.037L228.835,232.948z"/>
			</g>
		</g>
		<g>
			<path style="fill:#B97964;" d="M160.565,177.796c0,0-7.498,26.564-2.702,31.188c4.796,4.624,21.58,1.541,20.724,1.199
				c-0.856-0.343,4.282-32.289,4.624-31.131C183.553,180.211,160.565,177.796,160.565,177.796z"/>
			<g>
				<g>
					<g>
						<g>
							<g>
								<path style="fill:#B97964;" d="M169.893,417.648l-0.023,23.045l10.7,0.832l3.761-21.649
									C179.437,416.341,174.621,415.498,169.893,417.648z"/>
							</g>
						</g>
					</g>
				</g>
				<g>
					<g>
						<g>
							<g>
								<g>
									<path style="fill:#263238;" d="M169.774,438.288c-1.053,3.041-1.122,15.485-1.122,15.485l22.681,0.026
										c1.348-4.5-0.738-7.572-3.383-7.979c-1.137-0.173-2.474-1.438-3.449-2.542c-0.007-0.143-1.394-7.056-2.251-7.386
										c0,0-0.591-0.719-1.094-0.001c-0.503,0.717-0.94,3.053-0.94,3.053C176.677,434.185,173.207,434.82,169.774,438.288z"/>
								</g>
							</g>
						</g>
					</g>
				</g>
				<g>
					<g>
						<g>
							<g>
								<path style="fill:#FFFFFF;" d="M169.499,441.901c2.563-1.023,5.313-0.634,7.547,1.066c0.391,0.298,0.762-0.398,0.374-0.693
									c-2.38-1.811-5.389-2.236-8.118-1.146C168.858,441.304,169.05,442.08,169.499,441.901L169.499,441.901z"/>
							</g>
						</g>
					</g>
				</g>
				<g>
					<g>
						<g>
							<path style="fill:#FFFFFF;" d="M191.266,451.98C191.265,451.98,191.265,451.98,191.266,451.98l-22.348-0.026
								c-0.205,0-0.37-0.18-0.37-0.402c0-0.221,0.166-0.401,0.371-0.401c0,0,0,0,0,0l22.348,0.026c0.205,0,0.37,0.18,0.37,0.402
								C191.636,451.8,191.47,451.98,191.266,451.98z"/>
						</g>
					</g>
				</g>
			</g>
			<g>
				<g>
					<g>
						<g>
							<g>
								<path style="fill:#B97964;" d="M216.055,414.643l-0.026,26.009l10.296,0.849l5.065-24.346
									C227.256,413.829,222.456,412.199,216.055,414.643z"/>
							</g>
						</g>
					</g>
				</g>
				<g>
					<g>
						<g>
							<g>
								<g>
									<path style="fill:#263238;" d="M215.563,438.342c-1.053,3.041-1.122,15.485-1.122,15.485l26.057,0.031
										c1.348-4.5-1.468-7.168-4.113-7.576c-1.137-0.173-5.12-1.846-6.095-2.95c-0.007-0.143-1.393-7.055-2.25-7.386
										c0,0-0.591-0.719-1.094-0.001c-0.503,0.717-0.94,3.053-0.94,3.053C222.466,434.238,218.996,434.874,215.563,438.342z"/>
								</g>
							</g>
						</g>
					</g>
				</g>
				<g>
					<g>
						<g>
							<g>
								<path style="fill:#FFFFFF;" d="M215.288,441.955c2.563-1.023,5.313-0.634,7.547,1.065c0.391,0.298,0.762-0.398,0.374-0.693
									c-2.38-1.811-5.389-2.236-8.118-1.147C214.647,441.358,214.839,442.134,215.288,441.955L215.288,441.955z"/>
							</g>
						</g>
					</g>
				</g>
				<g>
					<g>
						<g>
							<path style="fill:#FFFFFF;" d="M240.5,452.038C240.5,452.038,240.5,452.038,240.5,452.038l-25.794-0.03
								c-0.205,0-0.37-0.18-0.37-0.402c0-0.221,0.166-0.401,0.371-0.401c0,0,0,0,0,0l25.794,0.03c0.205,0,0.37,0.18,0.37,0.402
								C240.871,451.858,240.705,452.038,240.5,452.038z"/>
						</g>
					</g>
				</g>
			</g>
			<g>
				<g>
					<g>
						<g>
							<g>
								<path style="fill:#263238;" d="M165.456,429.005l22.802,1.214c5.116-16.579,10.172-76.025,10.695-93.872
									c0.624-21.325,8.26-74.844,1.509-85.981c-6.751-11.137-37.289-2.267-37.289-2.267s3.805,65.167,2.284,85.95
									C164.138,352.061,162.098,405.009,165.456,429.005z"/>
							</g>
						</g>
					</g>
				</g>
				<g>
					<polygon style="fill:#407BFF;" points="190.719,424.212 189.237,431.83 164.527,431.027 163.621,423.713 					"/>
				</g>
				<g>
					<g>
						<g>
							<g>
								<path style="fill:#263238;" d="M210.995,429.005l22.605,1.214c2.752-18.353,13.808-85.192,12.9-97.995
									c-1.109-15.639-14.202-83.333-19.07-88.552s-40.513,8.31-40.513,8.31s14.649,58.212,26.2,83.388
									C215.516,340.599,209.139,406.683,210.995,429.005z"/>
							</g>
						</g>
					</g>
				</g>
				<g>
					<polygon style="fill:#407BFF;" points="236.185,424.783 235.032,431.83 209.91,430.219 209.405,422.841 					"/>
				</g>
				<polygon style="opacity:0.3;" points="201.178,303.302 194.54,281.117 182.763,277.273 191.97,284.411 199.375,324.85 				"/>
			</g>
			<g>
				<g>
					<path style="fill:#263238;" d="M213.88,106.805c0,0.957,0.42,1.679,1.024,1.78c0.605,0.101,1.159-0.705,1.209-1.679
						s-0.403-1.679-1.008-1.78C214.501,105.025,213.997,105.881,213.88,106.805z"/>
					<path style="fill:#A24E3F;" d="M214.266,106.671c0.336,3.085,1.099,6.109,2.267,8.984c-1.514,0.556-3.196,0.421-4.601-0.369
						L214.266,106.671z"/>
					<path style="fill:#263238;" d="M212.15,103.732c-0.124,0.012-0.248-0.017-0.353-0.084c-0.218-0.215-0.22-0.566-0.006-0.784
						c0.002-0.002,0.004-0.004,0.006-0.006c1.12-1.395,2.849-2.159,4.635-2.049c0.296,0.027,0.514,0.287,0.488,0.583
						c0,0.002,0,0.003,0,0.005l0,0c-0.051,0.298-0.32,0.508-0.621,0.487l0,0c-1.415-0.064-2.774,0.562-3.644,1.679
						C212.527,103.705,212.336,103.769,212.15,103.732z"/>
				</g>
				<g>
					<path style="fill:#B97964;" d="M214.283,119.516c-0.125,0.511-0.281,1.015-0.464,1.508c-1.027,2.818-2.896,5.266-5.363,7.022
						c-0.62,0.447-1.275,0.846-1.96,1.191c-5.373,2.826-12.001,1.789-16.218-2.535c-5.427-5.387-5.286-11.61-5.904-22.143
						c-0.163-2.264,0.212-4.533,1.096-6.629c3.109-7.356,11.695-10.842,19.177-7.785c0.002,0.001,0.004,0.002,0.006,0.002
						C215.121,94.356,216.565,110.022,214.283,119.516z"/>
					<path style="opacity:0.2;enable-background:new    ;" d="M208.418,128.046c-0.62,0.447-1.275,0.846-1.96,1.191
						c-3.635,1.906-7.953,2.092-11.744,0.507c0.485-1.266,1.13-2.467,1.921-3.574C200.664,125.673,204.754,126.325,208.418,128.046z
						"/>
					<path style="fill:#B97964;" d="M186.85,141.71c5.286,4.715,18.216,2.979,18.216,2.979s8.07-2.18,6.368-4.652
						c-4.744-0.773-7.052-2.953-8.006-5.755c-0.515-1.73-0.677-3.544-0.477-5.336c0.076-1,0.21-1.994,0.4-2.979l-15.986-11.636
						C189.454,122.013,192.02,136.145,186.85,141.71z"/>
					<path style="fill:#263238;" d="M208.418,109.934l2.308,0.849l-1.147-4.639c0,0,3.378-5.07,0-9.468c0,0,9.334-2.788,4.061-7.605
						c-1.96-1.8-4.396,0-10.842-2.751c-3.494-1.508-14.426-1.622-14.967,2.751c0,0-7.877,0-8.727,13.182
						c-0.504,7.819,2.552,15.453,8.341,20.838c0,0,9.514,2.205,14.181-1.546C206.291,117.792,208.418,109.934,208.418,109.934z"/>
					<path style="fill:#B97964;" d="M202.333,110.681c0.407,2.007,1.715,3.726,3.558,4.677c2.179,0.913,3.622-2.104,3.3-5.273
						c-0.297-2.814-1.779-6.769-4.113-6.236C202.746,104.382,201.572,107.842,202.333,110.681z"/>
				</g>
			</g>
			<g>
				<path style="fill:#407BFF;" d="M170.595,139.176c0,0-3.714,1.129-5.562,1.806c-3.852,1.411-6.394,5.699-7.788,9.909
					c-3.406,10.287-8.91,34.642-8.91,34.642l19.973,4.198l10.655-22.946L170.595,139.176z"/>
				<path style="opacity:0.5;fill:#FFFFFF;" d="M170.595,139.176c0,0-5.345,0.995-8.159,3.319c-2.141,1.769-3.847,4.335-5.191,8.396
					c-3.406,10.287-8.91,34.642-8.91,34.642l19.973,4.198l10.655-22.946L170.595,139.176z"/>
				<g>
					<path style="fill:#407BFF;" d="M218.967,140.357c-5.891-0.634-24.012-4.728-48.372-1.181l-5.7,90.071
						c0,0-0.732,13.78-2.89,25.605c24.756,10.63,54.042,7.59,70.602-1.346c-0.192,0.376-0.734-9.453-1.583-23.85
						c-1.497-25.37-3.946-64.927-7.106-87.829C223.831,141.262,219.554,140.42,218.967,140.357z"/>
				</g>
				<g style="opacity:0.5;">
					<path style="fill:#FFFFFF;" d="M218.967,140.357c-5.891-0.634-24.012-4.728-48.372-1.181l-5.7,90.071
						c0,0-0.732,13.78-2.89,25.605c24.756,10.63,54.042,7.59,70.602-1.346c-0.192,0.376-0.734-9.453-1.583-23.85
						c-1.497-25.37-3.946-64.927-7.106-87.829C223.831,141.262,219.554,140.42,218.967,140.357z"/>
				</g>
				<g>
					<path style="fill:#407BFF;" d="M186.582,138.239c0.704-2.094,1.684-3.567,2.94-4.419l13.566,1.046l6.36,4.193L186.582,138.239z
						"/>
					<path style="opacity:0.5;fill:#FFFFFF;" d="M186.582,138.239c0.704-2.094,1.684-3.567,2.94-4.419l13.566,1.046l6.36,4.193
						L186.582,138.239z"/>
				</g>
				<path style="opacity:0.2;enable-background:new    ;" d="M218.336,168.391c2.172,10.145,5.296,30.032,11.19,36.963
					l-1.401-20.127L218.336,168.391z"/>
				<polygon style="opacity:0.2;enable-background:new    ;" points="167.038,189.451 167.563,163.438 162.103,188.214 				"/>
			</g>
			<g>
				<path style="fill:#B97964;" d="M228.736,176.415c-0.761,0.293,13.929,33.345,19.91,33.64
					c5.981,0.295,34.062-12.483,34.062-12.483l-6.3-7.52l-21.225,1.217l-10.825-23.044L228.736,176.415z"/>
				<g>
					<path style="fill:#407BFF;" d="M221.349,141.49c-7.619,5.032-11.395,16.425,9.03,51.601l22.057-13.47
						c-4.462-8.232-9.189-14.217-14.443-26.14C227.404,138.236,221.349,141.49,221.349,141.49z"/>
					<path style="opacity:0.5;fill:#FFFFFF;" d="M221.349,141.49c-7.619,5.032-11.395,16.425,9.03,51.601l22.057-13.47
						c-4.462-8.232-9.189-14.217-14.443-26.14C227.404,138.236,221.349,141.49,221.349,141.49z"/>
				</g>
				<path style="fill:#B97964;" d="M292.6,189.829c0-1.929-0.594-4.026-1.632-4.09c-1.039-0.064-6.586-0.006-6.586-0.006l0,0
					c0-1.557,2.92-3.26,1.969-4.323c-1.241-1.387-8.43,4.539-8.884,5.749c-0.89,2.374-1.335,2.967-1.335,2.967l3.8,8.721
					c0,0,7.031,4.632,8.663,3c1.632-1.632,1.484-3.376,1.484-3.376s1.632-2.262,1.484-3.745
					C291.413,193.241,292.6,191.758,292.6,189.829z"/>
			</g>
		</g>
	</g>
</g>
</svg>